{"glyphs":{"0":{"ha":797,"x_min":0,"x_max":0,"o":"m 335 -22 b 144 69 248 -22 184 8 b 83 306 103 129 83 208 b 107 540 83 383 91 461 b 178 764 123 618 146 693 b 308 938 209 835 253 893 b 499 1006 364 983 427 1006 b 689 914 585 1006 648 975 b 750 675 730 853 750 773 b 736 492 750 615 745 554 b 690 306 727 430 711 368 b 610 140 668 244 641 188 b 492 23 579 92 540 53 b 335 -22 445 -7 392 -22 m 493 939 b 320 845 429 939 372 908 b 203 610 269 783 230 704 b 163 315 176 515 163 417 b 340 46 162 136 222 46 b 513 138 404 46 462 77 b 630 372 565 200 603 278 b 669 667 656 466 669 564 b 628 863 669 747 656 813 b 493 939 601 914 556 939 "},"1":{"ha":797,"x_min":0,"x_max":0,"o":"m 332 0 l 488 888 l 279 735 l 240 793 l 511 983 l 582 983 l 408 0 "},"2":{"ha":797,"x_min":0,"x_max":0,"o":"m 11 0 l 25 83 l 479 489 b 614 635 542 544 587 593 b 656 774 641 678 655 724 b 602 894 656 824 638 864 b 471 939 566 924 523 939 b 327 892 415 939 367 923 b 239 768 287 861 257 820 l 165 785 b 282 945 189 851 228 905 b 474 1006 336 985 400 1006 b 660 945 547 1006 609 985 b 736 781 711 905 736 850 b 689 607 736 710 720 652 b 521 432 657 562 601 503 l 114 69 l 633 69 l 621 0 "},"3":{"ha":797,"x_min":0,"x_max":0,"o":"m 326 -22 b 145 28 257 -22 197 -6 b 39 165 94 61 58 107 l 115 193 b 194 85 128 148 155 112 b 333 46 234 59 281 46 b 515 115 408 46 469 69 b 583 293 560 162 583 221 b 520 434 583 355 562 402 b 354 482 478 466 423 482 l 315 482 l 326 549 l 365 549 b 566 610 451 549 518 569 b 638 779 614 650 638 707 b 588 895 638 827 621 866 b 463 939 554 924 513 939 b 257 824 373 939 304 900 l 193 861 b 465 1006 260 957 350 1006 b 644 944 537 1006 596 985 b 717 779 693 904 717 849 b 660 613 717 715 698 660 b 493 515 623 565 567 533 l 493 513 b 617 438 544 502 585 478 b 665 300 649 399 665 353 b 574 70 665 208 635 132 b 326 -22 513 9 430 -22 "},"4":{"ha":797,"x_min":0,"x_max":0,"o":"m 561 243 l 519 0 l 443 0 l 485 243 l 31 243 l 44 325 l 583 983 l 693 983 l 574 313 l 725 313 l 713 243 m 601 894 l 597 894 l 122 313 l 497 313 "},"5":{"ha":797,"x_min":0,"x_max":0,"o":"m 315 -22 b 146 23 250 -22 194 -7 b 42 142 98 53 63 93 l 114 176 b 192 81 130 137 156 105 b 317 46 229 58 270 46 b 521 128 403 46 471 73 b 596 333 571 182 596 251 b 535 488 596 396 576 448 b 375 549 495 528 442 549 b 171 494 299 549 231 531 l 267 983 l 729 983 l 717 914 l 326 914 l 261 585 b 396 611 303 602 348 611 b 601 536 480 611 548 586 b 679 347 653 486 679 423 b 584 84 679 243 647 155 b 315 -22 521 13 431 -22 "},"6":{"ha":797,"x_min":0,"x_max":0,"o":"m 143 250 b 199 103 143 192 162 143 b 347 43 237 63 286 43 b 542 123 427 43 492 70 b 617 319 592 176 617 242 b 563 464 617 377 599 425 b 419 522 528 503 480 522 b 222 443 341 522 275 496 b 143 250 169 390 143 326 m 63 251 b 95 390 63 299 73 345 b 200 549 117 436 152 488 l 544 983 l 640 983 l 281 542 l 283 539 b 432 585 328 569 377 585 b 622 513 510 585 573 561 b 696 325 671 466 696 403 b 598 76 696 225 663 142 b 344 -22 533 11 448 -22 b 142 56 262 -22 194 4 b 63 251 89 107 63 173 "},"7":{"ha":797,"x_min":0,"x_max":0,"o":"m 767 908 l 199 0 l 107 0 l 686 914 l 203 914 l 215 983 l 781 983 "},"8":{"ha":797,"x_min":0,"x_max":0,"o":"m 689 308 b 585 65 689 204 654 122 b 342 -22 516 7 435 -22 b 144 44 263 -22 197 0 b 64 228 91 88 64 149 b 135 421 64 303 88 367 b 315 525 183 475 243 509 l 315 528 b 219 602 274 544 241 568 b 185 717 196 636 185 674 b 270 923 185 799 213 868 b 481 1006 327 978 397 1006 b 663 945 556 1006 616 985 b 732 776 709 905 732 849 b 675 615 732 713 713 659 b 529 522 637 570 588 539 l 529 519 b 644 444 575 506 614 481 b 689 308 674 406 689 361 m 261 721 b 306 602 261 674 276 634 b 428 554 336 570 377 554 b 591 621 494 554 548 576 b 656 765 634 665 656 713 b 607 894 656 821 639 864 b 476 939 575 924 531 939 b 323 874 415 939 364 917 b 261 721 282 830 261 779 m 143 232 b 199 97 143 176 162 131 b 343 46 236 63 284 46 b 537 119 424 46 488 70 b 610 304 585 167 610 229 b 554 435 610 356 591 400 b 414 489 517 471 470 489 b 222 415 338 489 274 464 b 143 232 169 365 143 304 "},"9":{"ha":797,"x_min":0,"x_max":0,"o":"m 701 733 b 644 881 701 792 682 841 b 494 940 606 920 556 940 b 300 861 415 940 350 914 b 225 667 250 808 225 744 b 279 522 225 609 243 561 b 424 464 315 483 363 464 b 622 542 502 464 568 490 b 701 733 675 594 701 657 m 779 732 b 747 593 779 685 768 638 b 643 435 725 548 690 495 l 299 0 l 201 0 l 563 442 l 560 444 b 410 400 517 415 467 400 b 220 472 332 400 269 424 b 147 660 172 519 147 582 b 245 908 147 761 180 844 b 497 1006 310 973 394 1006 b 700 928 580 1006 647 980 b 779 732 753 876 779 811 "},"\u0000":{"ha":694,"x_min":0,"x_max":0,"o":""},"\r":{"ha":0,"x_min":0,"x_max":0,"o":""}," ":{"ha":347,"x_min":0,"x_max":0,"o":""},"!":{"ha":385,"x_min":0,"x_max":0,"o":"m 210 268 l 131 268 l 257 983 l 336 983 m 140 -8 b 97 8 123 -8 108 -3 b 79 51 85 18 79 33 b 99 99 79 70 86 86 b 143 118 112 112 126 118 b 186 101 161 118 175 113 b 203 57 197 90 203 75 b 185 11 203 39 197 24 b 140 -8 173 -2 158 -8 "},"\"":{"ha":557,"x_min":0,"x_max":0,"o":"m 181 660 l 239 983 l 306 983 l 249 660 m 382 660 l 439 983 l 507 983 l 450 660 "},"#":{"ha":769,"x_min":0,"x_max":0,"o":"m 607 613 l 532 374 l 671 374 l 660 308 l 513 308 l 417 0 l 349 0 l 444 308 l 244 308 l 149 0 l 81 0 l 176 308 l 32 308 l 42 374 l 196 374 l 272 613 l 121 613 l 132 678 l 292 678 l 388 983 l 454 983 l 360 678 l 560 678 l 656 983 l 724 983 l 628 678 l 761 678 l 750 613 m 339 613 l 264 374 l 464 374 l 539 613 "},"$":{"ha":797,"x_min":0,"x_max":0,"o":"m 440 531 b 611 433 513 503 569 470 b 674 279 653 395 674 344 b 590 75 674 201 646 133 b 343 -18 534 17 451 -14 l 326 -117 l 276 -117 l 294 -17 b 140 25 239 -13 187 1 b 32 121 92 49 56 81 l 99 165 b 181 87 117 135 145 109 b 306 49 218 65 259 52 l 381 474 b 215 565 310 499 255 529 b 154 715 174 601 154 651 b 242 917 154 797 184 864 b 474 1003 301 969 378 998 l 490 1100 l 539 1100 l 522 1001 b 761 886 630 996 709 957 l 696 839 b 622 905 681 865 656 887 b 510 933 588 923 550 932 m 356 49 b 527 113 425 50 482 72 b 594 269 572 154 594 206 b 551 382 594 316 580 353 b 426 457 522 411 480 436 m 461 935 b 301 875 400 931 347 911 b 232 724 255 839 232 788 b 272 617 232 678 245 643 b 393 547 298 592 338 569 l 461 935 "},"%":{"ha":1151,"x_min":0,"x_max":0,"o":"m 311 529 b 163 584 250 529 200 547 b 106 724 125 621 106 667 b 180 917 106 799 130 863 b 368 997 229 970 292 997 b 517 943 430 997 480 979 b 572 804 554 907 572 861 b 499 609 572 727 548 662 b 311 529 450 556 387 529 m 504 799 b 467 899 504 839 492 873 b 363 939 442 926 407 939 b 229 877 309 939 264 918 b 176 731 194 836 176 787 b 214 630 176 690 189 656 b 317 590 239 603 273 590 b 451 651 371 590 416 611 b 504 799 487 692 504 741 m 967 1025 l 1017 994 l 214 -42 l 163 -11 m 621 182 b 695 375 621 257 646 321 b 883 456 745 429 807 456 b 1032 401 945 456 995 438 b 1088 263 1069 365 1088 319 b 1014 67 1088 186 1063 121 b 826 -12 965 14 902 -13 b 678 42 765 -12 716 6 b 621 182 640 79 621 125 m 1019 257 b 982 358 1019 298 1007 331 b 878 397 957 384 922 397 b 744 335 824 397 779 377 b 690 188 708 294 690 245 b 728 88 690 147 703 113 b 831 49 753 62 787 49 b 966 110 885 49 930 69 b 1019 257 1002 150 1019 200 "},"&":{"ha":978,"x_min":0,"x_max":0,"o":"m 760 0 l 642 154 b 492 23 593 95 543 51 b 324 -19 442 -5 386 -19 b 126 43 243 -19 177 1 b 50 225 75 85 50 145 b 338 549 50 362 146 470 b 254 758 282 618 254 688 b 323 938 254 831 277 891 b 497 1008 369 985 427 1008 b 652 954 561 1008 613 990 b 711 810 691 918 711 870 b 443 526 711 695 622 600 l 644 269 l 825 526 l 918 526 l 689 217 l 860 0 m 633 803 b 597 905 633 844 621 878 b 497 944 572 931 539 944 b 377 894 450 944 410 928 b 328 764 344 861 328 818 b 407 576 328 704 354 641 b 576 676 481 608 537 641 b 633 803 614 712 633 754 m 374 496 b 133 228 213 431 133 342 b 189 96 133 172 152 128 b 328 47 226 63 272 47 b 597 206 423 47 513 100 "},"'":{"ha":356,"x_min":0,"x_max":0,"o":"m 181 660 l 239 983 l 306 983 l 249 660 "},"(":{"ha":417,"x_min":0,"x_max":0,"o":"m 421 983 b 205 636 334 887 262 771 b 119 222 148 501 119 363 b 213 -187 119 62 150 -75 l 154 -218 b 46 221 82 -98 46 49 b 133 648 46 365 75 508 b 368 1019 192 788 270 912 "},")":{"ha":417,"x_min":0,"x_max":0,"o":"m -3 -183 b 213 164 84 -87 156 29 b 299 578 270 299 299 437 b 206 988 299 738 268 875 l 265 1018 b 372 579 337 897 372 750 b 285 152 372 435 343 292 b 50 -219 226 12 148 -112 "},"*":{"ha":617,"x_min":0,"x_max":0,"o":"m 592 836 l 611 781 l 401 717 l 533 533 l 488 499 l 353 685 l 218 499 l 171 533 l 304 717 l 93 781 l 114 836 l 321 771 l 321 983 l 383 983 l 383 771 "},"+":{"ha":925,"x_min":0,"x_max":0,"o":"m 497 74 l 429 74 l 429 389 l 118 389 l 118 454 l 429 454 l 429 769 l 497 769 l 497 454 l 807 454 l 807 389 l 497 389 "},",":{"ha":353,"x_min":0,"x_max":0,"o":"m 32 -193 l -31 -193 l 117 131 l 196 131 "},"-":{"ha":436,"x_min":0,"x_max":0,"o":"m 57 310 l 68 374 l 361 374 l 350 310 "},".":{"ha":353,"x_min":0,"x_max":0,"o":"m 108 -8 b 65 8 91 -8 76 -3 b 49 51 54 18 49 33 b 67 99 49 70 55 86 b 113 118 80 112 95 118 b 156 101 130 118 144 113 b 172 57 167 90 172 75 b 153 11 172 39 166 24 b 108 -8 141 -2 126 -8 "},"/":{"ha":514,"x_min":0,"x_max":0,"o":"m 6 -24 l -56 -3 l 546 1010 l 604 988 "},":":{"ha":408,"x_min":0,"x_max":0,"o":"m 143 -8 b 99 8 125 -8 111 -3 b 82 51 88 18 82 33 b 101 99 82 70 88 86 b 146 118 114 112 129 118 b 189 101 163 118 178 113 b 206 57 200 90 206 75 b 188 11 206 39 200 24 b 143 -8 175 -2 161 -8 m 226 526 b 183 542 209 526 194 532 b 167 586 172 553 167 568 b 185 633 167 605 173 620 b 231 653 198 646 213 653 b 272 636 247 653 261 647 b 289 592 283 625 289 610 b 271 546 289 574 283 559 b 226 526 259 533 244 526 "},";":{"ha":408,"x_min":0,"x_max":0,"o":"m 53 -193 l -14 -193 l 133 131 l 215 131 m 226 526 b 183 542 209 526 194 532 b 167 586 172 553 167 568 b 185 633 167 605 173 620 b 231 653 198 646 213 653 b 272 636 247 653 261 647 b 289 592 283 625 289 610 b 271 546 289 574 283 559 b 226 526 259 533 244 526 "},"<":{"ha":925,"x_min":0,"x_max":0,"o":"m 118 393 l 118 449 l 807 774 l 807 706 l 201 421 l 807 136 l 807 68 "},"=":{"ha":925,"x_min":0,"x_max":0,"o":"m 118 497 l 118 563 l 807 563 l 807 497 m 118 279 l 118 346 l 807 346 l 807 279 "},">":{"ha":925,"x_min":0,"x_max":0,"o":"m 118 136 l 724 421 l 118 706 l 118 774 l 807 449 l 807 393 l 118 68 "},"?":{"ha":665,"x_min":0,"x_max":0,"o":"m 346 269 l 271 269 l 285 350 b 421 557 299 432 344 501 l 469 593 b 590 782 549 651 589 714 b 546 893 590 829 575 866 b 432 933 516 920 478 933 b 290 886 374 933 326 918 b 214 761 253 855 228 813 l 142 776 b 249 942 161 846 197 901 b 432 1003 302 982 363 1003 b 603 947 501 1003 558 984 b 669 785 647 910 669 856 b 626 647 669 731 655 685 b 504 532 598 608 557 570 b 399 438 454 496 419 464 b 356 328 378 411 364 374 m 288 -8 b 244 8 270 -8 255 -3 b 226 51 232 18 226 33 b 246 99 226 70 233 86 b 290 118 259 112 274 118 b 333 101 308 118 322 113 b 350 57 344 90 350 75 b 331 11 350 39 344 24 b 288 -8 319 -2 304 -8 "},"@":{"ha":1111,"x_min":0,"x_max":0,"o":"m 786 222 b 706 247 754 222 727 230 b 674 310 684 263 674 284 b 676 333 674 320 675 328 l 672 333 b 594 257 654 306 628 280 b 482 222 560 234 523 222 b 356 269 425 222 384 238 b 315 390 329 300 315 340 b 337 508 315 426 322 466 b 398 629 351 550 372 590 b 502 726 424 668 459 700 b 642 764 545 751 592 764 b 733 737 678 764 708 755 b 776 668 757 719 772 696 l 782 668 l 813 742 l 882 742 l 765 463 b 732 346 743 413 732 374 b 803 285 732 305 756 285 b 959 386 864 285 916 319 b 1024 618 1002 454 1024 531 b 923 854 1024 716 990 795 b 663 943 856 913 769 943 b 294 785 516 943 393 891 b 144 407 194 680 144 554 b 253 140 144 297 181 208 b 542 39 326 73 422 39 b 940 192 691 39 824 90 l 975 142 b 535 -26 850 30 703 -26 b 194 94 393 -26 279 14 b 65 404 108 175 65 278 b 238 833 65 572 123 715 b 667 1010 352 951 495 1010 b 974 906 791 1010 893 975 b 1094 629 1054 837 1094 745 b 1010 342 1094 518 1066 422 b 786 222 954 262 880 222 m 732 593 b 633 697 732 663 699 697 b 467 601 570 697 515 665 b 396 394 420 538 396 469 b 492 288 396 323 428 288 b 613 340 534 288 575 305 b 701 463 652 375 681 416 b 732 593 722 510 732 553 "},"A":{"ha":939,"x_min":0,"x_max":0,"o":"m 763 0 l 711 265 l 193 265 l 26 0 l -67 0 l 567 983 l 649 983 l 844 0 m 592 899 l 238 338 l 699 338 "},"B":{"ha":856,"x_min":0,"x_max":0,"o":"m 67 0 l 240 983 l 514 983 b 713 931 591 983 657 966 b 796 769 768 895 796 842 b 736 606 796 704 776 649 b 571 518 696 563 641 534 l 571 515 b 706 446 625 507 670 484 b 761 301 743 408 761 360 b 650 77 761 203 724 128 b 357 0 576 26 478 0 m 714 754 b 652 876 714 808 693 848 b 493 917 611 903 558 917 l 306 917 l 240 546 l 450 546 b 636 597 522 546 584 563 b 714 754 688 631 714 684 m 681 303 b 617 434 681 359 659 403 b 451 481 575 465 520 481 l 229 481 l 157 67 l 361 67 b 592 126 456 67 532 86 b 681 303 651 165 681 224 "},"C":{"ha":1001,"x_min":0,"x_max":0,"o":"m 907 136 b 535 -26 812 28 688 -26 b 213 91 400 -26 292 13 b 94 399 134 169 94 272 b 264 830 94 566 151 710 b 678 1010 377 950 515 1010 b 869 970 747 1010 811 997 b 999 861 927 944 970 907 l 932 813 b 832 904 911 850 877 880 b 675 940 787 928 734 940 b 320 779 534 940 416 887 b 176 407 224 672 176 548 b 271 146 176 301 208 214 b 538 43 334 77 423 43 b 856 183 665 43 771 90 "},"D":{"ha":1058,"x_min":0,"x_max":0,"o":"m 67 0 l 240 983 l 525 983 b 697 959 586 983 644 975 b 844 886 751 943 800 919 b 949 757 888 854 923 811 b 988 574 975 703 988 642 b 815 154 988 397 930 257 b 376 0 700 51 554 0 m 307 914 l 157 69 l 381 69 b 761 209 539 69 666 116 b 904 565 856 302 904 421 b 801 818 904 670 870 754 b 508 914 732 882 634 914 "},"E":{"ha":804,"x_min":0,"x_max":0,"o":"m 67 0 l 240 983 l 817 983 l 804 914 l 306 914 l 240 544 l 718 544 l 707 478 l 229 478 l 157 69 l 693 69 l 681 0 "},"F":{"ha":760,"x_min":0,"x_max":0,"o":"m 306 914 l 240 544 l 694 544 l 683 476 l 229 476 l 144 0 l 67 0 l 240 983 l 804 983 l 792 914 "},"G":{"ha":1069,"x_min":0,"x_max":0,"o":"m 533 -26 b 213 90 398 -26 291 13 b 94 399 134 168 94 271 b 264 830 94 566 151 710 b 678 1010 377 950 515 1010 b 873 970 750 1010 815 997 b 1003 861 931 944 974 907 l 940 813 b 834 904 916 850 881 880 b 675 940 787 928 734 940 b 320 779 534 940 416 887 b 176 407 224 672 176 548 b 270 146 176 301 208 214 b 538 43 333 77 422 43 b 825 111 652 43 748 66 l 882 439 l 643 439 l 656 506 l 971 506 l 894 67 b 533 -26 790 5 669 -26 "},"H":{"ha":989,"x_min":0,"x_max":0,"o":"m 704 0 l 788 475 l 228 475 l 144 0 l 67 0 l 240 983 l 318 983 l 240 546 l 800 546 l 878 983 l 956 983 l 782 0 "},"I":{"ha":350,"x_min":0,"x_max":0,"o":"m 67 0 l 240 983 l 318 983 l 144 0 "},"J":{"ha":668,"x_min":0,"x_max":0,"o":"m 519 279 b 491 169 512 238 503 201 b 442 74 479 138 463 106 b 357 1 422 42 393 18 b 229 -25 321 -16 278 -25 b 69 26 163 -25 110 -8 b -7 156 28 61 2 104 l 58 178 b 229 43 84 88 141 43 b 374 108 294 43 342 65 b 443 285 406 151 429 210 l 565 983 l 644 983 "},"K":{"ha":789,"x_min":0,"x_max":0,"o":"m 242 540 l 756 983 l 869 983 l 328 528 l 743 0 l 642 0 l 238 525 l 144 0 l 67 0 l 240 983 l 318 983 l 240 540 "},"L":{"ha":703,"x_min":0,"x_max":0,"o":"m 67 0 l 240 983 l 318 983 l 156 69 l 625 69 l 613 0 "},"M":{"ha":1236,"x_min":0,"x_max":0,"o":"m 951 0 l 1106 879 l 1103 879 l 569 0 l 525 0 l 301 879 l 299 879 l 143 0 l 67 0 l 240 983 l 360 983 l 569 132 l 1081 983 l 1203 983 l 1029 0 "},"N":{"ha":1042,"x_min":0,"x_max":0,"o":"m 736 0 l 304 882 l 300 882 l 146 0 l 67 0 l 240 983 l 340 983 l 774 110 l 776 110 l 931 983 l 1010 983 l 836 0 "},"O":{"ha":1174,"x_min":0,"x_max":0,"o":"m 1019 576 b 926 838 1019 682 988 769 b 661 940 863 906 775 940 b 313 780 520 940 404 887 b 176 407 222 673 176 549 b 271 146 176 301 208 214 b 536 43 334 77 422 43 b 788 119 629 43 713 68 b 960 316 863 169 920 235 b 1019 576 1000 397 1019 484 m 94 401 b 258 832 94 570 149 713 b 664 1010 366 950 502 1010 b 983 892 797 1010 904 970 b 1103 583 1063 813 1103 710 b 1031 279 1103 473 1079 372 b 827 57 982 187 915 112 b 533 -26 740 1 642 -26 b 214 92 400 -26 294 13 b 94 401 134 170 94 274 "},"P":{"ha":797,"x_min":0,"x_max":0,"o":"m 226 465 l 144 0 l 67 0 l 240 983 l 499 983 b 711 924 588 983 658 963 b 790 753 764 884 790 827 b 693 542 790 663 758 593 b 428 465 628 491 540 465 m 711 746 b 494 917 711 860 639 917 l 306 917 l 238 531 l 435 531 b 638 587 522 531 590 549 b 711 746 687 624 711 677 "},"Q":{"ha":1181,"x_min":0,"x_max":0,"o":"m 547 0 b 220 107 412 0 303 36 b 96 410 137 178 96 279 b 257 834 96 575 150 717 b 661 1010 364 951 499 1010 b 981 892 794 1010 900 970 b 1101 585 1061 813 1101 711 b 1011 269 1101 467 1071 362 b 775 72 951 176 872 110 l 775 69 l 1089 69 l 1076 0 l 547 0 m 551 68 b 882 217 680 68 790 118 b 1019 572 974 317 1019 435 b 924 836 1019 679 988 767 b 658 940 861 906 772 940 b 313 783 519 940 403 888 b 176 421 222 678 176 557 b 275 163 176 312 209 225 b 551 68 341 100 433 68 "},"R":{"ha":831,"x_min":0,"x_max":0,"o":"m 629 0 l 418 471 l 228 471 l 144 0 l 67 0 l 240 983 l 494 983 b 708 927 581 983 653 965 b 792 757 764 890 792 833 b 709 555 792 666 764 599 b 499 476 654 511 584 485 l 718 0 m 713 747 b 650 874 713 804 692 846 b 481 917 608 903 552 917 l 306 917 l 239 538 l 428 538 b 713 747 618 538 713 607 "},"S":{"ha":786,"x_min":0,"x_max":0,"o":"m 704 846 b 492 940 654 909 583 940 b 313 885 425 940 365 922 b 233 728 260 849 233 796 b 258 644 233 696 241 669 b 321 586 274 620 295 601 b 407 544 347 571 375 557 b 501 503 438 531 470 518 b 588 455 533 489 562 473 b 651 383 613 437 634 413 b 675 281 667 354 675 319 b 654 170 675 243 668 206 b 593 72 640 134 620 102 b 483 1 566 43 530 19 b 325 -26 437 -17 384 -26 b 153 11 263 -26 206 -14 b 32 115 100 36 60 71 l 92 160 b 331 43 148 82 228 43 b 517 105 405 43 467 64 b 592 268 567 146 592 200 b 546 381 592 313 576 351 b 435 450 515 410 478 433 b 306 503 392 467 349 484 b 196 584 263 521 226 548 b 150 718 165 620 150 664 b 247 928 150 804 182 874 b 496 1010 311 983 394 1010 b 661 978 560 1010 615 999 b 764 893 707 956 742 928 "},"T":{"ha":746,"x_min":0,"x_max":0,"o":"m 500 914 l 338 0 l 260 0 l 421 914 l 89 914 l 101 983 l 842 983 l 829 914 "},"U":{"ha":989,"x_min":0,"x_max":0,"o":"m 857 368 b 817 228 848 317 834 271 b 746 104 800 186 776 145 b 622 8 715 63 674 31 b 442 -26 570 -15 510 -26 b 202 53 338 -26 258 0 b 118 281 146 107 118 182 b 128 386 118 316 121 351 l 232 983 l 310 983 l 204 379 b 194 283 198 340 194 308 b 257 106 194 206 215 147 b 446 43 299 64 362 43 b 591 71 501 43 550 52 b 690 149 632 89 665 116 b 747 254 714 183 733 218 b 781 378 761 290 772 331 l 888 983 l 965 983 "},"V":{"ha":828,"x_min":0,"x_max":0,"o":"m 363 0 l 276 0 l 117 983 l 200 983 l 338 99 l 340 99 l 860 983 l 947 983 "},"W":{"ha":1326,"x_min":0,"x_max":0,"o":"m 936 0 l 840 0 l 761 878 l 758 878 l 322 0 l 226 0 l 131 983 l 214 983 l 293 106 l 296 106 l 728 983 l 826 983 l 907 106 l 910 106 l 1340 983 l 1424 983 "},"X":{"ha":839,"x_min":0,"x_max":0,"o":"m 481 507 l 735 0 l 640 0 l 424 449 l 36 0 l -71 0 l 385 517 l 153 983 l 246 983 l 442 574 l 797 983 l 900 983 "},"Y":{"ha":756,"x_min":0,"x_max":0,"o":"m 407 425 l 332 0 l 253 0 l 329 425 l 86 983 l 178 983 l 378 492 l 781 983 l 878 983 "},"Z":{"ha":804,"x_min":0,"x_max":0,"o":"m -18 0 l -6 69 l 740 914 l 165 914 l 178 983 l 851 983 l 839 913 l 93 69 l 699 69 l 686 0 "},"[":{"ha":417,"x_min":0,"x_max":0,"o":"m -18 -217 l 200 1017 l 415 1017 l 406 956 l 263 956 l 67 -156 l 208 -156 l 197 -217 "},"\\":{"ha":514,"x_min":0,"x_max":0,"o":"m 78 1010 l 500 -3 l 436 -24 l 14 988 "},"]":{"ha":417,"x_min":0,"x_max":0,"o":"m 14 -156 l 157 -156 l 354 956 l 211 956 l 221 1017 l 438 1017 l 219 -217 l 3 -217 "},"^":{"ha":925,"x_min":0,"x_max":0,"o":"m 435 983 l 490 983 l 807 368 l 738 368 l 463 908 l 188 368 l 118 368 "},"_":{"ha":694,"x_min":0,"x_max":0,"o":"m 0 -169 l 0 -112 l 694 -112 l 694 -169 "},"`":{"ha":333,"x_min":0,"x_max":0,"o":"m 157 983 l 299 783 l 235 783 l 60 983 "},"a":{"ha":732,"x_min":0,"x_max":0,"o":"m 567 146 b 551 0 556 85 551 36 l 485 0 b 496 119 485 38 488 78 l 493 119 b 242 -14 429 31 345 -14 b 101 26 188 -14 141 0 b 42 153 62 53 42 95 b 83 276 42 202 55 243 b 199 349 110 309 149 333 b 356 383 250 366 302 377 b 540 392 409 389 471 392 b 549 461 546 419 549 442 b 388 601 549 555 495 601 b 186 525 316 601 249 576 l 151 575 b 265 640 183 602 221 623 b 396 664 310 656 353 664 b 558 615 463 664 516 648 b 619 475 599 583 619 536 b 614 406 619 453 618 430 l 567 146 m 531 333 l 503 333 b 118 161 246 333 118 276 b 161 72 118 119 132 90 b 265 46 190 55 225 46 b 435 114 333 46 390 69 b 521 278 481 159 510 214 "},"b":{"ha":871,"x_min":0,"x_max":0,"o":"m 233 524 b 339 624 256 563 292 597 b 492 664 386 650 437 664 b 701 586 581 664 650 638 b 776 382 751 534 776 466 b 672 99 776 271 742 176 b 406 -18 603 21 514 -18 b 258 22 352 -18 303 -5 b 164 131 213 49 181 85 l 161 131 l 138 0 l 64 0 l 250 1050 l 324 1050 l 229 524 m 481 601 b 268 503 397 601 326 569 b 181 269 210 437 181 359 b 242 109 181 205 201 151 b 403 46 282 67 336 46 b 618 142 491 46 563 78 b 701 378 674 207 701 285 b 643 538 701 443 682 496 b 481 601 604 580 550 601 "},"c":{"ha":681,"x_min":0,"x_max":0,"o":"m 363 44 b 560 129 438 44 503 73 l 604 83 b 353 -19 531 15 447 -19 b 141 58 263 -19 192 6 b 64 261 90 110 64 178 b 172 547 64 373 100 468 b 447 664 243 625 335 664 b 668 560 553 664 626 629 l 611 521 b 446 601 574 575 519 601 b 228 503 359 601 286 569 b 140 268 169 437 140 359 b 199 107 140 202 160 149 b 363 44 239 65 293 44 "},"d":{"ha":863,"x_min":0,"x_max":0,"o":"m 346 -18 b 135 60 257 -18 187 8 b 58 269 84 113 58 182 b 163 549 58 380 93 473 b 429 664 232 626 321 664 b 578 624 485 664 534 651 b 671 517 621 598 652 562 l 675 517 l 768 1050 l 843 1050 l 657 0 l 582 0 l 606 124 l 603 124 b 498 22 580 83 545 49 b 346 -18 451 -5 400 -18 m 356 46 b 567 145 439 46 509 79 b 654 379 625 211 654 289 b 594 539 654 444 634 497 b 433 601 553 581 500 601 b 217 506 344 601 272 570 b 135 269 162 443 135 364 b 193 109 135 205 154 151 b 356 46 232 67 286 46 "},"e":{"ha":781,"x_min":0,"x_max":0,"o":"m 136 308 b 133 267 134 299 133 285 b 196 108 133 202 154 149 b 358 46 238 66 292 46 b 586 156 450 46 526 82 l 635 117 b 513 18 603 75 563 42 b 353 -18 464 -6 410 -18 b 140 60 265 -18 194 8 b 58 269 85 112 58 181 b 165 547 58 377 94 469 b 429 664 237 625 325 664 b 626 594 514 664 580 641 b 696 411 673 547 696 486 b 683 308 696 372 692 338 m 618 364 b 621 415 620 386 621 403 b 570 551 621 472 604 517 b 428 601 536 584 489 601 b 242 531 355 601 293 578 b 146 364 192 483 160 428 l 618 364 "},"f":{"ha":404,"x_min":0,"x_max":0,"o":"m 517 996 b 454 1001 496 1000 475 1001 b 308 832 375 1001 327 945 l 276 647 l 438 647 l 425 585 l 267 585 l 164 0 l 89 0 l 192 585 l 56 585 l 67 647 l 201 647 l 235 839 b 310 1006 247 909 272 965 b 461 1067 349 1046 399 1067 b 533 1057 489 1067 513 1063 "},"g":{"ha":867,"x_min":0,"x_max":0,"o":"m 617 139 b 506 33 589 94 552 59 b 357 -6 460 7 411 -6 b 147 74 268 -6 198 21 b 69 279 95 128 69 196 b 176 551 69 386 105 476 b 443 664 247 626 336 664 b 589 624 497 664 545 650 b 679 515 632 597 663 561 l 683 515 l 707 647 l 779 647 l 668 14 b 645 -85 662 -23 654 -56 b 604 -178 636 -115 623 -146 b 539 -260 586 -211 564 -239 b 440 -315 514 -282 481 -300 b 299 -337 398 -330 351 -337 b 131 -303 238 -337 181 -326 b 8 -210 80 -281 39 -250 l 53 -161 b 303 -272 117 -235 200 -272 b 503 -194 392 -272 459 -246 b 596 15 548 -143 579 -73 l 619 139 m 368 57 b 579 153 452 57 523 89 b 664 379 636 217 664 292 b 603 538 664 442 644 495 b 442 601 562 580 508 601 b 227 510 354 601 282 571 b 144 278 172 449 144 371 b 203 120 144 215 164 162 b 368 57 243 78 298 57 "},"h":{"ha":797,"x_min":0,"x_max":0,"o":"m 231 521 b 329 625 255 564 288 599 b 464 664 371 651 416 664 b 619 606 531 664 583 645 b 674 443 656 568 674 513 b 665 358 674 417 671 389 l 601 0 l 528 0 l 593 365 b 600 433 598 391 600 414 b 562 556 600 485 587 526 b 449 601 536 586 499 601 b 287 531 388 601 334 578 b 193 329 240 483 209 416 l 135 0 l 61 0 l 246 1050 l 319 1050 l 228 521 "},"i":{"ha":338,"x_min":0,"x_max":0,"o":"m 61 0 l 176 647 l 250 647 l 136 0 m 250 849 b 213 863 235 849 223 853 b 197 901 202 873 197 886 b 214 944 197 918 203 932 b 254 961 225 955 238 961 b 292 947 269 961 281 956 b 307 907 302 937 307 924 b 290 866 307 891 301 878 b 250 849 279 854 266 849 "},"j":{"ha":339,"x_min":0,"x_max":0,"o":"m 114 -131 b 51 -284 102 -200 81 -251 b -82 -333 22 -317 -23 -333 b -149 -325 -109 -333 -131 -331 l -136 -264 b -83 -269 -121 -268 -104 -269 b 3 -232 -43 -269 -14 -257 b 42 -121 19 -207 32 -170 l 178 647 l 251 647 m 250 849 b 213 863 235 849 223 853 b 197 901 202 873 197 886 b 214 944 197 918 203 932 b 254 961 225 955 238 961 b 292 947 269 961 281 956 b 307 907 302 937 307 924 b 290 866 307 891 301 878 b 250 849 279 854 266 849 "},"k":{"ha":656,"x_min":0,"x_max":0,"o":"m 201 354 l 547 647 l 653 647 l 286 346 l 589 0 l 492 0 l 201 340 l 197 340 l 138 0 l 63 0 l 247 1050 l 322 1050 l 199 354 "},"l":{"ha":339,"x_min":0,"x_max":0,"o":"m 63 0 l 247 1050 l 322 1050 l 138 0 "},"m":{"ha":1219,"x_min":0,"x_max":0,"o":"m 149 499 b 169 647 161 574 168 623 l 240 647 b 224 518 238 615 232 572 l 226 518 b 458 664 282 615 359 664 b 581 625 506 664 546 651 b 646 510 615 599 637 561 b 747 624 671 560 705 598 b 888 664 790 651 837 664 b 1043 609 955 664 1007 646 b 1097 450 1079 572 1097 519 b 1089 361 1097 422 1094 393 l 1025 0 l 950 0 l 1015 365 b 1022 438 1020 395 1022 419 b 869 601 1022 547 971 601 b 717 528 806 601 755 577 b 638 338 679 480 652 416 l 576 0 l 503 0 l 571 379 b 578 450 575 407 578 431 b 436 601 578 551 531 601 b 284 530 381 601 330 578 b 193 329 238 482 208 415 l 135 0 l 61 0 "},"n":{"ha":797,"x_min":0,"x_max":0,"o":"m 226 518 b 327 624 250 562 284 597 b 464 664 370 650 416 664 b 619 606 531 664 583 645 b 674 443 656 568 674 513 b 665 358 674 417 671 389 l 601 0 l 528 0 l 593 365 b 600 433 598 391 600 414 b 562 556 600 485 587 526 b 449 601 536 586 499 601 b 287 531 388 601 334 578 b 193 329 240 483 209 416 l 135 0 l 61 0 l 149 499 b 169 647 161 574 168 623 l 242 647 b 224 518 234 586 228 543 "},"o":{"ha":829,"x_min":0,"x_max":0,"o":"m 660 378 b 599 538 660 443 640 496 b 433 601 559 580 504 601 b 221 503 348 601 277 569 b 136 269 164 438 136 360 b 195 109 136 205 156 151 b 360 46 234 67 289 46 b 575 144 447 46 519 78 b 660 378 631 209 660 287 m 58 265 b 165 547 58 375 94 469 b 439 664 237 625 328 664 b 654 585 529 664 600 638 b 735 382 708 533 735 465 b 628 99 735 271 699 176 b 356 -18 558 21 467 -18 b 140 61 266 -18 194 8 b 58 265 85 114 58 182 "},"p":{"ha":871,"x_min":0,"x_max":0,"o":"m 79 -333 l 4 -333 l 178 647 l 253 647 l 229 524 l 233 524 b 338 624 256 563 291 597 b 489 664 384 650 434 664 b 700 586 579 664 649 638 b 776 382 751 534 776 466 b 672 99 776 271 741 176 b 404 -18 602 21 513 -18 b 258 22 350 -18 302 -5 b 164 131 214 49 182 85 l 161 131 m 481 601 b 268 503 397 601 326 569 b 181 269 210 437 181 359 b 242 109 181 205 201 151 b 403 46 282 67 336 46 b 618 142 491 46 563 78 b 701 378 674 207 701 285 b 643 538 701 443 682 496 b 481 601 604 580 550 601 "},"q":{"ha":860,"x_min":0,"x_max":0,"o":"m 697 647 l 772 647 l 599 -333 l 525 -333 l 606 124 l 603 124 b 499 22 580 83 545 49 b 349 -18 453 -5 403 -18 b 137 60 260 -18 189 8 b 58 264 84 112 58 180 b 164 547 58 375 94 469 b 431 664 234 625 323 664 b 577 624 484 664 533 651 b 671 517 621 598 652 562 l 675 517 m 356 46 b 567 145 439 46 509 79 b 654 379 625 211 654 289 b 594 539 654 444 634 497 b 433 601 553 581 500 601 b 218 505 345 601 274 569 b 135 269 163 441 135 362 b 193 109 135 205 154 151 b 356 46 232 67 286 46 "},"r":{"ha":467,"x_min":0,"x_max":0,"o":"m 226 518 b 323 626 251 564 284 600 b 451 664 362 651 405 664 b 501 658 471 664 488 662 l 485 589 b 433 594 472 593 455 594 b 280 524 374 594 323 571 b 193 332 237 478 208 413 l 135 0 l 61 0 l 149 499 b 169 647 161 574 168 623 l 240 647 b 224 518 238 615 232 572 l 226 518 "},"s":{"ha":599,"x_min":0,"x_max":0,"o":"m 64 136 b 251 47 110 77 173 47 b 370 81 299 47 338 58 b 418 174 402 103 418 134 b 384 252 418 207 407 233 b 274 306 361 271 325 289 b 144 370 216 324 173 346 b 100 475 115 395 100 430 b 172 615 100 536 124 583 b 339 664 219 648 275 664 b 467 637 386 664 429 655 b 549 567 505 619 532 595 l 493 526 b 333 601 458 576 405 601 b 219 569 289 601 251 591 b 172 481 188 548 172 519 b 202 410 172 448 182 425 b 304 365 222 395 256 380 b 448 293 370 345 418 321 b 493 182 478 265 493 228 b 421 35 493 119 469 70 b 249 -17 373 1 315 -17 b 8 90 145 -17 65 19 "},"t":{"ha":421,"x_min":0,"x_max":0,"o":"m 224 -11 b 128 18 186 -11 154 -1 b 90 111 103 38 90 69 b 94 161 90 129 92 145 l 169 585 l 32 585 l 43 647 l 179 647 l 213 832 l 286 832 l 254 647 l 432 647 l 419 585 l 244 585 l 172 178 b 167 131 169 157 167 142 b 253 53 167 79 195 53 b 329 71 284 53 310 59 l 321 7 b 224 -11 295 -5 263 -11 "},"u":{"ha":797,"x_min":0,"x_max":0,"o":"m 300 -18 b 141 36 231 -18 178 0 b 86 194 104 72 86 125 b 94 281 86 220 89 249 l 160 647 l 233 647 l 168 281 b 161 207 163 251 161 226 b 314 46 161 100 212 46 b 474 117 373 46 426 69 b 568 318 521 164 552 231 l 626 647 l 700 647 l 613 149 b 592 0 601 90 594 41 l 519 0 b 538 128 526 56 532 99 l 535 128 b 433 21 509 82 475 47 b 300 -18 391 -5 346 -18 "},"v":{"ha":643,"x_min":0,"x_max":0,"o":"m 272 0 l 190 0 l 60 647 l 138 647 l 244 79 l 247 79 l 581 647 l 660 647 "},"w":{"ha":1001,"x_min":0,"x_max":0,"o":"m 681 0 l 597 0 l 522 550 l 519 550 l 229 0 l 147 0 l 82 647 l 160 647 l 206 94 l 208 94 l 500 647 l 575 647 l 653 94 l 657 94 l 929 647 l 1010 647 "},"x":{"ha":643,"x_min":0,"x_max":0,"o":"m 344 332 l 532 0 l 444 0 l 293 286 l 29 0 l -64 0 l 261 342 l 100 647 l 181 647 l 313 386 l 553 647 l 644 647 "},"y":{"ha":649,"x_min":0,"x_max":0,"o":"m -19 -335 b -92 -325 -42 -335 -66 -331 l -81 -260 b -22 -268 -64 -265 -44 -268 b 58 -238 8 -268 35 -258 b 124 -150 80 -218 102 -189 l 207 -4 l 71 647 l 150 647 l 260 76 l 263 76 l 585 647 l 667 647 l 182 -181 b 90 -297 151 -232 121 -271 b -19 -335 60 -322 23 -335 "},"z":{"ha":608,"x_min":0,"x_max":0,"o":"m -21 0 l -11 56 l 479 583 l 103 583 l 114 647 l 590 647 l 579 590 l 89 65 l 501 65 l 490 0 "},"{":{"ha":417,"x_min":0,"x_max":0,"o":"m 150 -217 b 28 -97 69 -217 28 -177 b 28 -88 28 -95 28 -92 b 29 -79 29 -84 29 -81 b 55 84 29 -75 38 -21 b 81 246 72 189 81 243 l 81 264 b -6 367 81 332 52 367 l 7 433 b 144 589 78 433 124 485 l 189 843 b 253 976 199 904 220 948 b 368 1017 285 1003 324 1017 l 449 1017 l 439 956 l 372 956 b 260 832 311 956 274 914 l 215 576 b 155 449 205 520 185 478 b 69 401 125 421 96 405 l 69 399 b 128 362 91 395 110 383 b 156 268 147 341 156 310 l 156 254 b 131 97 156 251 147 199 b 106 -62 114 -6 106 -59 b 104 -82 105 -67 104 -74 b 176 -156 104 -131 128 -156 l 242 -156 l 231 -217 l 150 -217 "},"|":{"ha":308,"x_min":0,"x_max":0,"o":"m 188 1042 l 188 -347 l 119 -347 l 119 1042 "},"}":{"ha":417,"x_min":0,"x_max":0,"o":"m 411 367 b 276 211 339 367 294 315 l 232 -43 b 50 -217 211 -159 150 -217 l -31 -217 l -19 -156 l 47 -156 b 160 -32 108 -156 146 -114 l 204 224 b 264 351 214 280 234 322 b 350 399 294 379 322 395 l 350 401 b 291 438 329 405 309 417 b 264 531 273 459 264 490 l 264 544 b 290 703 264 547 272 600 b 315 863 307 807 315 860 l 315 878 b 244 956 315 930 292 956 l 178 956 l 188 1017 l 268 1017 b 392 896 350 1017 392 976 l 392 879 b 365 715 392 875 383 821 b 339 551 348 610 339 555 b 338 529 338 546 338 538 b 424 433 338 465 366 433 l 411 367 "},"~":{"ha":925,"x_min":0,"x_max":0,"o":"m 125 381 b 313 510 182 467 245 510 b 461 461 363 510 413 494 b 611 400 522 420 572 400 b 753 507 663 400 710 436 l 800 461 b 614 333 746 376 684 333 b 464 382 562 333 512 350 b 381 429 429 405 401 421 b 315 442 360 438 338 442 b 174 336 259 442 212 406 l 125 381 "}," ":{"ha":347,"x_min":0,"x_max":0,"o":""},"¡":{"ha":385,"x_min":0,"x_max":0,"o":"m 149 401 l 228 401 l 101 -314 l 22 -314 m 218 678 b 262 661 236 678 250 672 b 279 617 273 650 279 635 b 260 571 279 599 273 584 b 215 551 247 558 232 551 b 172 568 198 551 183 557 b 156 613 161 579 156 594 b 174 658 156 630 162 645 b 218 678 187 671 201 678 "},"¢":{"ha":797,"x_min":0,"x_max":0,"o":"m 478 750 l 533 750 l 518 663 b 714 563 612 656 677 623 l 650 518 b 593 574 638 540 619 559 b 508 601 567 590 539 599 l 410 44 b 604 129 488 45 552 74 l 650 86 b 399 -19 580 16 496 -19 l 383 -100 l 328 -100 l 343 -15 b 168 74 268 -5 210 25 b 106 261 126 124 106 186 b 206 537 106 368 139 459 b 463 664 272 614 358 656 m 453 600 b 260 492 375 593 311 556 b 183 268 209 427 183 352 b 228 122 183 211 198 162 b 356 50 257 82 300 58 l 453 600 "},"£":{"ha":797,"x_min":0,"x_max":0,"o":"m 574 542 l 561 478 l 328 478 l 256 65 l 618 65 l 606 0 l 21 0 l 33 65 l 178 65 l 249 478 l 115 478 l 128 542 l 258 542 l 285 689 b 590 1008 324 902 425 1008 b 779 938 671 1008 734 985 l 731 882 b 589 942 697 922 650 942 b 504 924 557 942 529 936 b 444 882 479 913 459 899 b 403 819 428 865 415 844 b 376 751 391 794 382 772 b 361 682 371 731 366 708 l 338 542 "},"€":{"ha":797,"x_min":0,"x_max":0,"o":"m 781 897 b 617 939 738 925 683 939 b 399 855 534 939 462 911 b 254 642 336 799 288 728 l 678 642 l 646 579 l 232 579 b 199 403 212 524 200 465 l 564 403 l 533 340 l 197 340 b 273 126 197 251 222 180 b 476 44 323 72 391 44 b 667 101 542 44 606 63 l 693 39 b 463 -26 624 -5 547 -26 b 204 81 351 -26 265 9 b 113 340 143 152 113 238 l 10 340 l 42 403 l 115 403 b 147 579 115 452 126 511 l 50 579 l 83 642 l 168 642 b 351 908 208 751 269 840 b 624 1010 433 976 524 1010 b 815 965 701 1010 765 995 l 781 897 "},"¥":{"ha":797,"x_min":0,"x_max":0,"o":"m 135 468 l 144 526 l 371 526 l 146 983 l 232 983 l 429 554 l 775 983 l 871 983 l 485 526 l 699 526 l 690 468 l 449 468 l 419 310 l 661 310 l 651 251 l 410 251 l 365 0 l 292 0 l 338 251 l 97 251 l 107 310 l 346 310 l 375 468 "},"Š":{"ha":786,"x_min":0,"x_max":0,"o":"m 704 846 b 492 940 654 909 583 940 b 313 885 425 940 365 922 b 233 728 260 849 233 796 b 258 644 233 696 241 669 b 321 586 274 620 295 601 b 407 544 347 571 375 557 b 501 503 438 531 470 518 b 588 455 533 489 562 473 b 651 383 613 437 634 413 b 675 281 667 354 675 319 b 654 170 675 243 668 206 b 593 72 640 134 620 102 b 483 1 566 43 530 19 b 325 -26 437 -17 384 -26 b 153 11 263 -26 206 -14 b 32 115 100 36 60 71 l 92 160 b 331 43 148 82 228 43 b 517 105 405 43 467 64 b 592 268 567 146 592 200 b 546 381 592 313 576 351 b 435 450 515 410 478 433 b 306 503 392 467 349 484 b 196 584 263 521 226 548 b 150 718 165 620 150 664 b 247 928 150 804 182 874 b 496 1010 311 983 394 1010 b 661 978 560 1010 615 999 b 764 893 707 956 742 928 m 454 1061 l 343 1261 l 413 1261 l 503 1101 l 653 1261 l 729 1261 l 544 1061 "},"§":{"ha":797,"x_min":0,"x_max":0,"o":"m 471 196 b 550 50 523 160 549 111 b 472 -126 550 -24 524 -83 b 272 -190 420 -169 354 -190 b 128 -155 219 -190 171 -178 b 28 -62 84 -131 51 -100 l 93 -15 b 169 -94 111 -50 136 -76 b 274 -122 203 -113 238 -122 b 415 -81 331 -122 378 -108 b 471 40 452 -53 471 -12 b 438 131 471 77 460 107 b 326 194 416 154 379 175 b 167 284 250 223 197 253 b 121 406 136 315 121 356 b 171 539 121 458 138 503 b 307 615 204 575 250 600 b 219 761 249 648 219 696 b 293 933 219 830 244 887 b 490 1003 342 980 408 1003 b 711 904 596 1003 669 970 l 649 858 b 489 936 615 910 562 936 b 350 889 431 936 384 920 b 299 771 316 857 299 818 b 331 683 299 733 309 703 b 442 619 353 662 390 641 b 602 526 518 588 571 557 b 649 406 633 495 649 455 b 600 272 649 352 632 307 b 471 196 568 237 525 212 m 410 239 b 520 289 450 244 487 261 b 569 393 553 317 569 351 b 537 483 569 430 559 460 b 446 542 515 505 485 525 l 371 574 b 254 526 329 570 290 554 b 200 417 218 499 200 462 b 233 328 200 379 211 349 b 333 269 254 306 288 287 l 410 239 "},"š":{"ha":599,"x_min":0,"x_max":0,"o":"m 64 136 b 251 47 110 77 173 47 b 370 81 299 47 338 58 b 418 174 402 103 418 134 b 384 252 418 207 407 233 b 274 306 361 271 325 289 b 144 370 216 324 173 346 b 100 475 115 395 100 430 b 172 615 100 536 124 583 b 339 664 219 648 275 664 b 467 637 386 664 429 655 b 549 567 505 619 532 595 l 493 526 b 333 601 458 576 405 601 b 219 569 289 601 251 591 b 172 481 188 548 172 519 b 202 410 172 448 182 425 b 304 365 222 395 256 380 b 448 293 370 345 418 321 b 493 182 478 265 493 228 b 421 35 493 119 469 70 b 249 -17 373 1 315 -17 b 8 90 145 -17 65 19 m 319 783 l 208 983 l 278 983 l 368 824 l 518 983 l 594 983 l 410 783 "},"©":{"ha":1111,"x_min":0,"x_max":0,"o":"m 28 490 b 183 861 28 636 79 759 b 557 1014 286 963 411 1014 b 929 861 702 1014 826 963 b 1083 490 1032 759 1083 636 b 929 122 1083 346 1032 223 b 557 -31 826 20 702 -31 b 183 122 411 -31 286 20 b 28 490 79 223 28 346 m 96 490 b 231 167 96 364 141 257 b 557 33 322 78 430 33 b 881 167 684 33 792 78 b 1015 490 971 257 1015 364 b 881 815 1015 617 971 725 b 557 950 792 905 684 950 b 231 815 430 950 322 905 b 96 490 141 725 96 617 m 729 663 b 662 719 713 685 690 703 b 574 742 634 734 604 742 b 404 669 504 742 448 718 b 339 496 361 621 339 563 b 403 321 339 427 360 369 b 572 249 445 273 502 249 b 739 332 641 249 696 276 l 796 293 b 701 213 772 260 740 233 b 572 182 663 192 619 182 b 351 271 483 182 409 212 b 263 496 292 330 263 405 b 351 719 263 586 292 660 b 572 808 409 779 483 808 b 694 781 615 808 656 799 b 788 707 733 763 764 738 "},"ª":{"ha":486,"x_min":0,"x_max":0,"o":"m 449 688 b 440 600 443 647 440 618 l 392 600 b 399 672 392 622 394 646 l 397 672 b 249 589 362 617 313 589 b 160 615 216 589 187 598 b 119 696 133 633 119 660 b 144 772 119 726 128 752 b 216 816 161 791 185 806 b 310 835 247 826 278 832 b 419 840 341 839 378 840 b 424 876 422 851 424 863 b 332 951 424 926 393 951 b 213 906 289 951 250 936 l 188 946 b 340 1001 231 983 282 1001 b 442 972 381 1001 415 992 b 482 886 469 953 482 924 b 478 844 482 881 481 867 l 449 688 m 413 796 l 396 796 b 182 701 253 796 182 764 b 265 638 182 659 210 638 b 360 674 303 638 335 650 b 407 765 385 699 400 729 "},"«":{"ha":683,"x_min":0,"x_max":0,"o":"m 317 618 l 363 578 l 158 328 l 275 83 l 219 47 l 79 333 m 563 618 l 608 578 l 404 328 l 521 83 l 464 47 l 325 333 "},"¬":{"ha":925,"x_min":0,"x_max":0,"o":"m 743 182 l 743 497 l 115 497 l 115 563 l 811 563 l 811 182 "},"­":{"ha":436,"x_min":0,"x_max":0,"o":"m 57 310 l 68 374 l 361 374 l 350 310 "},"®":{"ha":833,"x_min":0,"x_max":0,"o":"m 551 510 l 463 660 l 407 660 l 407 510 l 354 510 l 354 864 l 476 864 b 567 839 513 864 544 856 b 603 761 591 822 603 796 b 579 698 603 735 595 714 b 518 667 563 682 543 671 l 617 510 m 550 763 b 475 818 550 800 525 818 l 407 818 l 407 703 l 464 703 b 550 763 521 703 550 723 m 156 685 b 248 908 156 772 186 846 b 472 1000 309 969 384 1000 b 697 908 560 1000 635 969 b 789 685 758 846 789 772 b 697 463 789 598 758 524 b 472 372 635 403 560 372 b 248 463 384 372 309 403 b 156 685 186 524 156 598 m 200 685 b 280 493 200 611 227 547 b 472 413 333 439 397 413 b 665 493 547 413 611 439 b 744 685 718 547 744 611 b 665 877 744 760 718 824 b 472 957 611 930 547 957 b 280 877 397 957 333 930 b 200 685 227 824 200 760 "},"¯":{"ha":333,"x_min":0,"x_max":0,"o":"m 67 842 l 76 903 l 436 903 l 425 842 "},"°":{"ha":556,"x_min":0,"x_max":0,"o":"m 556 793 b 497 647 556 735 536 686 b 351 588 458 607 410 588 b 204 647 292 588 243 607 b 146 793 165 686 146 735 b 204 940 146 851 165 900 b 351 999 243 979 292 999 b 497 940 410 999 458 979 b 556 793 536 900 556 851 m 501 793 b 458 899 501 835 487 870 b 351 943 428 928 393 943 b 245 899 310 943 274 928 b 201 793 216 870 201 835 b 245 687 201 751 216 716 b 351 643 274 658 310 643 b 458 687 393 643 428 658 b 501 793 487 716 501 751 "},"±":{"ha":925,"x_min":0,"x_max":0,"o":"m 496 481 l 496 253 l 428 253 l 428 481 l 115 481 l 115 547 l 428 547 l 428 781 l 494 781 l 494 547 l 811 547 l 811 481 m 117 67 l 117 133 l 808 133 l 808 67 "},"²":{"ha":506,"x_min":0,"x_max":0,"o":"m 461 689 l 449 628 l 71 628 l 82 694 l 339 917 b 444 1074 409 978 444 1030 b 417 1142 444 1103 435 1126 b 342 1165 398 1157 373 1165 b 215 1067 283 1165 241 1132 l 154 1083 b 231 1187 171 1128 196 1162 b 346 1224 265 1211 303 1224 b 467 1184 399 1224 439 1210 b 508 1078 494 1158 508 1122 b 478 979 508 1040 498 1007 b 368 869 457 951 421 915 l 158 689 "},"³":{"ha":506,"x_min":0,"x_max":0,"o":"m 261 617 b 145 649 216 617 177 627 b 78 736 113 670 91 699 l 143 756 b 261 676 162 703 201 676 b 358 709 302 676 334 687 b 394 796 382 731 394 760 b 356 879 394 834 382 862 b 258 906 331 897 298 906 l 233 906 l 243 961 l 271 961 b 383 992 319 961 356 972 b 422 1078 409 1013 422 1042 b 396 1143 422 1106 413 1127 b 328 1167 378 1159 356 1167 b 215 1100 281 1167 243 1144 l 164 1133 b 336 1225 205 1194 262 1225 b 447 1187 381 1225 418 1212 b 489 1082 475 1161 489 1126 b 451 982 489 1040 476 1007 b 360 933 426 957 396 941 l 358 932 b 433 887 389 925 414 910 b 461 801 452 863 461 835 b 405 666 461 744 442 699 b 261 617 367 633 319 617 "},"Ž":{"ha":804,"x_min":0,"x_max":0,"o":"m -18 0 l -6 69 l 740 914 l 165 914 l 178 983 l 851 983 l 839 913 l 93 69 l 699 69 l 686 0 m 467 1061 l 356 1261 l 425 1261 l 515 1101 l 665 1261 l 742 1261 l 557 1061 "},"µ":{"ha":772,"x_min":0,"x_max":0,"o":"m 182 647 l 182 281 b 224 107 182 204 196 146 b 367 49 251 68 299 49 b 520 121 429 49 480 73 b 581 318 560 169 581 235 l 581 647 l 654 647 l 654 149 b 660 0 654 109 656 59 l 581 0 l 581 124 l 578 124 b 483 22 557 83 526 49 b 350 -18 441 -5 396 -18 b 182 46 278 -18 222 3 l 182 -317 l 110 -317 l 110 647 "},"¶":{"ha":833,"x_min":0,"x_max":0,"o":"m 521 -175 l 714 924 l 529 924 l 336 -175 l 263 -175 l 372 449 b 190 509 296 449 235 469 b 121 661 144 549 121 600 b 224 891 121 753 155 829 b 489 983 292 953 381 983 l 799 983 l 594 -175 "},"·":{"ha":353,"x_min":0,"x_max":0,"o":"m 179 349 b 136 365 162 349 147 354 b 119 408 125 375 119 390 b 138 456 119 427 126 443 b 183 475 151 469 166 475 b 226 458 200 475 214 469 b 243 414 237 447 243 432 b 224 368 243 396 237 381 b 179 349 212 355 197 349 "},"ž":{"ha":608,"x_min":0,"x_max":0,"o":"m -21 0 l -11 56 l 479 583 l 103 583 l 114 647 l 590 647 l 579 590 l 89 65 l 501 65 l 490 0 m 319 783 l 208 983 l 278 983 l 368 824 l 518 983 l 594 983 l 410 783 "},"¹":{"ha":506,"x_min":0,"x_max":0,"o":"m 238 628 l 326 1129 l 210 1047 l 176 1094 l 351 1213 l 410 1213 l 306 628 "},"º":{"ha":486,"x_min":0,"x_max":0,"o":"m 456 825 b 422 915 456 861 444 891 b 331 950 400 938 369 950 b 210 896 281 950 241 932 b 164 764 179 860 164 816 b 197 674 164 728 175 698 b 288 639 218 651 249 639 b 408 694 337 639 377 657 b 456 825 440 730 456 774 m 100 760 b 166 929 100 825 122 882 b 333 1000 210 976 266 1000 b 467 953 389 1000 434 984 b 518 831 501 921 518 881 b 452 660 518 764 496 707 b 283 589 408 613 352 589 b 150 636 228 589 183 605 b 100 760 117 668 100 709 "},"»":{"ha":683,"x_min":0,"x_max":0,"o":"m 347 49 l 301 89 l 506 339 l 389 582 l 444 618 l 585 333 m 101 49 l 56 89 l 260 339 l 143 582 l 199 618 l 339 333 "},"Œ":{"ha":1343,"x_min":0,"x_max":0,"o":"m 556 0 b 384 24 495 0 438 8 b 238 97 330 41 281 65 b 133 226 194 130 159 173 b 94 410 107 280 94 341 b 267 829 94 587 152 726 b 706 983 381 932 528 983 l 1357 983 l 1344 914 l 882 914 l 817 544 l 1258 544 l 1246 478 l 806 478 l 733 69 l 1233 69 l 1221 0 l 556 0 m 654 69 l 804 914 l 700 914 b 319 774 542 914 415 867 b 176 418 224 681 176 563 b 281 165 176 313 211 229 b 574 69 350 101 448 69 "},"œ":{"ha":1372,"x_min":0,"x_max":0,"o":"m 660 378 b 599 538 660 443 640 496 b 433 601 559 580 504 601 b 221 503 348 601 277 569 b 136 269 164 438 136 360 b 195 109 136 205 156 151 b 360 46 234 67 289 46 b 575 144 447 46 519 78 b 660 378 631 209 660 287 m 950 46 b 1181 161 1044 46 1120 84 l 1226 117 b 944 -18 1153 27 1059 -18 b 769 33 874 -18 816 -1 b 674 165 723 66 691 111 b 356 -18 604 43 498 -18 b 140 61 266 -18 194 8 b 58 265 85 114 58 182 b 165 547 58 375 94 469 b 439 664 237 625 328 664 b 613 613 506 664 565 647 b 714 481 662 579 695 535 b 840 613 743 535 785 579 b 1022 664 896 647 956 664 b 1219 594 1107 664 1173 641 b 1288 411 1265 548 1288 487 b 1275 308 1288 372 1283 338 l 728 308 b 725 272 726 290 725 278 b 788 108 725 205 746 150 b 950 46 829 67 883 46 m 1210 364 b 1214 415 1213 381 1214 398 b 1163 551 1214 472 1197 517 b 1021 601 1128 584 1081 601 b 835 531 948 601 886 578 b 738 364 785 484 752 429 l 1210 364 "},"Ÿ":{"ha":756,"x_min":0,"x_max":0,"o":"m 407 425 l 332 0 l 253 0 l 329 425 l 86 983 l 178 983 l 378 492 l 781 983 l 878 983 m 374 1124 b 335 1139 359 1124 346 1129 b 318 1179 324 1149 318 1163 b 336 1222 318 1196 324 1210 b 378 1240 348 1234 362 1240 b 416 1225 394 1240 406 1235 b 431 1185 426 1215 431 1201 b 414 1142 431 1168 425 1154 b 374 1124 403 1130 389 1124 m 628 1124 b 589 1139 612 1124 599 1129 b 574 1179 579 1149 574 1163 b 591 1223 574 1197 579 1211 b 632 1240 603 1234 616 1240 b 671 1225 648 1240 661 1235 b 686 1185 681 1215 686 1201 b 669 1142 686 1168 680 1154 b 628 1124 657 1130 644 1124 "},"¿":{"ha":665,"x_min":0,"x_max":0,"o":"m 296 399 l 371 399 l 357 318 b 313 210 350 275 336 239 b 215 114 291 180 258 148 l 168 76 b 78 -12 127 44 97 15 b 51 -114 59 -38 50 -72 b 96 -224 51 -160 66 -197 b 210 -264 125 -250 163 -264 b 349 -216 264 -264 311 -248 b 428 -93 388 -184 414 -143 l 500 -107 b 392 -272 481 -176 444 -231 b 207 -333 339 -313 277 -333 b 38 -278 138 -333 81 -315 b -28 -115 -6 -241 -28 -187 b 16 21 -28 -63 -13 -18 b 138 136 45 60 86 98 b 243 230 188 171 223 203 b 286 342 263 257 278 294 m 354 678 b 398 661 372 678 386 672 b 415 617 409 650 415 635 b 396 571 415 599 409 584 b 351 551 383 558 368 551 b 308 568 334 551 319 557 b 292 613 297 579 292 594 b 310 658 292 630 298 645 b 354 678 322 671 337 678 "},"À":{"ha":939,"x_min":0,"x_max":0,"o":"m 763 0 l 711 265 l 193 265 l 26 0 l -67 0 l 567 983 l 649 983 l 844 0 m 592 899 l 238 338 l 699 338 m 508 1261 l 650 1061 l 586 1061 l 411 1261 "},"Á":{"ha":939,"x_min":0,"x_max":0,"o":"m 763 0 l 711 265 l 193 265 l 26 0 l -67 0 l 567 983 l 649 983 l 844 0 m 592 899 l 238 338 l 699 338 m 632 1061 l 569 1061 l 744 1261 l 842 1261 "},"Â":{"ha":939,"x_min":0,"x_max":0,"o":"m 763 0 l 711 265 l 193 265 l 26 0 l -67 0 l 567 983 l 649 983 l 844 0 m 592 899 l 238 338 l 699 338 m 700 1261 l 811 1061 l 742 1061 l 650 1221 l 501 1061 l 424 1061 l 610 1261 "},"Ã":{"ha":939,"x_min":0,"x_max":0,"o":"m 763 0 l 711 265 l 193 265 l 26 0 l -67 0 l 567 983 l 649 983 l 844 0 m 592 899 l 238 338 l 699 338 m 646 1182 b 731 1150 684 1161 712 1150 b 807 1218 763 1150 788 1173 l 856 1218 b 719 1089 826 1132 781 1089 b 628 1122 699 1089 669 1100 b 543 1154 587 1143 559 1154 b 467 1085 510 1154 484 1131 l 418 1085 b 554 1215 447 1172 492 1215 b 646 1182 577 1215 608 1204 "},"Ä":{"ha":939,"x_min":0,"x_max":0,"o":"m 763 0 l 711 265 l 193 265 l 26 0 l -67 0 l 567 983 l 649 983 l 844 0 m 592 899 l 238 338 l 699 338 m 511 1124 b 472 1139 496 1124 483 1129 b 456 1179 461 1149 456 1163 b 474 1222 456 1196 462 1210 b 515 1240 486 1234 500 1240 b 553 1225 531 1240 544 1235 b 568 1185 563 1215 568 1201 b 551 1142 568 1168 563 1154 b 511 1124 540 1130 527 1124 m 765 1124 b 726 1139 750 1124 737 1129 b 711 1179 716 1149 711 1163 b 728 1223 711 1197 717 1211 b 769 1240 740 1234 754 1240 b 808 1225 785 1240 798 1235 b 824 1185 819 1215 824 1201 b 806 1142 824 1168 818 1154 b 765 1124 795 1130 781 1124 "},"Å":{"ha":939,"x_min":0,"x_max":0,"o":"m 763 0 l 711 265 l 193 265 l 26 0 l -67 0 l 567 983 l 649 983 l 844 0 m 592 899 l 238 338 l 699 338 m 732 1201 b 711 1257 732 1224 725 1242 b 654 1279 697 1272 678 1279 b 579 1244 624 1279 599 1268 b 550 1161 560 1221 550 1194 b 571 1106 550 1139 557 1120 b 628 1083 585 1091 604 1083 b 702 1118 657 1083 682 1095 b 732 1201 722 1141 732 1169 m 508 1158 b 550 1268 508 1201 522 1238 b 656 1314 578 1299 613 1314 b 742 1283 692 1314 720 1304 b 774 1203 763 1263 774 1236 b 731 1093 774 1160 759 1124 b 625 1047 703 1063 668 1047 b 540 1078 590 1047 562 1058 b 508 1158 519 1099 508 1126 "},"Æ":{"ha":1353,"x_min":0,"x_max":0,"o":"m 1342 914 l 879 914 l 814 544 l 1256 544 l 1243 478 l 801 478 l 729 69 l 1231 69 l 1218 0 l 640 0 l 689 281 l 278 281 l 47 0 l -50 0 l 763 983 l 1354 983 m 801 914 l 794 914 l 331 349 l 701 349 "},"Ç":{"ha":1001,"x_min":0,"x_max":0,"o":"m 476 -318 b 344 -290 425 -318 381 -309 l 365 -247 b 472 -269 394 -262 430 -269 b 548 -251 503 -269 528 -263 b 578 -197 568 -238 578 -220 b 557 -156 578 -179 571 -165 b 504 -142 543 -146 525 -142 b 431 -156 478 -142 454 -146 l 413 -137 l 504 -25 b 204 101 377 -19 277 23 b 94 399 131 178 94 277 b 264 830 94 566 151 710 b 678 1010 377 950 515 1010 b 869 970 747 1010 811 997 b 999 861 927 944 970 907 l 932 813 b 832 904 911 850 877 880 b 675 940 787 928 734 940 b 320 779 534 940 416 887 b 176 407 224 672 176 548 b 271 146 176 301 208 214 b 538 43 334 77 423 43 b 856 183 665 43 771 90 l 907 136 b 554 -25 815 34 698 -19 l 486 -108 b 538 -101 501 -104 518 -101 b 611 -123 565 -101 590 -109 b 643 -192 632 -137 643 -160 b 593 -287 643 -234 626 -266 b 476 -318 560 -308 521 -318 "},"È":{"ha":804,"x_min":0,"x_max":0,"o":"m 67 0 l 240 983 l 817 983 l 804 914 l 306 914 l 240 544 l 718 544 l 707 478 l 229 478 l 157 69 l 693 69 l 681 0 m 469 1261 l 611 1061 l 547 1061 l 372 1261 "},"É":{"ha":804,"x_min":0,"x_max":0,"o":"m 67 0 l 240 983 l 817 983 l 804 914 l 306 914 l 240 544 l 718 544 l 707 478 l 229 478 l 157 69 l 693 69 l 681 0 m 554 1061 l 492 1061 l 667 1261 l 764 1261 "},"Ê":{"ha":804,"x_min":0,"x_max":0,"o":"m 67 0 l 240 983 l 817 983 l 804 914 l 306 914 l 240 544 l 718 544 l 707 478 l 229 478 l 157 69 l 693 69 l 681 0 m 624 1261 l 735 1061 l 665 1061 l 574 1221 l 425 1061 l 347 1061 l 533 1261 "},"Ë":{"ha":804,"x_min":0,"x_max":0,"o":"m 67 0 l 240 983 l 817 983 l 804 914 l 306 914 l 240 544 l 718 544 l 707 478 l 229 478 l 157 69 l 693 69 l 681 0 m 431 1124 b 392 1139 416 1124 403 1129 b 375 1179 381 1149 375 1163 b 393 1222 375 1196 381 1210 b 435 1240 405 1234 419 1240 b 473 1225 450 1240 463 1235 b 488 1185 483 1215 488 1201 b 471 1142 488 1168 482 1154 b 431 1124 460 1130 446 1124 m 685 1124 b 646 1139 669 1124 656 1129 b 631 1179 636 1149 631 1163 b 648 1223 631 1197 636 1211 b 689 1240 659 1234 673 1240 b 728 1225 705 1240 718 1235 b 743 1185 738 1215 743 1201 b 726 1142 743 1168 737 1154 b 685 1124 714 1130 700 1124 "},"Ì":{"ha":350,"x_min":0,"x_max":0,"o":"m 67 0 l 240 983 l 318 983 l 144 0 m 182 1261 l 324 1061 l 260 1061 l 85 1261 "},"Í":{"ha":350,"x_min":0,"x_max":0,"o":"m 67 0 l 240 983 l 318 983 l 144 0 m 313 1061 l 250 1061 l 425 1261 l 522 1261 "},"Î":{"ha":350,"x_min":0,"x_max":0,"o":"m 67 0 l 240 983 l 318 983 l 144 0 m 372 1261 l 483 1061 l 414 1061 l 322 1221 l 174 1061 l 96 1061 l 282 1261 "},"Ï":{"ha":350,"x_min":0,"x_max":0,"o":"m 67 0 l 240 983 l 318 983 l 144 0 m 179 1124 b 140 1139 164 1124 151 1129 b 124 1179 129 1149 124 1163 b 142 1222 124 1196 130 1210 b 183 1240 154 1234 168 1240 b 222 1225 199 1240 212 1235 b 236 1185 231 1215 236 1201 b 219 1142 236 1168 231 1154 b 179 1124 208 1130 195 1124 m 433 1124 b 394 1139 418 1124 405 1129 b 379 1179 384 1149 379 1163 b 397 1223 379 1197 385 1211 b 438 1240 408 1234 422 1240 b 476 1225 453 1240 466 1235 b 492 1185 487 1215 492 1201 b 474 1142 492 1168 486 1154 b 433 1124 463 1130 449 1124 "},"Ð":{"ha":1058,"x_min":0,"x_max":0,"o":"m 51 486 l 63 547 l 164 547 l 240 983 l 525 983 b 697 959 586 983 644 975 b 844 886 751 943 800 919 b 949 757 888 854 923 811 b 988 574 975 703 988 642 b 815 154 988 397 930 257 b 376 0 700 51 554 0 l 67 0 l 151 486 m 597 547 l 586 486 l 231 486 l 157 69 l 381 69 b 761 209 539 69 666 116 b 904 565 856 302 904 421 b 801 818 904 670 870 754 b 508 914 732 882 634 914 l 307 914 l 242 547 "},"Ñ":{"ha":1042,"x_min":0,"x_max":0,"o":"m 736 0 l 304 882 l 300 882 l 146 0 l 67 0 l 240 983 l 340 983 l 774 110 l 776 110 l 931 983 l 1010 983 l 836 0 m 657 1182 b 742 1150 695 1161 723 1150 b 818 1218 774 1150 800 1173 l 867 1218 b 731 1089 837 1132 792 1089 b 639 1122 710 1089 680 1100 b 554 1154 598 1143 570 1154 b 478 1085 521 1154 495 1131 l 429 1085 b 565 1215 458 1172 503 1215 b 657 1182 588 1215 619 1204 "},"Ò":{"ha":1174,"x_min":0,"x_max":0,"o":"m 1019 576 b 926 838 1019 682 988 769 b 661 940 863 906 775 940 b 313 780 520 940 404 887 b 176 407 222 673 176 549 b 271 146 176 301 208 214 b 536 43 334 77 422 43 b 788 119 629 43 713 68 b 960 316 863 169 920 235 b 1019 576 1000 397 1019 484 m 94 401 b 258 832 94 570 149 713 b 664 1010 366 950 502 1010 b 983 892 797 1010 904 970 b 1103 583 1063 813 1103 710 b 1031 279 1103 473 1079 372 b 827 57 982 187 915 112 b 533 -26 740 1 642 -26 b 214 92 400 -26 294 13 b 94 401 134 170 94 274 m 611 1261 l 753 1061 l 689 1061 l 514 1261 "},"Ó":{"ha":1174,"x_min":0,"x_max":0,"o":"m 1019 576 b 926 838 1019 682 988 769 b 661 940 863 906 775 940 b 313 780 520 940 404 887 b 176 407 222 673 176 549 b 271 146 176 301 208 214 b 536 43 334 77 422 43 b 788 119 629 43 713 68 b 960 316 863 169 920 235 b 1019 576 1000 397 1019 484 m 94 401 b 258 832 94 570 149 713 b 664 1010 366 950 502 1010 b 983 892 797 1010 904 970 b 1103 583 1063 813 1103 710 b 1031 279 1103 473 1079 372 b 827 57 982 187 915 112 b 533 -26 740 1 642 -26 b 214 92 400 -26 294 13 b 94 401 134 170 94 274 m 693 1061 l 631 1061 l 806 1261 l 903 1261 "},"Ô":{"ha":1174,"x_min":0,"x_max":0,"o":"m 1019 576 b 926 838 1019 682 988 769 b 661 940 863 906 775 940 b 313 780 520 940 404 887 b 176 407 222 673 176 549 b 271 146 176 301 208 214 b 536 43 334 77 422 43 b 788 119 629 43 713 68 b 960 316 863 169 920 235 b 1019 576 1000 397 1019 484 m 94 401 b 258 832 94 570 149 713 b 664 1010 366 950 502 1010 b 983 892 797 1010 904 970 b 1103 583 1063 813 1103 710 b 1031 279 1103 473 1079 372 b 827 57 982 187 915 112 b 533 -26 740 1 642 -26 b 214 92 400 -26 294 13 b 94 401 134 170 94 274 m 783 1261 l 894 1061 l 825 1061 l 733 1221 l 585 1061 l 507 1061 l 693 1261 "},"Õ":{"ha":1174,"x_min":0,"x_max":0,"o":"m 1019 576 b 926 838 1019 682 988 769 b 661 940 863 906 775 940 b 313 780 520 940 404 887 b 176 407 222 673 176 549 b 271 146 176 301 208 214 b 536 43 334 77 422 43 b 788 119 629 43 713 68 b 960 316 863 169 920 235 b 1019 576 1000 397 1019 484 m 94 401 b 258 832 94 570 149 713 b 664 1010 366 950 502 1010 b 983 892 797 1010 904 970 b 1103 583 1063 813 1103 710 b 1031 279 1103 473 1079 372 b 827 57 982 187 915 112 b 533 -26 740 1 642 -26 b 214 92 400 -26 294 13 b 94 401 134 170 94 274 m 721 1182 b 806 1150 759 1161 787 1150 b 882 1218 838 1150 863 1173 l 931 1218 b 794 1089 901 1132 856 1089 b 703 1122 774 1089 744 1100 b 618 1154 662 1143 634 1154 b 542 1085 585 1154 559 1131 l 493 1085 b 629 1215 522 1172 567 1215 b 721 1182 652 1215 683 1204 "},"Ö":{"ha":1174,"x_min":0,"x_max":0,"o":"m 1019 576 b 926 838 1019 682 988 769 b 661 940 863 906 775 940 b 313 780 520 940 404 887 b 176 407 222 673 176 549 b 271 146 176 301 208 214 b 536 43 334 77 422 43 b 788 119 629 43 713 68 b 960 316 863 169 920 235 b 1019 576 1000 397 1019 484 m 94 401 b 258 832 94 570 149 713 b 664 1010 366 950 502 1010 b 983 892 797 1010 904 970 b 1103 583 1063 813 1103 710 b 1031 279 1103 473 1079 372 b 827 57 982 187 915 112 b 533 -26 740 1 642 -26 b 214 92 400 -26 294 13 b 94 401 134 170 94 274 m 588 1124 b 549 1139 573 1124 560 1129 b 532 1179 538 1149 532 1163 b 550 1222 532 1196 538 1210 b 592 1240 562 1234 576 1240 b 630 1225 607 1240 620 1235 b 644 1185 640 1215 644 1201 b 628 1142 644 1168 639 1154 b 588 1124 617 1130 603 1124 m 842 1124 b 803 1139 826 1124 813 1129 b 788 1179 793 1149 788 1163 b 805 1223 788 1197 793 1211 b 846 1240 816 1234 830 1240 b 885 1225 862 1240 875 1235 b 900 1185 895 1215 900 1201 b 883 1142 900 1168 894 1154 b 842 1124 871 1130 857 1124 "},"×":{"ha":925,"x_min":0,"x_max":0,"o":"m 739 193 l 692 146 l 463 375 l 233 146 l 188 193 l 417 422 l 188 653 l 233 700 l 463 471 l 692 700 l 739 653 l 510 422 "},"Ø":{"ha":1174,"x_min":0,"x_max":0,"o":"m 536 43 b 886 203 676 43 793 96 b 1026 576 980 309 1026 434 b 963 800 1026 663 1005 738 l 268 149 b 536 43 333 78 422 43 m 929 840 b 668 940 865 907 778 940 b 413 863 575 940 490 915 b 238 665 337 812 278 746 b 176 407 197 585 176 499 b 238 188 176 324 197 250 m 53 17 l 176 133 b 94 401 122 208 94 298 b 260 831 94 569 150 712 b 671 1010 371 950 508 1010 b 988 893 801 1010 907 971 l 1108 1007 l 1143 968 l 1022 854 b 1110 583 1081 783 1110 693 b 944 153 1110 416 1055 272 b 533 -26 834 33 697 -26 b 210 96 399 -26 291 14 l 86 -22 "},"Ù":{"ha":989,"x_min":0,"x_max":0,"o":"m 857 368 b 817 228 848 317 834 271 b 746 104 800 186 776 145 b 622 8 715 63 674 31 b 442 -26 570 -15 510 -26 b 202 53 338 -26 258 0 b 118 281 146 107 118 182 b 128 386 118 316 121 351 l 232 983 l 310 983 l 204 379 b 194 283 198 340 194 308 b 257 106 194 206 215 147 b 446 43 299 64 362 43 b 591 71 501 43 550 52 b 690 149 632 89 665 116 b 747 254 714 183 733 218 b 781 378 761 290 772 331 l 888 983 l 965 983 m 519 1261 l 661 1061 l 597 1061 l 422 1261 "},"Ú":{"ha":989,"x_min":0,"x_max":0,"o":"m 857 368 b 817 228 848 317 834 271 b 746 104 800 186 776 145 b 622 8 715 63 674 31 b 442 -26 570 -15 510 -26 b 202 53 338 -26 258 0 b 118 281 146 107 118 182 b 128 386 118 316 121 351 l 232 983 l 310 983 l 204 379 b 194 283 198 340 194 308 b 257 106 194 206 215 147 b 446 43 299 64 362 43 b 591 71 501 43 550 52 b 690 149 632 89 665 116 b 747 254 714 183 733 218 b 781 378 761 290 772 331 l 888 983 l 965 983 m 606 1061 l 543 1061 l 718 1261 l 815 1261 "},"Û":{"ha":989,"x_min":0,"x_max":0,"o":"m 857 368 b 817 228 848 317 834 271 b 746 104 800 186 776 145 b 622 8 715 63 674 31 b 442 -26 570 -15 510 -26 b 202 53 338 -26 258 0 b 118 281 146 107 118 182 b 128 386 118 316 121 351 l 232 983 l 310 983 l 204 379 b 194 283 198 340 194 308 b 257 106 194 206 215 147 b 446 43 299 64 362 43 b 591 71 501 43 550 52 b 690 149 632 89 665 116 b 747 254 714 183 733 218 b 781 378 761 290 772 331 l 888 983 l 965 983 m 693 1261 l 804 1061 l 735 1061 l 643 1221 l 494 1061 l 417 1061 l 603 1261 "},"Ü":{"ha":989,"x_min":0,"x_max":0,"o":"m 857 368 b 817 228 848 317 834 271 b 746 104 800 186 776 145 b 622 8 715 63 674 31 b 442 -26 570 -15 510 -26 b 202 53 338 -26 258 0 b 118 281 146 107 118 182 b 128 386 118 316 121 351 l 232 983 l 310 983 l 204 379 b 194 283 198 340 194 308 b 257 106 194 206 215 147 b 446 43 299 64 362 43 b 591 71 501 43 550 52 b 690 149 632 89 665 116 b 747 254 714 183 733 218 b 781 378 761 290 772 331 l 888 983 l 965 983 m 499 1124 b 460 1139 484 1124 471 1129 b 443 1179 449 1149 443 1163 b 461 1222 443 1196 449 1210 b 503 1240 473 1234 487 1240 b 541 1225 519 1240 531 1235 b 556 1185 551 1215 556 1201 b 539 1142 556 1168 550 1154 b 499 1124 528 1130 514 1124 m 753 1124 b 714 1139 737 1124 724 1129 b 699 1179 704 1149 699 1163 b 716 1223 699 1197 704 1211 b 757 1240 728 1234 741 1240 b 796 1225 773 1240 786 1235 b 811 1185 806 1215 811 1201 b 794 1142 811 1168 805 1154 b 753 1124 782 1130 769 1124 "},"Ý":{"ha":756,"x_min":0,"x_max":0,"o":"m 407 425 l 332 0 l 253 0 l 329 425 l 86 983 l 178 983 l 378 492 l 781 983 l 878 983 m 501 1061 l 439 1061 l 614 1261 l 711 1261 "},"Þ":{"ha":797,"x_min":0,"x_max":0,"o":"m 190 249 l 146 0 l 67 0 l 240 983 l 319 983 l 282 767 l 461 767 b 674 708 550 767 621 747 b 753 536 726 668 753 611 b 656 325 753 446 721 376 b 390 249 592 274 503 249 m 674 529 b 458 700 674 643 602 700 l 269 700 l 201 314 l 399 314 b 601 371 486 314 553 333 b 674 529 650 409 674 462 "},"ß":{"ha":817,"x_min":0,"x_max":0,"o":"m 353 -15 b 274 -10 319 -15 292 -13 l 285 54 b 353 49 311 50 333 49 b 566 123 437 49 508 73 b 653 339 624 172 653 244 b 590 499 653 404 632 457 b 419 561 549 540 492 561 l 404 561 l 417 628 l 431 628 b 601 683 497 628 554 646 b 672 835 649 719 672 770 b 625 958 672 888 656 929 b 500 1000 594 986 552 1000 b 261 750 370 1000 291 917 l 128 0 l 56 0 l 188 753 b 219 867 195 794 206 832 b 276 965 233 901 252 934 b 369 1040 299 997 330 1022 b 501 1067 407 1058 451 1067 b 681 1006 575 1067 635 1046 b 750 843 727 965 750 911 b 691 683 750 779 730 726 b 539 599 652 641 601 613 l 538 596 b 677 511 595 585 641 556 b 731 343 713 466 731 410 b 627 83 731 236 696 149 b 353 -15 558 18 467 -15 "},"à":{"ha":732,"x_min":0,"x_max":0,"o":"m 567 146 b 551 0 556 85 551 36 l 485 0 b 496 119 485 38 488 78 l 493 119 b 242 -14 429 31 345 -14 b 101 26 188 -14 141 0 b 42 153 62 53 42 95 b 83 276 42 202 55 243 b 199 349 110 309 149 333 b 356 383 250 366 302 377 b 540 392 409 389 471 392 b 549 461 546 419 549 442 b 388 601 549 555 495 601 b 186 525 316 601 249 576 l 151 575 b 265 640 183 602 221 623 b 396 664 310 656 353 664 b 558 615 463 664 516 648 b 619 475 599 583 619 536 b 614 406 619 453 618 430 l 567 146 m 531 333 l 503 333 b 118 161 246 333 118 276 b 161 72 118 119 132 90 b 265 46 190 55 225 46 b 435 114 333 46 390 69 b 521 278 481 159 510 214 m 343 983 l 485 783 l 421 783 l 246 983 "},"á":{"ha":732,"x_min":0,"x_max":0,"o":"m 567 146 b 551 0 556 85 551 36 l 485 0 b 496 119 485 38 488 78 l 493 119 b 242 -14 429 31 345 -14 b 101 26 188 -14 141 0 b 42 153 62 53 42 95 b 83 276 42 202 55 243 b 199 349 110 309 149 333 b 356 383 250 366 302 377 b 540 392 409 389 471 392 b 549 461 546 419 549 442 b 388 601 549 555 495 601 b 186 525 316 601 249 576 l 151 575 b 265 640 183 602 221 623 b 396 664 310 656 353 664 b 558 615 463 664 516 648 b 619 475 599 583 619 536 b 614 406 619 453 618 430 l 567 146 m 531 333 l 503 333 b 118 161 246 333 118 276 b 161 72 118 119 132 90 b 265 46 190 55 225 46 b 435 114 333 46 390 69 b 521 278 481 159 510 214 m 431 783 l 368 783 l 543 983 l 640 983 "},"â":{"ha":732,"x_min":0,"x_max":0,"o":"m 567 146 b 551 0 556 85 551 36 l 485 0 b 496 119 485 38 488 78 l 493 119 b 242 -14 429 31 345 -14 b 101 26 188 -14 141 0 b 42 153 62 53 42 95 b 83 276 42 202 55 243 b 199 349 110 309 149 333 b 356 383 250 366 302 377 b 540 392 409 389 471 392 b 549 461 546 419 549 442 b 388 601 549 555 495 601 b 186 525 316 601 249 576 l 151 575 b 265 640 183 602 221 623 b 396 664 310 656 353 664 b 558 615 463 664 516 648 b 619 475 599 583 619 536 b 614 406 619 453 618 430 l 567 146 m 531 333 l 503 333 b 118 161 246 333 118 276 b 161 72 118 119 132 90 b 265 46 190 55 225 46 b 435 114 333 46 390 69 b 521 278 481 159 510 214 m 518 983 l 629 783 l 560 783 l 468 943 l 319 783 l 242 783 l 428 983 "},"ã":{"ha":732,"x_min":0,"x_max":0,"o":"m 567 146 b 551 0 556 85 551 36 l 485 0 b 496 119 485 38 488 78 l 493 119 b 242 -14 429 31 345 -14 b 101 26 188 -14 141 0 b 42 153 62 53 42 95 b 83 276 42 202 55 243 b 199 349 110 309 149 333 b 356 383 250 366 302 377 b 540 392 409 389 471 392 b 549 461 546 419 549 442 b 388 601 549 555 495 601 b 186 525 316 601 249 576 l 151 575 b 265 640 183 602 221 623 b 396 664 310 656 353 664 b 558 615 463 664 516 648 b 619 475 599 583 619 536 b 614 406 619 453 618 430 l 567 146 m 531 333 l 503 333 b 118 161 246 333 118 276 b 161 72 118 119 132 90 b 265 46 190 55 225 46 b 435 114 333 46 390 69 b 521 278 481 159 510 214 m 454 904 b 539 872 492 883 520 872 b 615 940 571 872 597 895 l 664 940 b 528 811 634 854 589 811 b 436 844 507 811 477 822 b 351 876 395 866 367 876 b 275 807 318 876 293 853 l 226 807 b 363 938 255 894 300 938 b 454 904 386 938 416 926 "},"ä":{"ha":732,"x_min":0,"x_max":0,"o":"m 567 146 b 551 0 556 85 551 36 l 485 0 b 496 119 485 38 488 78 l 493 119 b 242 -14 429 31 345 -14 b 101 26 188 -14 141 0 b 42 153 62 53 42 95 b 83 276 42 202 55 243 b 199 349 110 309 149 333 b 356 383 250 366 302 377 b 540 392 409 389 471 392 b 549 461 546 419 549 442 b 388 601 549 555 495 601 b 186 525 316 601 249 576 l 151 575 b 265 640 183 602 221 623 b 396 664 310 656 353 664 b 558 615 463 664 516 648 b 619 475 599 583 619 536 b 614 406 619 453 618 430 l 567 146 m 531 333 l 503 333 b 118 161 246 333 118 276 b 161 72 118 119 132 90 b 265 46 190 55 225 46 b 435 114 333 46 390 69 b 521 278 481 159 510 214 m 321 846 b 282 861 306 846 293 851 b 265 901 271 871 265 885 b 283 944 265 918 271 932 b 325 963 295 956 309 963 b 363 947 341 963 353 957 b 378 907 373 937 378 924 b 361 864 378 890 372 876 b 321 846 350 852 337 846 m 575 846 b 536 861 559 846 546 851 b 521 901 526 871 521 885 b 538 945 521 919 527 934 b 579 963 550 957 563 963 b 618 947 595 963 608 957 b 633 907 628 937 633 924 b 616 864 633 890 628 876 b 575 846 604 852 591 846 "},"å":{"ha":732,"x_min":0,"x_max":0,"o":"m 567 146 b 551 0 556 85 551 36 l 485 0 b 496 119 485 38 488 78 l 493 119 b 242 -14 429 31 345 -14 b 101 26 188 -14 141 0 b 42 153 62 53 42 95 b 83 276 42 202 55 243 b 199 349 110 309 149 333 b 356 383 250 366 302 377 b 540 392 409 389 471 392 b 549 461 546 419 549 442 b 388 601 549 555 495 601 b 186 525 316 601 249 576 l 151 575 b 265 640 183 602 221 623 b 396 664 310 656 353 664 b 558 615 463 664 516 648 b 619 475 599 583 619 536 b 614 406 619 453 618 430 l 567 146 m 531 333 l 503 333 b 118 161 246 333 118 276 b 161 72 118 119 132 90 b 265 46 190 55 225 46 b 435 114 333 46 390 69 b 521 278 481 159 510 214 m 543 924 b 522 979 543 946 536 964 b 465 1001 508 994 489 1001 b 390 967 435 1001 410 990 b 361 883 371 944 361 916 b 382 828 361 861 368 843 b 439 806 396 813 415 806 b 513 840 469 806 493 817 b 543 924 533 863 543 891 m 319 881 b 361 990 319 923 333 960 b 467 1036 389 1021 424 1036 b 553 1006 503 1036 531 1026 b 585 925 574 985 585 958 b 542 815 585 882 571 846 b 436 769 514 785 479 769 b 351 801 401 769 373 780 b 319 881 330 822 319 848 "},"æ":{"ha":1225,"x_min":0,"x_max":0,"o":"m 803 46 b 1033 161 896 46 973 84 l 1079 117 b 797 -18 1006 27 912 -18 b 632 35 732 -18 677 0 b 544 171 587 70 557 115 b 433 37 519 115 482 71 b 256 -14 384 3 325 -14 b 105 26 197 -14 147 -1 b 42 151 63 52 42 94 b 70 246 42 188 51 219 b 142 308 89 273 113 294 b 255 344 172 323 209 335 b 388 361 301 353 345 358 b 535 365 430 364 479 365 b 549 461 544 410 549 442 b 388 601 549 555 495 601 b 186 525 316 601 249 576 l 151 575 b 265 640 184 602 222 623 b 394 664 309 656 352 664 b 537 628 451 664 498 652 b 611 521 575 604 600 568 b 723 624 637 563 674 597 b 875 664 772 650 822 664 b 1071 594 960 664 1025 641 b 1139 411 1116 548 1139 487 b 1128 308 1139 373 1135 339 l 594 308 b 592 272 593 290 592 278 b 649 108 592 205 611 150 b 803 46 687 67 738 46 m 525 308 l 497 308 b 118 160 244 308 118 259 b 161 72 118 119 132 90 b 265 46 190 55 225 46 b 435 113 334 46 390 68 b 519 278 479 157 507 212 m 1063 364 b 1065 415 1064 386 1065 403 b 1015 551 1065 472 1048 517 b 872 601 981 584 933 601 b 697 531 803 601 744 578 b 604 364 650 484 619 429 l 1063 364 "},"ç":{"ha":681,"x_min":0,"x_max":0,"o":"m 285 -318 b 153 -290 234 -318 190 -309 l 174 -247 b 281 -269 202 -262 238 -269 b 356 -251 311 -269 336 -263 b 386 -197 376 -238 386 -220 b 365 -156 386 -179 379 -165 b 313 -142 351 -146 334 -142 b 239 -156 287 -142 262 -146 l 221 -137 l 318 -18 b 131 67 238 -12 176 17 b 64 261 86 118 64 182 b 172 547 64 373 100 468 b 447 664 243 625 335 664 b 668 560 553 664 626 629 l 611 521 b 446 601 574 575 519 601 b 228 503 359 601 286 569 b 140 268 169 437 140 359 b 199 107 140 202 160 149 b 363 44 239 65 293 44 b 560 129 438 44 503 73 l 604 83 b 368 -19 535 19 456 -16 l 294 -108 b 346 -101 309 -104 326 -101 b 419 -123 374 -101 398 -109 b 451 -192 441 -137 451 -160 b 401 -287 451 -234 435 -266 b 285 -318 368 -308 329 -318 "},"è":{"ha":781,"x_min":0,"x_max":0,"o":"m 136 308 b 133 267 134 299 133 285 b 196 108 133 202 154 149 b 358 46 238 66 292 46 b 586 156 450 46 526 82 l 635 117 b 513 18 603 75 563 42 b 353 -18 464 -6 410 -18 b 140 60 265 -18 194 8 b 58 269 85 112 58 181 b 165 547 58 377 94 469 b 429 664 237 625 325 664 b 626 594 514 664 580 641 b 696 411 673 547 696 486 b 683 308 696 372 692 338 m 618 364 b 621 415 620 386 621 403 b 570 551 621 472 604 517 b 428 601 536 584 489 601 b 242 531 355 601 293 578 b 146 364 192 483 160 428 l 618 364 m 368 983 l 510 783 l 446 783 l 271 983 "},"é":{"ha":781,"x_min":0,"x_max":0,"o":"m 136 308 b 133 267 134 299 133 285 b 196 108 133 202 154 149 b 358 46 238 66 292 46 b 586 156 450 46 526 82 l 635 117 b 513 18 603 75 563 42 b 353 -18 464 -6 410 -18 b 140 60 265 -18 194 8 b 58 269 85 112 58 181 b 165 547 58 377 94 469 b 429 664 237 625 325 664 b 626 594 514 664 580 641 b 696 411 673 547 696 486 b 683 308 696 372 692 338 m 618 364 b 621 415 620 386 621 403 b 570 551 621 472 604 517 b 428 601 536 584 489 601 b 242 531 355 601 293 578 b 146 364 192 483 160 428 l 618 364 m 447 783 l 385 783 l 560 983 l 657 983 "},"ê":{"ha":781,"x_min":0,"x_max":0,"o":"m 136 308 b 133 267 134 299 133 285 b 196 108 133 202 154 149 b 358 46 238 66 292 46 b 586 156 450 46 526 82 l 635 117 b 513 18 603 75 563 42 b 353 -18 464 -6 410 -18 b 140 60 265 -18 194 8 b 58 269 85 112 58 181 b 165 547 58 377 94 469 b 429 664 237 625 325 664 b 626 594 514 664 580 641 b 696 411 673 547 696 486 b 683 308 696 372 692 338 m 618 364 b 621 415 620 386 621 403 b 570 551 621 472 604 517 b 428 601 536 584 489 601 b 242 531 355 601 293 578 b 146 364 192 483 160 428 l 618 364 m 554 983 l 665 783 l 596 783 l 504 943 l 356 783 l 278 783 l 464 983 "},"ë":{"ha":781,"x_min":0,"x_max":0,"o":"m 136 308 b 133 267 134 299 133 285 b 196 108 133 202 154 149 b 358 46 238 66 292 46 b 586 156 450 46 526 82 l 635 117 b 513 18 603 75 563 42 b 353 -18 464 -6 410 -18 b 140 60 265 -18 194 8 b 58 269 85 112 58 181 b 165 547 58 377 94 469 b 429 664 237 625 325 664 b 626 594 514 664 580 641 b 696 411 673 547 696 486 b 683 308 696 372 692 338 m 618 364 b 621 415 620 386 621 403 b 570 551 621 472 604 517 b 428 601 536 584 489 601 b 242 531 355 601 293 578 b 146 364 192 483 160 428 l 618 364 m 356 846 b 317 861 341 846 328 851 b 300 901 306 871 300 885 b 318 944 300 918 306 932 b 360 963 330 956 344 963 b 398 947 375 963 388 957 b 413 907 408 937 413 924 b 396 864 413 890 407 876 b 356 846 385 852 371 846 m 610 846 b 571 861 594 846 581 851 b 556 901 561 871 556 885 b 573 945 556 919 561 934 b 614 963 584 957 598 963 b 653 947 630 963 643 957 b 668 907 663 937 668 924 b 651 864 668 890 662 876 b 610 846 639 852 625 846 "},"ì":{"ha":338,"x_min":0,"x_max":0,"o":"m 61 0 l 176 647 l 250 647 l 136 0 m 140 983 l 282 783 l 218 783 l 43 983 "},"í":{"ha":338,"x_min":0,"x_max":0,"o":"m 61 0 l 176 647 l 250 647 l 136 0 m 254 783 l 192 783 l 367 983 l 464 983 "},"î":{"ha":338,"x_min":0,"x_max":0,"o":"m 61 0 l 176 647 l 250 647 l 136 0 m 321 983 l 432 783 l 363 783 l 271 943 l 122 783 l 44 783 l 231 983 "},"ï":{"ha":338,"x_min":0,"x_max":0,"o":"m 61 0 l 176 647 l 250 647 l 136 0 m 124 846 b 85 861 109 846 96 851 b 68 901 74 871 68 885 b 86 944 68 918 74 932 b 128 963 98 956 112 963 b 166 947 144 963 156 957 b 181 907 176 937 181 924 b 164 864 181 890 175 876 b 124 846 153 852 139 846 m 378 846 b 339 861 362 846 349 851 b 324 901 329 871 324 885 b 341 945 324 919 329 934 b 382 963 353 957 366 963 b 421 947 398 963 411 957 b 436 907 431 937 436 924 b 419 864 436 890 430 876 b 378 846 407 852 394 846 "},"ð":{"ha":829,"x_min":0,"x_max":0,"o":"m 675 378 b 615 538 675 443 655 496 b 449 601 574 580 519 601 b 235 503 363 601 292 569 b 150 269 178 438 150 360 b 210 109 150 205 170 151 b 375 46 250 67 305 46 b 590 144 462 46 534 78 b 675 378 647 209 675 287 m 451 664 b 665 575 540 664 612 634 l 669 578 b 603 745 656 634 633 690 b 501 886 572 800 538 847 l 332 806 l 299 846 l 465 926 b 347 1033 436 961 396 996 l 414 1074 b 533 960 452 1044 492 1006 l 689 1036 l 728 997 l 569 919 b 704 695 625 856 670 782 b 756 428 738 609 756 519 b 717 215 756 351 743 280 b 590 49 692 149 649 94 b 371 -18 530 4 457 -18 b 154 61 281 -18 209 8 b 72 265 100 114 72 182 b 179 547 72 375 108 469 b 451 664 250 625 341 664 "},"ñ":{"ha":797,"x_min":0,"x_max":0,"o":"m 226 518 b 327 624 250 562 284 597 b 464 664 370 650 416 664 b 619 606 531 664 583 645 b 674 443 656 568 674 513 b 665 358 674 417 671 389 l 601 0 l 528 0 l 593 365 b 600 433 598 391 600 414 b 562 556 600 485 587 526 b 449 601 536 586 499 601 b 287 531 388 601 334 578 b 193 329 240 483 209 416 l 135 0 l 61 0 l 149 499 b 169 647 161 574 168 623 l 242 647 b 224 518 234 586 228 543 m 485 904 b 569 872 523 883 551 872 b 646 940 602 872 627 895 l 694 940 b 558 811 665 854 619 811 b 467 844 538 811 507 822 b 382 876 426 866 398 876 b 306 807 349 876 323 853 l 257 807 b 393 938 286 894 331 938 b 485 904 416 938 447 926 "},"ò":{"ha":829,"x_min":0,"x_max":0,"o":"m 660 378 b 599 538 660 443 640 496 b 433 601 559 580 504 601 b 221 503 348 601 277 569 b 136 269 164 438 136 360 b 195 109 136 205 156 151 b 360 46 234 67 289 46 b 575 144 447 46 519 78 b 660 378 631 209 660 287 m 58 265 b 165 547 58 375 94 469 b 439 664 237 625 328 664 b 654 585 529 664 600 638 b 735 382 708 533 735 465 b 628 99 735 271 699 176 b 356 -18 558 21 467 -18 b 140 61 266 -18 194 8 b 58 265 85 114 58 182 m 378 983 l 519 783 l 456 783 l 281 983 "},"ó":{"ha":829,"x_min":0,"x_max":0,"o":"m 660 378 b 599 538 660 443 640 496 b 433 601 559 580 504 601 b 221 503 348 601 277 569 b 136 269 164 438 136 360 b 195 109 136 205 156 151 b 360 46 234 67 289 46 b 575 144 447 46 519 78 b 660 378 631 209 660 287 m 58 265 b 165 547 58 375 94 469 b 439 664 237 625 328 664 b 654 585 529 664 600 638 b 735 382 708 533 735 465 b 628 99 735 271 699 176 b 356 -18 558 21 467 -18 b 140 61 266 -18 194 8 b 58 265 85 114 58 182 m 469 783 l 407 783 l 582 983 l 679 983 "},"ô":{"ha":829,"x_min":0,"x_max":0,"o":"m 660 378 b 599 538 660 443 640 496 b 433 601 559 580 504 601 b 221 503 348 601 277 569 b 136 269 164 438 136 360 b 195 109 136 205 156 151 b 360 46 234 67 289 46 b 575 144 447 46 519 78 b 660 378 631 209 660 287 m 58 265 b 165 547 58 375 94 469 b 439 664 237 625 328 664 b 654 585 529 664 600 638 b 735 382 708 533 735 465 b 628 99 735 271 699 176 b 356 -18 558 21 467 -18 b 140 61 266 -18 194 8 b 58 265 85 114 58 182 m 567 983 l 678 783 l 608 783 l 517 943 l 368 783 l 290 783 l 476 983 "},"õ":{"ha":829,"x_min":0,"x_max":0,"o":"m 660 378 b 599 538 660 443 640 496 b 433 601 559 580 504 601 b 221 503 348 601 277 569 b 136 269 164 438 136 360 b 195 109 136 205 156 151 b 360 46 234 67 289 46 b 575 144 447 46 519 78 b 660 378 631 209 660 287 m 58 265 b 165 547 58 375 94 469 b 439 664 237 625 328 664 b 654 585 529 664 600 638 b 735 382 708 533 735 465 b 628 99 735 271 699 176 b 356 -18 558 21 467 -18 b 140 61 266 -18 194 8 b 58 265 85 114 58 182 m 496 904 b 581 872 534 883 562 872 b 657 940 613 872 638 895 l 706 940 b 569 811 676 854 631 811 b 478 844 549 811 519 822 b 393 876 437 866 409 876 b 317 807 360 876 334 853 l 268 807 b 404 938 297 894 342 938 b 496 904 427 938 458 926 "},"ö":{"ha":829,"x_min":0,"x_max":0,"o":"m 660 378 b 599 538 660 443 640 496 b 433 601 559 580 504 601 b 221 503 348 601 277 569 b 136 269 164 438 136 360 b 195 109 136 205 156 151 b 360 46 234 67 289 46 b 575 144 447 46 519 78 b 660 378 631 209 660 287 m 58 265 b 165 547 58 375 94 469 b 439 664 237 625 328 664 b 654 585 529 664 600 638 b 735 382 708 533 735 465 b 628 99 735 271 699 176 b 356 -18 558 21 467 -18 b 140 61 266 -18 194 8 b 58 265 85 114 58 182 m 364 846 b 325 861 349 846 336 851 b 308 901 314 871 308 885 b 326 944 308 918 314 932 b 368 963 338 956 352 963 b 406 947 384 963 397 957 b 421 907 416 937 421 924 b 404 864 421 890 415 876 b 364 846 393 852 380 846 m 618 846 b 579 861 602 846 589 851 b 564 901 569 871 564 885 b 581 945 564 919 570 934 b 622 963 593 957 606 963 b 661 947 638 963 651 957 b 676 907 671 937 676 924 b 659 864 676 890 671 876 b 618 846 647 852 634 846 "},"÷":{"ha":925,"x_min":0,"x_max":0,"o":"m 531 647 b 510 600 531 630 524 614 b 463 579 497 586 481 579 b 415 600 444 579 428 586 b 396 647 402 614 396 630 b 415 696 396 666 402 682 b 463 717 428 710 444 717 b 511 696 482 717 498 710 b 531 647 524 682 531 666 m 115 388 l 115 454 l 811 454 l 811 388 m 531 194 b 511 146 531 176 524 160 b 463 125 498 132 482 125 b 415 146 444 125 428 132 b 396 194 402 160 396 176 b 415 242 396 213 402 229 b 463 263 427 256 443 263 b 510 242 481 263 497 256 b 531 194 524 228 531 212 "},"ø":{"ha":829,"x_min":0,"x_max":0,"o":"m 360 46 b 575 144 447 46 519 78 b 660 378 631 209 660 287 b 628 500 660 424 649 465 l 192 113 b 360 46 233 68 289 46 m 600 538 b 433 601 559 580 504 601 b 221 503 348 601 277 569 b 136 269 164 438 136 360 b 165 150 136 223 146 183 m 4 6 l 108 96 b 57 265 74 145 57 201 b 165 547 57 375 93 469 b 439 664 236 625 328 664 b 654 588 529 664 600 638 l 757 679 l 788 643 l 683 553 b 736 382 719 505 736 448 b 629 99 736 271 700 176 b 356 -18 558 21 467 -18 b 139 63 267 -18 194 9 l 33 -31 "},"ù":{"ha":797,"x_min":0,"x_max":0,"o":"m 300 -18 b 141 36 231 -18 178 0 b 86 194 104 72 86 125 b 94 281 86 220 89 249 l 160 647 l 233 647 l 168 281 b 161 207 163 251 161 226 b 314 46 161 100 212 46 b 474 117 373 46 426 69 b 568 318 521 164 552 231 l 626 647 l 700 647 l 613 149 b 592 0 601 90 594 41 l 519 0 b 538 128 526 56 532 99 l 535 128 b 433 21 509 82 475 47 b 300 -18 391 -5 346 -18 m 340 983 l 482 783 l 418 783 l 243 983 "},"ú":{"ha":797,"x_min":0,"x_max":0,"o":"m 300 -18 b 141 36 231 -18 178 0 b 86 194 104 72 86 125 b 94 281 86 220 89 249 l 160 647 l 233 647 l 168 281 b 161 207 163 251 161 226 b 314 46 161 100 212 46 b 474 117 373 46 426 69 b 568 318 521 164 552 231 l 626 647 l 700 647 l 613 149 b 592 0 601 90 594 41 l 519 0 b 538 128 526 56 532 99 l 535 128 b 433 21 509 82 475 47 b 300 -18 391 -5 346 -18 m 453 783 l 390 783 l 565 983 l 663 983 "},"û":{"ha":797,"x_min":0,"x_max":0,"o":"m 300 -18 b 141 36 231 -18 178 0 b 86 194 104 72 86 125 b 94 281 86 220 89 249 l 160 647 l 233 647 l 168 281 b 161 207 163 251 161 226 b 314 46 161 100 212 46 b 474 117 373 46 426 69 b 568 318 521 164 552 231 l 626 647 l 700 647 l 613 149 b 592 0 601 90 594 41 l 519 0 b 538 128 526 56 532 99 l 535 128 b 433 21 509 82 475 47 b 300 -18 391 -5 346 -18 m 540 983 l 651 783 l 582 783 l 490 943 l 342 783 l 264 783 l 450 983 "},"ü":{"ha":797,"x_min":0,"x_max":0,"o":"m 300 -18 b 141 36 231 -18 178 0 b 86 194 104 72 86 125 b 94 281 86 220 89 249 l 160 647 l 233 647 l 168 281 b 161 207 163 251 161 226 b 314 46 161 100 212 46 b 474 117 373 46 426 69 b 568 318 521 164 552 231 l 626 647 l 700 647 l 613 149 b 592 0 601 90 594 41 l 519 0 b 538 128 526 56 532 99 l 535 128 b 433 21 509 82 475 47 b 300 -18 391 -5 346 -18 m 342 846 b 303 861 327 846 314 851 b 286 901 292 871 286 885 b 304 944 286 918 292 932 b 346 963 316 956 330 963 b 384 947 362 963 374 957 b 399 907 394 937 399 924 b 382 864 399 890 393 876 b 342 846 371 852 357 846 m 596 846 b 557 861 580 846 567 851 b 542 901 547 871 542 885 b 559 945 542 919 547 934 b 600 963 571 957 584 963 b 639 947 616 963 629 957 b 654 907 649 937 654 924 b 637 864 654 890 648 876 b 596 846 625 852 612 846 "},"ý":{"ha":649,"x_min":0,"x_max":0,"o":"m -19 -335 b -92 -325 -42 -335 -66 -331 l -81 -260 b -22 -268 -64 -265 -44 -268 b 58 -238 8 -268 35 -258 b 124 -150 80 -218 102 -189 l 207 -4 l 71 647 l 150 647 l 260 76 l 263 76 l 585 647 l 667 647 l 182 -181 b 90 -297 151 -232 121 -271 b -19 -335 60 -322 23 -335 m 399 783 l 336 783 l 511 983 l 608 983 "},"þ":{"ha":871,"x_min":0,"x_max":0,"o":"m 233 524 b 337 624 256 563 291 597 b 486 664 383 650 432 664 b 699 586 576 664 647 638 b 778 382 752 534 778 466 b 671 99 778 272 742 178 b 401 -18 600 21 510 -18 b 256 22 348 -18 299 -5 b 164 131 213 48 182 84 l 161 131 l 78 -333 l 4 -333 l 247 1050 l 322 1050 l 229 524 m 481 601 b 268 503 397 601 326 569 b 181 269 210 437 181 359 b 242 109 181 205 201 151 b 403 46 282 67 336 46 b 618 142 491 46 563 78 b 701 378 674 207 701 285 b 643 538 701 443 682 496 b 481 601 604 580 550 601 "},"ÿ":{"ha":649,"x_min":0,"x_max":0,"o":"m -19 -335 b -92 -325 -42 -335 -66 -331 l -81 -260 b -22 -268 -64 -265 -44 -268 b 58 -238 8 -268 35 -258 b 124 -150 80 -218 102 -189 l 207 -4 l 71 647 l 150 647 l 260 76 l 263 76 l 585 647 l 667 647 l 182 -181 b 90 -297 151 -232 121 -271 b -19 -335 60 -322 23 -335 m 275 846 b 236 861 260 846 247 851 b 219 901 225 871 219 885 b 238 944 219 918 225 932 b 279 963 250 956 263 963 b 317 947 295 963 308 957 b 332 907 327 937 332 924 b 315 864 332 890 326 876 b 275 846 304 852 291 846 m 529 846 b 490 861 513 846 500 851 b 475 901 480 871 475 885 b 492 945 475 919 481 934 b 533 963 504 957 518 963 b 572 947 549 963 562 957 b 588 907 582 937 588 924 b 570 864 588 890 582 876 b 529 846 559 852 545 846 "},"¤":{"ha":1169,"x_min":0,"x_max":0,"o":"m 807 151 b 586 78 745 102 671 78 b 364 154 500 78 426 103 l 229 21 l 182 69 l 315 203 b 239 429 264 262 239 338 b 310 650 239 516 263 590 b 272 687 304 656 292 668 b 219 740 253 706 235 723 b 182 778 203 756 190 769 l 231 826 l 358 699 b 586 779 422 752 498 779 b 811 700 675 779 750 753 b 849 737 820 708 833 721 b 901 790 864 753 882 771 l 938 826 l 988 778 l 863 653 b 936 429 912 591 936 516 b 857 200 936 339 910 263 l 988 69 l 939 21 b 807 151 862 99 818 142 m 854 429 b 781 625 854 507 830 572 b 586 704 731 678 667 704 b 392 625 506 704 441 678 b 318 429 343 572 318 507 b 392 231 318 350 343 284 b 586 151 442 178 506 151 b 780 231 666 151 730 178 b 854 429 829 284 854 350 "},"¦":{"ha":308,"x_min":0,"x_max":0,"o":"m 122 460 l 122 938 l 188 938 l 188 460 m 122 -243 l 122 235 l 188 235 l 188 -243 "},"¨":{"ha":333,"x_min":0,"x_max":0,"o":"m 126 846 b 88 861 112 846 99 851 b 71 901 76 871 71 885 b 89 944 71 918 77 932 b 131 963 101 956 115 963 b 169 947 146 963 159 957 b 183 907 178 937 183 924 b 167 864 183 890 178 876 b 126 846 156 852 142 846 m 381 846 b 342 861 365 846 352 851 b 326 901 331 871 326 885 b 344 945 326 919 332 934 b 385 963 355 957 369 963 b 424 947 400 963 413 957 b 439 907 434 937 439 924 b 422 864 439 890 433 876 b 381 846 410 852 396 846 "},"´":{"ha":333,"x_min":0,"x_max":0,"o":"m 215 783 l 153 783 l 328 983 l 425 983 "},"¸":{"ha":333,"x_min":0,"x_max":0,"o":"m 40 -318 b -92 -290 -11 -318 -55 -309 l -71 -247 b 36 -269 -42 -262 -6 -269 b 112 -251 67 -269 92 -263 b 142 -197 132 -238 142 -220 b 121 -156 142 -179 135 -165 b 68 -142 107 -146 89 -142 b -6 -156 42 -142 18 -146 l -24 -137 l 89 0 l 140 0 l 50 -108 b 101 -101 65 -104 82 -101 b 175 -123 129 -101 154 -109 b 207 -192 196 -137 207 -160 b 157 -287 207 -234 190 -266 b 40 -318 124 -308 85 -318 "},"¼":{"ha":1150,"x_min":0,"x_max":0,"o":"m 611 140 l 622 200 l 938 588 l 1017 588 l 949 200 l 1040 200 l 1031 140 l 940 140 l 917 0 l 854 0 l 879 140 m 888 200 l 939 499 l 935 499 l 692 200 m 204 -42 l 154 -11 l 958 1025 l 1007 994 m 238 399 l 326 900 l 210 818 l 176 865 l 351 983 l 410 983 l 306 399 "},"½":{"ha":1150,"x_min":0,"x_max":0,"o":"m 204 -42 l 154 -11 l 958 1025 l 1007 994 m 238 399 l 326 900 l 210 818 l 176 865 l 351 983 l 410 983 l 306 399 m 1022 60 l 1010 0 l 632 0 l 643 67 l 900 289 b 1006 446 970 350 1006 402 b 978 513 1006 475 996 497 b 903 538 959 529 934 538 b 776 439 843 538 800 505 l 715 456 b 790 559 731 500 756 534 b 907 596 825 584 863 596 b 1026 556 959 596 999 583 b 1068 450 1054 530 1068 494 b 1038 349 1068 411 1058 378 b 929 240 1017 321 981 285 l 718 60 "},"¾":{"ha":1150,"x_min":0,"x_max":0,"o":"m 461 576 b 405 441 461 519 442 474 b 261 392 367 408 319 392 b 145 424 216 392 177 402 b 78 511 113 445 91 474 l 143 531 b 261 451 162 478 201 451 b 358 484 302 451 334 462 b 394 571 382 506 394 535 b 356 654 394 609 382 637 b 258 681 331 672 298 681 l 233 681 l 243 736 l 271 736 b 383 767 319 736 356 747 b 422 853 409 788 422 817 b 396 918 422 881 413 902 b 328 942 378 934 356 942 b 215 875 281 942 243 919 l 164 908 b 336 1000 205 969 262 1000 b 447 962 381 1000 418 987 b 489 857 475 936 489 901 b 452 757 489 815 477 782 b 361 708 428 732 397 716 l 360 708 l 358 707 b 433 662 389 700 414 685 b 461 576 452 638 461 610 m 611 140 l 622 200 l 938 588 l 1017 588 l 949 200 l 1040 200 l 1031 140 l 940 140 l 917 0 l 854 0 l 879 140 m 204 -42 l 154 -11 l 958 1025 l 1007 994 m 888 200 l 939 499 l 935 499 l 692 200 "},"Ā":{"ha":939,"x_min":0,"x_max":0,"o":"m 763 0 l 711 265 l 193 265 l 26 0 l -67 0 l 567 983 l 649 983 l 844 0 m 592 899 l 238 338 l 699 338 m 446 1119 l 456 1181 l 815 1181 l 804 1119 "},"ā":{"ha":732,"x_min":0,"x_max":0,"o":"m 567 146 b 551 0 556 85 551 36 l 485 0 b 496 119 485 38 488 78 l 493 119 b 242 -14 429 31 345 -14 b 101 26 188 -14 141 0 b 42 153 62 53 42 95 b 83 276 42 202 55 243 b 199 349 110 309 149 333 b 356 383 250 366 302 377 b 540 392 409 389 471 392 b 549 461 546 419 549 442 b 388 601 549 555 495 601 b 186 525 316 601 249 576 l 151 575 b 265 640 183 602 221 623 b 396 664 310 656 353 664 b 558 615 463 664 516 648 b 619 475 599 583 619 536 b 614 406 619 453 618 430 l 567 146 m 531 333 l 503 333 b 118 161 246 333 118 276 b 161 72 118 119 132 90 b 265 46 190 55 225 46 b 435 114 333 46 390 69 b 521 278 481 159 510 214 m 256 842 l 265 903 l 625 903 l 614 842 "},"Ă":{"ha":939,"x_min":0,"x_max":0,"o":"m 763 0 l 711 265 l 193 265 l 26 0 l -67 0 l 567 983 l 649 983 l 844 0 m 592 899 l 238 338 l 699 338 m 833 1257 b 757 1126 822 1202 797 1159 b 615 1076 717 1093 670 1076 b 488 1123 561 1076 518 1092 b 442 1257 457 1154 442 1199 l 492 1257 b 617 1138 492 1177 533 1138 b 724 1167 658 1138 694 1147 b 783 1257 753 1187 773 1217 l 833 1257 "},"ă":{"ha":732,"x_min":0,"x_max":0,"o":"m 567 146 b 551 0 556 85 551 36 l 485 0 b 496 119 485 38 488 78 l 493 119 b 242 -14 429 31 345 -14 b 101 26 188 -14 141 0 b 42 153 62 53 42 95 b 83 276 42 202 55 243 b 199 349 110 309 149 333 b 356 383 250 366 302 377 b 540 392 409 389 471 392 b 549 461 546 419 549 442 b 388 601 549 555 495 601 b 186 525 316 601 249 576 l 151 575 b 265 640 183 602 221 623 b 396 664 310 656 353 664 b 558 615 463 664 516 648 b 619 475 599 583 619 536 b 614 406 619 453 618 430 l 567 146 m 531 333 l 503 333 b 118 161 246 333 118 276 b 161 72 118 119 132 90 b 265 46 190 55 225 46 b 435 114 333 46 390 69 b 521 278 481 159 510 214 m 643 979 b 567 848 632 925 606 881 b 425 799 527 815 480 799 b 297 845 370 799 328 814 b 251 979 267 876 251 921 l 301 979 b 426 860 301 900 343 860 b 533 890 468 860 504 870 b 593 979 563 909 583 939 l 643 979 "},"Ą":{"ha":939,"x_min":0,"x_max":0,"o":"m 567 983 l 649 983 l 844 0 l 819 0 b 708 -110 769 -44 731 -80 b 672 -196 684 -141 672 -169 b 738 -250 672 -232 694 -250 b 822 -217 769 -250 797 -239 l 836 -261 b 713 -310 798 -294 757 -310 b 635 -286 682 -310 656 -302 b 604 -217 615 -270 604 -247 b 647 -107 604 -178 618 -141 b 763 0 675 -73 713 -37 l 711 265 l 193 265 l 26 0 l -67 0 m 699 338 l 592 899 l 238 338 "},"ą":{"ha":732,"x_min":0,"x_max":0,"o":"m 433 -310 b 356 -286 403 -310 377 -302 b 324 -217 334 -270 324 -247 b 366 -108 324 -178 338 -141 b 483 0 394 -74 433 -38 b 496 119 483 33 488 73 l 493 119 b 240 -14 429 31 345 -14 b 102 26 188 -14 142 0 b 42 153 62 53 42 95 b 83 276 42 202 55 243 b 199 349 110 309 149 333 b 356 383 250 366 302 377 b 540 392 409 389 471 392 b 549 461 546 419 549 442 b 388 601 549 555 495 601 b 186 525 316 601 249 576 l 151 575 b 265 640 183 602 221 623 b 396 664 310 656 353 664 b 558 616 463 664 516 648 b 619 476 599 584 619 538 b 614 406 619 453 618 430 l 567 146 b 551 0 556 93 551 44 l 540 0 b 428 -110 489 -44 452 -80 b 393 -196 405 -141 393 -169 b 457 -250 393 -232 414 -250 b 542 -217 489 -250 518 -239 l 557 -261 b 433 -310 517 -294 476 -310 m 265 46 b 435 114 333 46 390 69 b 521 278 481 159 510 214 l 531 333 l 503 333 b 118 161 246 333 118 276 b 161 72 118 119 132 90 b 265 46 190 55 225 46 "},"Ć":{"ha":1001,"x_min":0,"x_max":0,"o":"m 907 136 b 535 -26 812 28 688 -26 b 213 91 400 -26 292 13 b 94 399 134 169 94 272 b 264 830 94 566 151 710 b 678 1010 377 950 515 1010 b 869 970 747 1010 811 997 b 999 861 927 944 970 907 l 932 813 b 832 904 911 850 877 880 b 675 940 787 928 734 940 b 320 779 534 940 416 887 b 176 407 224 672 176 548 b 271 146 176 301 208 214 b 538 43 334 77 423 43 b 856 183 665 43 771 90 m 681 1061 l 618 1061 l 793 1261 l 890 1261 "},"ć":{"ha":681,"x_min":0,"x_max":0,"o":"m 363 44 b 560 129 438 44 503 73 l 604 83 b 353 -19 531 15 447 -19 b 141 58 263 -19 192 6 b 64 261 90 110 64 178 b 172 547 64 373 100 468 b 447 664 243 625 335 664 b 668 560 553 664 626 629 l 611 521 b 446 601 574 575 519 601 b 228 503 359 601 286 569 b 140 268 169 437 140 359 b 199 107 140 202 160 149 b 363 44 239 65 293 44 m 467 783 l 404 783 l 579 983 l 676 983 "},"Ĉ":{"ha":1001,"x_min":0,"x_max":0,"o":"m 907 136 b 535 -26 812 28 688 -26 b 213 91 400 -26 292 13 b 94 399 134 169 94 272 b 264 830 94 566 151 710 b 678 1010 377 950 515 1010 b 869 970 747 1010 811 997 b 999 861 927 944 970 907 l 932 813 b 832 904 911 850 877 880 b 675 940 787 928 734 940 b 320 779 534 940 416 887 b 176 407 224 672 176 548 b 271 146 176 301 208 214 b 538 43 334 77 423 43 b 856 183 665 43 771 90 m 769 1261 l 881 1061 l 811 1061 l 719 1221 l 571 1061 l 493 1061 l 679 1261 "},"ĉ":{"ha":681,"x_min":0,"x_max":0,"o":"m 363 44 b 560 129 438 44 503 73 l 604 83 b 353 -19 531 15 447 -19 b 141 58 263 -19 192 6 b 64 261 90 110 64 178 b 172 547 64 373 100 468 b 447 664 243 625 335 664 b 668 560 553 664 626 629 l 611 521 b 446 601 574 575 519 601 b 228 503 359 601 286 569 b 140 268 169 437 140 359 b 199 107 140 202 160 149 b 363 44 239 65 293 44 m 563 983 l 674 783 l 604 783 l 513 943 l 364 783 l 286 783 l 472 983 "},"Ċ":{"ha":1001,"x_min":0,"x_max":0,"o":"m 907 136 b 535 -26 812 28 688 -26 b 213 91 400 -26 292 13 b 94 399 134 169 94 272 b 264 830 94 566 151 710 b 678 1010 377 950 515 1010 b 869 970 747 1010 811 997 b 999 861 927 944 970 907 l 932 813 b 832 904 911 850 877 880 b 675 940 787 928 734 940 b 320 779 534 940 416 887 b 176 407 224 672 176 548 b 271 146 176 301 208 214 b 538 43 334 77 423 43 b 856 183 665 43 771 90 m 713 1126 b 675 1141 698 1126 685 1131 b 660 1179 665 1151 660 1163 b 676 1222 660 1196 665 1210 b 717 1239 688 1233 701 1239 b 754 1224 731 1239 744 1234 b 769 1185 764 1215 769 1201 b 753 1144 769 1169 764 1155 b 713 1126 742 1132 728 1126 "},"ċ":{"ha":681,"x_min":0,"x_max":0,"o":"m 363 44 b 560 129 438 44 503 73 l 604 83 b 353 -19 531 15 447 -19 b 141 58 263 -19 192 6 b 64 261 90 110 64 178 b 172 547 64 373 100 468 b 447 664 243 625 335 664 b 668 560 553 664 626 629 l 611 521 b 446 601 574 575 519 601 b 228 503 359 601 286 569 b 140 268 169 437 140 359 b 199 107 140 202 160 149 b 363 44 239 65 293 44 m 492 849 b 454 863 477 849 464 853 b 439 901 444 873 439 886 b 456 944 439 918 444 932 b 496 961 467 955 480 961 b 533 947 511 961 523 956 b 549 907 544 937 549 924 b 532 866 549 891 543 878 b 492 849 521 854 507 849 "},"Č":{"ha":1001,"x_min":0,"x_max":0,"o":"m 907 136 b 535 -26 812 28 688 -26 b 213 91 400 -26 292 13 b 94 399 134 169 94 272 b 264 830 94 566 151 710 b 678 1010 377 950 515 1010 b 869 970 747 1010 811 997 b 999 861 927 944 970 907 l 932 813 b 832 904 911 850 877 880 b 675 940 787 928 734 940 b 320 779 534 940 416 887 b 176 407 224 672 176 548 b 271 146 176 301 208 214 b 538 43 334 77 423 43 b 856 183 665 43 771 90 m 644 1061 l 533 1261 l 603 1261 l 693 1101 l 843 1261 l 919 1261 l 735 1061 "},"č":{"ha":681,"x_min":0,"x_max":0,"o":"m 363 44 b 560 129 438 44 503 73 l 604 83 b 353 -19 531 15 447 -19 b 141 58 263 -19 192 6 b 64 261 90 110 64 178 b 172 547 64 373 100 468 b 447 664 243 625 335 664 b 668 560 553 664 626 629 l 611 521 b 446 601 574 575 519 601 b 228 503 359 601 286 569 b 140 268 169 437 140 359 b 199 107 140 202 160 149 b 363 44 239 65 293 44 m 422 783 l 311 983 l 381 983 l 471 824 l 621 983 l 697 983 l 513 783 "},"Ď":{"ha":1058,"x_min":0,"x_max":0,"o":"m 67 0 l 240 983 l 525 983 b 697 959 586 983 644 975 b 844 886 751 943 800 919 b 949 757 888 854 923 811 b 988 574 975 703 988 642 b 815 154 988 397 930 257 b 376 0 700 51 554 0 m 307 914 l 157 69 l 381 69 b 761 209 539 69 666 116 b 904 565 856 302 904 421 b 801 818 904 670 870 754 b 508 914 732 882 634 914 m 517 1061 l 406 1261 l 475 1261 l 565 1101 l 715 1261 l 792 1261 l 607 1061 "},"ď":{"ha":925,"x_min":0,"x_max":0,"o":"m 346 -18 b 135 60 257 -18 187 8 b 58 269 84 113 58 182 b 163 549 58 380 93 473 b 429 664 232 626 321 664 b 578 624 485 664 534 651 b 671 517 621 598 652 562 l 675 517 l 768 1050 l 843 1050 l 657 0 l 582 0 l 606 124 l 603 124 b 498 22 580 83 545 49 b 346 -18 451 -5 400 -18 m 356 46 b 567 145 439 46 509 79 b 654 379 625 211 654 289 b 594 539 654 444 634 497 b 433 601 553 581 500 601 b 217 506 344 601 272 570 b 135 269 162 443 135 364 b 193 109 135 205 154 151 b 356 46 232 67 286 46 m 925 725 l 863 725 l 997 983 l 1076 983 "},"Đ":{"ha":1058,"x_min":0,"x_max":0,"o":"m 51 486 l 63 547 l 164 547 l 240 983 l 525 983 b 697 959 586 983 644 975 b 844 886 751 943 800 919 b 949 757 888 854 923 811 b 988 574 975 703 988 642 b 815 154 988 397 930 257 b 376 0 700 51 554 0 l 67 0 l 151 486 m 597 547 l 586 486 l 231 486 l 157 69 l 381 69 b 761 209 539 69 666 116 b 904 565 856 302 904 421 b 801 818 904 670 870 754 b 508 914 732 882 634 914 l 307 914 l 242 547 "},"đ":{"ha":863,"x_min":0,"x_max":0,"o":"m 797 792 l 657 0 l 582 0 l 606 124 l 603 124 b 499 22 580 83 545 49 b 349 -18 453 -5 403 -18 b 137 60 260 -18 189 8 b 58 264 84 112 58 180 b 165 547 58 375 94 469 b 433 664 235 625 325 664 b 578 624 487 664 535 651 b 671 517 622 598 652 562 l 675 517 l 722 792 l 475 792 l 485 847 l 733 847 l 768 1050 l 843 1050 l 807 847 l 883 847 l 874 792 m 356 46 b 567 145 439 46 509 79 b 654 379 625 211 654 289 b 594 539 654 444 634 497 b 433 601 553 581 500 601 b 218 505 345 601 274 569 b 135 269 163 441 135 362 b 193 109 135 205 154 151 b 356 46 232 67 286 46 "},"Ē":{"ha":804,"x_min":0,"x_max":0,"o":"m 67 0 l 240 983 l 817 983 l 804 914 l 306 914 l 240 544 l 718 544 l 707 478 l 229 478 l 157 69 l 693 69 l 681 0 m 372 1119 l 382 1181 l 742 1181 l 731 1119 "},"ē":{"ha":781,"x_min":0,"x_max":0,"o":"m 136 308 b 133 267 134 299 133 285 b 196 108 133 202 154 149 b 358 46 238 66 292 46 b 586 156 450 46 526 82 l 635 117 b 513 18 603 75 563 42 b 353 -18 464 -6 410 -18 b 140 60 265 -18 194 8 b 58 269 85 112 58 181 b 165 547 58 377 94 469 b 429 664 237 625 325 664 b 626 594 514 664 580 641 b 696 411 673 547 696 486 b 683 308 696 372 692 338 m 618 364 b 621 415 620 386 621 403 b 570 551 621 472 604 517 b 428 601 536 584 489 601 b 242 531 355 601 293 578 b 146 364 192 483 160 428 l 618 364 m 296 842 l 306 903 l 665 903 l 654 842 "},"Ĕ":{"ha":804,"x_min":0,"x_max":0,"o":"m 67 0 l 240 983 l 817 983 l 804 914 l 306 914 l 240 544 l 718 544 l 707 478 l 229 478 l 157 69 l 693 69 l 681 0 m 761 1257 b 685 1126 750 1202 725 1159 b 543 1076 645 1093 598 1076 b 415 1123 488 1076 446 1092 b 369 1257 385 1154 369 1199 l 419 1257 b 544 1138 419 1177 461 1138 b 651 1167 586 1138 622 1147 b 711 1257 681 1187 701 1217 l 761 1257 "},"ĕ":{"ha":781,"x_min":0,"x_max":0,"o":"m 136 308 b 133 267 134 299 133 285 b 196 108 133 202 154 149 b 358 46 238 66 292 46 b 586 156 450 46 526 82 l 635 117 b 513 18 603 75 563 42 b 353 -18 464 -6 410 -18 b 140 60 265 -18 194 8 b 58 269 85 112 58 181 b 165 547 58 377 94 469 b 429 664 237 625 325 664 b 626 594 514 664 580 641 b 696 411 673 547 696 486 b 683 308 696 372 692 338 m 618 364 b 621 415 620 386 621 403 b 570 551 621 472 604 517 b 428 601 536 584 489 601 b 242 531 355 601 293 578 b 146 364 192 483 160 428 l 618 364 m 686 979 b 610 848 675 925 650 881 b 468 799 570 815 523 799 b 340 845 413 799 371 814 b 294 979 310 876 294 921 l 344 979 b 469 860 344 900 386 860 b 576 890 511 860 547 870 b 636 979 606 909 626 939 l 686 979 "},"Ė":{"ha":804,"x_min":0,"x_max":0,"o":"m 67 0 l 240 983 l 817 983 l 804 914 l 306 914 l 240 544 l 718 544 l 707 478 l 229 478 l 157 69 l 693 69 l 681 0 m 561 1126 b 524 1141 546 1126 534 1131 b 508 1179 513 1151 508 1163 b 525 1222 508 1196 514 1210 b 565 1239 536 1233 550 1239 b 603 1224 580 1239 593 1234 b 618 1185 613 1215 618 1201 b 601 1144 618 1169 613 1155 b 561 1126 590 1132 577 1126 "},"ė":{"ha":781,"x_min":0,"x_max":0,"o":"m 136 308 b 133 267 134 299 133 285 b 196 108 133 202 154 149 b 358 46 238 66 292 46 b 586 156 450 46 526 82 l 635 117 b 513 18 603 75 563 42 b 353 -18 464 -6 410 -18 b 140 60 265 -18 194 8 b 58 269 85 112 58 181 b 165 547 58 377 94 469 b 429 664 237 625 325 664 b 626 594 514 664 580 641 b 696 411 673 547 696 486 b 683 308 696 372 692 338 m 618 364 b 621 415 620 386 621 403 b 570 551 621 472 604 517 b 428 601 536 584 489 601 b 242 531 355 601 293 578 b 146 364 192 483 160 428 l 618 364 m 479 849 b 442 863 464 849 452 853 b 426 901 431 873 426 886 b 443 944 426 918 432 932 b 483 961 454 955 468 961 b 521 947 498 961 511 956 b 536 907 531 937 536 924 b 519 866 536 891 531 878 b 479 849 508 854 495 849 "},"Ę":{"ha":807,"x_min":0,"x_max":0,"o":"m 672 -261 b 549 -310 634 -294 593 -310 b 471 -286 518 -310 492 -302 b 439 -217 450 -270 439 -247 b 481 -108 439 -178 453 -141 b 599 0 509 -74 549 -38 l 67 0 l 240 983 l 819 983 l 807 914 l 306 914 l 240 544 l 721 544 l 708 478 l 229 478 l 157 69 l 696 69 l 683 0 l 656 0 b 544 -110 605 -44 567 -80 b 508 -196 520 -141 508 -169 b 574 -250 508 -232 530 -250 b 657 -217 605 -250 633 -239 "},"ę":{"ha":781,"x_min":0,"x_max":0,"o":"m 444 -261 b 321 -310 406 -294 365 -310 b 244 -286 290 -310 265 -302 b 213 -217 223 -270 213 -247 b 347 -18 213 -155 257 -88 b 138 62 261 -16 191 10 b 58 269 85 113 58 182 b 166 547 58 376 94 468 b 431 664 238 625 326 664 b 627 594 516 664 581 641 b 696 411 673 548 696 487 b 683 308 696 372 692 338 l 136 308 b 132 272 133 294 132 282 b 195 108 132 205 153 150 b 358 46 237 67 292 46 b 592 158 444 46 521 83 l 635 117 b 413 -12 575 44 501 1 b 282 -196 325 -87 282 -148 b 346 -250 282 -232 303 -250 b 431 -217 378 -250 406 -239 m 618 364 b 621 415 620 386 621 403 b 570 551 621 472 604 517 b 428 601 536 584 489 601 b 242 531 355 601 293 578 b 146 364 192 483 160 428 l 618 364 "},"Ě":{"ha":804,"x_min":0,"x_max":0,"o":"m 67 0 l 240 983 l 817 983 l 804 914 l 306 914 l 240 544 l 718 544 l 707 478 l 229 478 l 157 69 l 693 69 l 681 0 m 494 1061 l 383 1261 l 453 1261 l 543 1101 l 693 1261 l 769 1261 l 585 1061 "},"ě":{"ha":781,"x_min":0,"x_max":0,"o":"m 136 308 b 133 267 134 299 133 285 b 196 108 133 202 154 149 b 358 46 238 66 292 46 b 586 156 450 46 526 82 l 635 117 b 513 18 603 75 563 42 b 353 -18 464 -6 410 -18 b 140 60 265 -18 194 8 b 58 269 85 112 58 181 b 165 547 58 377 94 469 b 429 664 237 625 325 664 b 626 594 514 664 580 641 b 696 411 673 547 696 486 b 683 308 696 372 692 338 m 618 364 b 621 415 620 386 621 403 b 570 551 621 472 604 517 b 428 601 536 584 489 601 b 242 531 355 601 293 578 b 146 364 192 483 160 428 l 618 364 m 417 783 l 306 983 l 375 983 l 465 824 l 615 983 l 692 983 l 507 783 "},"Ĝ":{"ha":1069,"x_min":0,"x_max":0,"o":"m 533 -26 b 213 90 398 -26 291 13 b 94 399 134 168 94 271 b 264 830 94 566 151 710 b 678 1010 377 950 515 1010 b 873 970 750 1010 815 997 b 1003 861 931 944 974 907 l 940 813 b 834 904 916 850 881 880 b 675 940 787 928 734 940 b 320 779 534 940 416 887 b 176 407 224 672 176 548 b 270 146 176 301 208 214 b 538 43 333 77 422 43 b 825 111 652 43 748 66 l 882 439 l 643 439 l 656 506 l 971 506 l 894 67 b 533 -26 790 5 669 -26 m 778 1261 l 889 1061 l 819 1061 l 728 1221 l 579 1061 l 501 1061 l 688 1261 "},"ĝ":{"ha":867,"x_min":0,"x_max":0,"o":"m 617 139 b 506 33 589 94 552 59 b 357 -6 460 7 411 -6 b 147 74 268 -6 198 21 b 69 279 95 128 69 196 b 176 551 69 386 105 476 b 443 664 247 626 336 664 b 589 624 497 664 545 650 b 679 515 632 597 663 561 l 683 515 l 707 647 l 779 647 l 668 14 b 645 -85 662 -23 654 -56 b 604 -178 636 -115 623 -146 b 539 -260 586 -211 564 -239 b 440 -315 514 -282 481 -300 b 299 -337 398 -330 351 -337 b 131 -303 238 -337 181 -326 b 8 -210 80 -281 39 -250 l 53 -161 b 303 -272 117 -235 200 -272 b 503 -194 392 -272 459 -246 b 596 15 548 -143 579 -73 l 619 139 m 368 57 b 579 153 452 57 523 89 b 664 379 636 217 664 292 b 603 538 664 442 644 495 b 442 601 562 580 508 601 b 227 510 354 601 282 571 b 144 278 172 449 144 371 b 203 120 144 215 164 162 b 368 57 243 78 298 57 m 581 983 l 692 783 l 622 783 l 531 943 l 382 783 l 304 783 l 490 983 "},"Ğ":{"ha":1069,"x_min":0,"x_max":0,"o":"m 533 -26 b 213 90 398 -26 291 13 b 94 399 134 168 94 271 b 264 830 94 566 151 710 b 678 1010 377 950 515 1010 b 873 970 750 1010 815 997 b 1003 861 931 944 974 907 l 940 813 b 834 904 916 850 881 880 b 675 940 787 928 734 940 b 320 779 534 940 416 887 b 176 407 224 672 176 548 b 270 146 176 301 208 214 b 538 43 333 77 422 43 b 825 111 652 43 748 66 l 882 439 l 643 439 l 656 506 l 971 506 l 894 67 b 533 -26 790 5 669 -26 m 911 1257 b 835 1126 900 1202 875 1159 b 693 1076 795 1093 748 1076 b 565 1123 638 1076 596 1092 b 519 1257 535 1154 519 1199 l 569 1257 b 694 1138 569 1177 611 1138 b 801 1167 736 1138 772 1147 b 861 1257 831 1187 851 1217 l 911 1257 "},"ğ":{"ha":867,"x_min":0,"x_max":0,"o":"m 617 139 b 506 33 589 94 552 59 b 357 -6 460 7 411 -6 b 147 74 268 -6 198 21 b 69 279 95 128 69 196 b 176 551 69 386 105 476 b 443 664 247 626 336 664 b 589 624 497 664 545 650 b 679 515 632 597 663 561 l 683 515 l 707 647 l 779 647 l 668 14 b 645 -85 662 -23 654 -56 b 604 -178 636 -115 623 -146 b 539 -260 586 -211 564 -239 b 440 -315 514 -282 481 -300 b 299 -337 398 -330 351 -337 b 131 -303 238 -337 181 -326 b 8 -210 80 -281 39 -250 l 53 -161 b 303 -272 117 -235 200 -272 b 503 -194 392 -272 459 -246 b 596 15 548 -143 579 -73 l 619 139 m 368 57 b 579 153 452 57 523 89 b 664 379 636 217 664 292 b 603 538 664 442 644 495 b 442 601 562 580 508 601 b 227 510 354 601 282 571 b 144 278 172 449 144 371 b 203 120 144 215 164 162 b 368 57 243 78 298 57 m 714 979 b 638 848 703 925 677 881 b 496 799 598 815 550 799 b 368 845 441 799 399 814 b 322 979 338 876 322 921 l 372 979 b 497 860 372 900 414 860 b 604 890 539 860 575 870 b 664 979 634 909 654 939 l 714 979 "},"Ġ":{"ha":1069,"x_min":0,"x_max":0,"o":"m 533 -26 b 213 90 398 -26 291 13 b 94 399 134 168 94 271 b 264 830 94 566 151 710 b 678 1010 377 950 515 1010 b 873 970 750 1010 815 997 b 1003 861 931 944 974 907 l 940 813 b 834 904 916 850 881 880 b 675 940 787 928 734 940 b 320 779 534 940 416 887 b 176 407 224 672 176 548 b 270 146 176 301 208 214 b 538 43 333 77 422 43 b 825 111 652 43 748 66 l 882 439 l 643 439 l 656 506 l 971 506 l 894 67 b 533 -26 790 5 669 -26 m 713 1126 b 675 1141 698 1126 685 1131 b 660 1179 665 1151 660 1163 b 676 1222 660 1196 665 1210 b 717 1239 688 1233 701 1239 b 754 1224 731 1239 744 1234 b 769 1185 764 1215 769 1201 b 753 1144 769 1169 764 1155 b 713 1126 742 1132 728 1126 "},"ġ":{"ha":867,"x_min":0,"x_max":0,"o":"m 617 139 b 506 33 589 94 552 59 b 357 -6 460 7 411 -6 b 147 74 268 -6 198 21 b 69 279 95 128 69 196 b 176 551 69 386 105 476 b 443 664 247 626 336 664 b 589 624 497 664 545 650 b 679 515 632 597 663 561 l 683 515 l 707 647 l 779 647 l 668 14 b 645 -85 662 -23 654 -56 b 604 -178 636 -115 623 -146 b 539 -260 586 -211 564 -239 b 440 -315 514 -282 481 -300 b 299 -337 398 -330 351 -337 b 131 -303 238 -337 181 -326 b 8 -210 80 -281 39 -250 l 53 -161 b 303 -272 117 -235 200 -272 b 503 -194 392 -272 459 -246 b 596 15 548 -143 579 -73 l 619 139 m 368 57 b 579 153 452 57 523 89 b 664 379 636 217 664 292 b 603 538 664 442 644 495 b 442 601 562 580 508 601 b 227 510 354 601 282 571 b 144 278 172 449 144 371 b 203 120 144 215 164 162 b 368 57 243 78 298 57 m 507 849 b 469 863 492 849 480 853 b 454 901 459 873 454 886 b 471 944 454 918 460 932 b 511 961 482 955 495 961 b 549 947 526 961 538 956 b 564 907 559 937 564 924 b 547 866 564 891 558 878 b 507 849 536 854 523 849 "},"Ģ":{"ha":1069,"x_min":0,"x_max":0,"o":"m 533 -26 b 213 90 398 -26 291 13 b 94 399 134 168 94 271 b 264 830 94 566 151 710 b 678 1010 377 950 515 1010 b 873 970 750 1010 815 997 b 1003 861 931 944 974 907 l 940 813 b 834 904 916 850 881 880 b 675 940 787 928 734 940 b 320 779 534 940 416 887 b 176 407 224 672 176 548 b 270 146 176 301 208 214 b 538 43 333 77 422 43 b 825 111 652 43 748 66 l 882 439 l 643 439 l 656 506 l 971 506 l 894 67 b 533 -26 790 5 669 -26 m 436 -321 l 374 -321 l 508 -62 l 588 -62 "},"ģ":{"ha":867,"x_min":0,"x_max":0,"o":"m 617 139 b 506 33 589 94 552 59 b 357 -6 460 7 411 -6 b 147 74 268 -6 198 21 b 69 279 95 128 69 196 b 176 551 69 386 105 476 b 443 664 247 626 336 664 b 589 624 497 664 545 650 b 679 515 632 597 663 561 l 683 515 l 707 647 l 779 647 l 668 14 b 645 -85 662 -23 654 -56 b 604 -178 636 -115 623 -146 b 539 -260 586 -211 564 -239 b 440 -315 514 -282 481 -300 b 299 -337 398 -330 351 -337 b 131 -303 238 -337 181 -326 b 8 -210 80 -281 39 -250 l 53 -161 b 303 -272 117 -235 200 -272 b 503 -194 392 -272 459 -246 b 596 15 548 -143 579 -73 l 619 139 m 368 57 b 579 153 452 57 523 89 b 664 379 636 217 664 292 b 603 538 664 442 644 495 b 442 601 562 580 508 601 b 227 510 354 601 282 571 b 144 278 172 449 144 371 b 203 120 144 215 164 162 b 368 57 243 78 298 57 m 574 1042 l 636 1042 l 501 783 l 422 783 "},"Ĥ":{"ha":989,"x_min":0,"x_max":0,"o":"m 704 0 l 788 475 l 228 475 l 144 0 l 67 0 l 240 983 l 318 983 l 240 546 l 800 546 l 878 983 l 956 983 l 782 0 m 693 1261 l 804 1061 l 735 1061 l 643 1221 l 494 1061 l 417 1061 l 603 1261 "},"ĥ":{"ha":797,"x_min":0,"x_max":0,"o":"m 231 521 b 329 625 255 564 288 599 b 464 664 371 651 416 664 b 619 606 531 664 583 645 b 674 443 656 568 674 513 b 665 358 674 417 671 389 l 601 0 l 528 0 l 593 365 b 600 433 598 391 600 414 b 562 556 600 485 587 526 b 449 601 536 586 499 601 b 287 531 388 601 334 578 b 193 329 240 483 209 416 l 135 0 l 61 0 l 246 1050 l 319 1050 l 228 521 m 593 1306 l 704 1106 l 635 1106 l 543 1265 l 394 1106 l 317 1106 l 503 1306 "},"Ħ":{"ha":989,"x_min":0,"x_max":0,"o":"m 704 0 l 788 475 l 228 475 l 144 0 l 67 0 l 240 983 l 318 983 l 276 750 l 836 750 l 878 983 l 956 983 l 782 0 m 800 546 l 826 694 l 267 694 l 240 546 "},"ħ":{"ha":797,"x_min":0,"x_max":0,"o":"m 231 521 b 329 626 256 566 288 601 b 463 664 370 651 414 664 b 622 608 530 664 583 645 b 679 463 660 571 679 523 b 671 393 679 450 676 426 l 601 0 l 528 0 l 593 365 b 600 444 596 382 598 408 b 444 601 600 549 548 601 b 286 531 385 601 332 578 b 193 329 240 483 209 416 l 135 0 l 61 0 l 200 792 l 121 792 l 131 847 l 210 847 l 246 1050 l 319 1050 l 285 847 l 529 847 l 519 792 l 274 792 l 228 521 "},"Ĩ":{"ha":350,"x_min":0,"x_max":0,"o":"m 67 0 l 240 983 l 318 983 l 144 0 m 314 1182 b 399 1150 352 1161 380 1150 b 475 1218 431 1150 456 1173 l 524 1218 b 388 1089 494 1132 449 1089 b 296 1122 367 1089 337 1100 b 211 1154 255 1143 227 1154 b 135 1085 178 1154 152 1131 l 86 1085 b 222 1215 115 1172 160 1215 b 314 1182 245 1215 276 1204 "},"ĩ":{"ha":338,"x_min":0,"x_max":0,"o":"m 61 0 l 176 647 l 250 647 l 136 0 m 260 904 b 344 872 298 883 326 872 b 421 940 377 872 402 895 l 469 940 b 333 811 440 854 394 811 b 242 844 313 811 282 822 b 157 876 201 866 173 876 b 81 807 124 876 98 853 l 32 807 b 168 938 61 894 106 938 b 260 904 191 938 222 926 "},"Ī":{"ha":350,"x_min":0,"x_max":0,"o":"m 67 0 l 240 983 l 318 983 l 144 0 m 118 1119 l 128 1181 l 488 1181 l 476 1119 "},"ī":{"ha":338,"x_min":0,"x_max":0,"o":"m 61 0 l 176 647 l 250 647 l 136 0 m 63 842 l 72 903 l 432 903 l 421 842 "},"Ĭ":{"ha":350,"x_min":0,"x_max":0,"o":"m 67 0 l 240 983 l 318 983 l 144 0 m 521 1257 b 444 1126 510 1202 484 1159 b 303 1076 405 1093 357 1076 b 175 1123 248 1076 206 1092 b 129 1257 144 1154 129 1199 l 179 1257 b 304 1138 179 1177 221 1138 b 411 1167 346 1138 381 1147 b 471 1257 441 1187 461 1217 l 521 1257 "},"ĭ":{"ha":338,"x_min":0,"x_max":0,"o":"m 61 0 l 176 647 l 250 647 l 136 0 m 467 979 b 390 848 456 925 430 881 b 249 799 350 815 303 799 b 121 845 194 799 151 814 b 75 979 90 876 75 921 l 125 979 b 250 860 125 900 167 860 b 357 890 292 860 327 870 b 417 979 387 909 406 939 l 467 979 "},"Į":{"ha":350,"x_min":0,"x_max":0,"o":"m 38 -310 b -40 -286 7 -310 -19 -302 b -72 -217 -62 -270 -72 -247 b 88 0 -72 -151 -19 -79 l 67 0 l 240 983 l 318 983 l 143 0 b 33 -110 93 -43 56 -79 b -3 -196 9 -140 -3 -169 b 61 -250 -3 -232 19 -250 b 146 -217 94 -250 122 -239 l 161 -261 b 38 -310 121 -294 80 -310 "},"į":{"ha":338,"x_min":0,"x_max":0,"o":"m 150 -261 b 26 -310 112 -294 71 -310 b -51 -286 -4 -310 -30 -302 b -82 -217 -72 -270 -82 -247 b -40 -107 -82 -178 -68 -141 b 78 0 -11 -73 28 -37 l 61 0 l 176 647 l 250 647 l 136 0 l 133 0 b 22 -111 82 -44 45 -81 b -12 -196 -1 -141 -12 -169 b 51 -250 -12 -232 9 -250 b 136 -217 84 -250 112 -239 m 250 849 b 213 863 235 849 223 853 b 197 901 202 873 197 886 b 214 944 197 918 203 932 b 254 961 225 955 238 961 b 292 947 269 961 281 956 b 307 907 302 937 307 924 b 290 866 307 891 301 878 b 250 849 279 854 266 849 "},"İ":{"ha":350,"x_min":0,"x_max":0,"o":"m 67 0 l 240 983 l 318 983 l 144 0 m 306 1126 b 268 1141 291 1126 278 1131 b 253 1179 258 1151 253 1163 b 269 1222 253 1196 258 1210 b 310 1239 281 1233 294 1239 b 347 1224 325 1239 337 1234 b 363 1185 357 1215 363 1201 b 346 1144 363 1169 357 1155 b 306 1126 335 1132 321 1126 "},"ı":{"ha":338,"x_min":0,"x_max":0,"o":"m 61 0 l 176 647 l 250 647 l 136 0 "},"Ĳ":{"ha":1015,"x_min":0,"x_max":0,"o":"m 67 0 l 240 983 l 318 983 l 144 0 m 867 279 b 838 169 859 238 850 201 b 789 74 827 138 810 106 b 702 1 768 42 739 18 b 574 -25 666 -16 623 -25 b 414 26 508 -25 455 -8 b 339 156 373 61 348 104 l 408 179 b 463 81 417 139 435 107 b 571 43 491 56 527 43 b 720 107 638 43 688 64 b 789 285 752 150 775 209 l 913 983 l 990 983 l 867 279 "},"ĳ":{"ha":690,"x_min":0,"x_max":0,"o":"m 61 0 l 176 647 l 250 647 l 136 0 m 250 849 b 213 863 235 849 223 853 b 197 901 202 873 197 886 b 214 944 197 918 203 932 b 254 961 225 955 238 961 b 292 947 269 961 281 956 b 307 907 302 937 307 924 b 290 866 307 891 301 878 b 250 849 279 854 266 849 m 467 -131 b 408 -279 456 -194 436 -243 b 269 -333 379 -315 333 -333 b 203 -325 241 -333 219 -331 l 218 -262 b 269 -269 235 -267 252 -269 b 356 -231 310 -269 339 -257 b 394 -121 373 -206 386 -169 l 529 647 l 604 647 l 467 -131 m 603 849 b 565 863 588 849 575 853 b 550 901 555 873 550 886 b 567 944 550 918 556 932 b 607 961 578 955 591 961 b 644 947 622 961 634 956 b 658 907 653 937 658 924 b 642 866 658 891 653 878 b 603 849 631 854 618 849 "},"Ĵ":{"ha":668,"x_min":0,"x_max":0,"o":"m 519 279 b 491 169 512 238 503 201 b 442 74 479 138 463 106 b 357 1 422 42 393 18 b 229 -25 321 -16 278 -25 b 69 26 163 -25 110 -8 b -7 156 28 61 2 104 l 58 178 b 229 43 84 88 141 43 b 374 108 294 43 342 65 b 443 285 406 151 429 210 l 565 983 l 644 983 m 697 1261 l 808 1061 l 739 1061 l 647 1221 l 499 1061 l 421 1061 l 607 1261 "},"ĵ":{"ha":339,"x_min":0,"x_max":0,"o":"m 114 -131 b 56 -279 103 -194 83 -243 b -82 -333 28 -315 -18 -333 b -149 -325 -112 -333 -134 -331 l -135 -262 b -83 -269 -118 -267 -101 -269 b 3 -232 -43 -269 -14 -257 b 42 -121 19 -207 32 -170 l 178 647 l 251 647 l 114 -131 m 313 983 l 424 783 l 354 783 l 263 943 l 114 783 l 36 783 l 222 983 "},"Ķ":{"ha":789,"x_min":0,"x_max":0,"o":"m 242 540 l 756 983 l 869 983 l 328 528 l 743 0 l 642 0 l 238 525 l 144 0 l 67 0 l 240 983 l 318 983 l 240 540 m 279 -321 l 217 -321 l 351 -62 l 431 -62 "},"ķ":{"ha":656,"x_min":0,"x_max":0,"o":"m 201 354 l 547 647 l 653 647 l 286 346 l 589 0 l 492 0 l 201 340 l 197 340 l 138 0 l 63 0 l 247 1050 l 322 1050 l 199 354 m 210 -322 l 147 -322 l 282 -64 l 361 -64 "},"ĸ":{"ha":656,"x_min":0,"x_max":0,"o":"m 199 354 l 203 354 l 549 647 l 653 647 l 286 346 l 589 0 l 490 0 l 200 340 l 197 340 l 138 0 l 63 0 l 176 647 l 250 647 "},"Ĺ":{"ha":703,"x_min":0,"x_max":0,"o":"m 67 0 l 240 983 l 318 983 l 156 69 l 625 69 l 613 0 m 314 1061 l 251 1061 l 426 1261 l 524 1261 "},"ĺ":{"ha":339,"x_min":0,"x_max":0,"o":"m 63 0 l 247 1050 l 322 1050 l 138 0 m 315 1100 l 253 1100 l 428 1300 l 525 1300 "},"Ļ":{"ha":703,"x_min":0,"x_max":0,"o":"m 67 0 l 240 983 l 318 983 l 156 69 l 625 69 l 613 0 m 243 -321 l 181 -321 l 315 -62 l 394 -62 "},"ļ":{"ha":339,"x_min":0,"x_max":0,"o":"m 63 0 l 247 1050 l 322 1050 l 138 0 m 14 -322 l -49 -322 l 86 -64 l 165 -64 "},"Ľ":{"ha":703,"x_min":0,"x_max":0,"o":"m 240 983 l 318 983 l 156 69 l 625 69 l 613 0 l 67 0 m 549 983 l 626 983 l 475 725 l 413 725 "},"ľ":{"ha":393,"x_min":0,"x_max":0,"o":"m 63 0 l 247 1050 l 322 1050 l 138 0 m 421 725 l 358 725 l 493 983 l 572 983 "},"Ŀ":{"ha":703,"x_min":0,"x_max":0,"o":"m 67 0 l 240 983 l 318 983 l 156 69 l 625 69 l 613 0 m 467 404 b 429 419 452 404 439 409 b 414 457 419 428 414 441 b 431 499 414 474 419 488 b 471 517 442 511 455 517 b 508 502 486 517 498 512 b 524 463 519 492 524 479 b 507 422 524 447 518 433 b 467 404 496 410 482 404 "},"ŀ":{"ha":408,"x_min":0,"x_max":0,"o":"m 63 0 l 247 1050 l 322 1050 l 138 0 m 382 585 b 344 599 367 585 355 590 b 329 638 334 609 329 622 b 346 680 329 654 335 668 b 386 697 357 691 370 697 b 424 683 401 697 413 692 b 439 643 434 673 439 660 b 422 602 439 627 433 614 b 382 585 411 591 398 585 "},"Ł":{"ha":703,"x_min":0,"x_max":0,"o":"m 3 250 l 18 329 l 140 422 l 240 983 l 319 983 l 231 478 l 572 736 l 558 658 l 215 399 l 158 71 l 625 71 l 613 0 l 67 0 l 126 343 "},"ł":{"ha":339,"x_min":0,"x_max":0,"o":"m 24 367 l 38 449 l 163 554 l 249 1050 l 322 1050 l 247 614 l 375 722 l 360 642 l 232 533 l 138 0 l 64 0 l 147 472 "},"Ń":{"ha":1042,"x_min":0,"x_max":0,"o":"m 736 0 l 304 882 l 300 882 l 146 0 l 67 0 l 240 983 l 340 983 l 774 110 l 776 110 l 931 983 l 1010 983 l 836 0 m 629 1061 l 567 1061 l 742 1261 l 839 1261 "},"ń":{"ha":797,"x_min":0,"x_max":0,"o":"m 226 518 b 327 624 250 562 284 597 b 464 664 370 650 416 664 b 619 606 531 664 583 645 b 674 443 656 568 674 513 b 665 358 674 417 671 389 l 601 0 l 528 0 l 593 365 b 600 433 598 391 600 414 b 562 556 600 485 587 526 b 449 601 536 586 499 601 b 287 531 388 601 334 578 b 193 329 240 483 209 416 l 135 0 l 61 0 l 149 499 b 169 647 161 574 168 623 l 242 647 b 224 518 234 586 228 543 m 447 783 l 385 783 l 560 983 l 657 983 "},"Ņ":{"ha":1042,"x_min":0,"x_max":0,"o":"m 736 0 l 304 882 l 300 882 l 146 0 l 67 0 l 240 983 l 340 983 l 774 110 l 776 110 l 931 983 l 1010 983 l 836 0 m 354 -321 l 292 -321 l 426 -62 l 506 -62 "},"ņ":{"ha":797,"x_min":0,"x_max":0,"o":"m 226 518 b 327 624 250 562 284 597 b 464 664 370 650 416 664 b 619 606 531 664 583 645 b 674 443 656 568 674 513 b 665 358 674 417 671 389 l 601 0 l 528 0 l 593 365 b 600 433 598 391 600 414 b 562 556 600 485 587 526 b 449 601 536 586 499 601 b 287 531 388 601 334 578 b 193 329 240 483 209 416 l 135 0 l 61 0 l 149 499 b 169 647 161 574 168 623 l 242 647 b 224 518 234 586 228 543 m 238 -321 l 175 -321 l 310 -62 l 389 -62 "},"Ň":{"ha":1042,"x_min":0,"x_max":0,"o":"m 736 0 l 304 882 l 300 882 l 146 0 l 67 0 l 240 983 l 340 983 l 774 110 l 776 110 l 931 983 l 1010 983 l 836 0 m 583 1061 l 472 1261 l 542 1261 l 632 1101 l 782 1261 l 858 1261 l 674 1061 "},"ň":{"ha":797,"x_min":0,"x_max":0,"o":"m 226 518 b 327 624 250 562 284 597 b 464 664 370 650 416 664 b 619 606 531 664 583 645 b 674 443 656 568 674 513 b 665 358 674 417 671 389 l 601 0 l 528 0 l 593 365 b 600 433 598 391 600 414 b 562 556 600 485 587 526 b 449 601 536 586 499 601 b 287 531 388 601 334 578 b 193 329 240 483 209 416 l 135 0 l 61 0 l 149 499 b 169 647 161 574 168 623 l 242 647 b 224 518 234 586 228 543 m 404 783 l 293 983 l 363 983 l 453 824 l 603 983 l 679 983 l 494 783 "},"ŉ":{"ha":797,"x_min":0,"x_max":0,"o":"m 226 518 b 327 624 250 562 284 597 b 464 664 370 650 416 664 b 619 606 531 664 583 645 b 674 443 656 568 674 513 b 665 358 674 417 671 389 l 601 0 l 528 0 l 593 365 b 600 433 598 391 600 414 b 562 556 600 485 587 526 b 449 601 536 586 499 601 b 287 531 388 601 334 578 b 193 329 240 483 209 416 l 135 0 l 61 0 l 149 499 b 169 647 161 574 168 623 l 242 647 b 224 518 234 586 228 543 m 179 725 l 117 725 l 251 983 l 331 983 "},"Ŋ":{"ha":1042,"x_min":0,"x_max":0,"o":"m 240 983 l 340 983 l 778 126 l 781 126 l 931 983 l 1010 983 l 813 -131 b 753 -278 801 -193 781 -242 b 615 -333 724 -315 678 -333 b 549 -325 586 -333 563 -331 l 563 -262 b 614 -269 579 -267 596 -269 b 701 -233 656 -269 684 -257 b 739 -121 717 -208 730 -171 l 758 -14 l 304 882 l 300 882 l 146 0 l 67 0 "},"ŋ":{"ha":797,"x_min":0,"x_max":0,"o":"m 331 -262 b 382 -269 347 -267 364 -269 b 468 -232 423 -269 451 -257 b 507 -121 485 -207 498 -170 l 593 365 b 600 444 596 382 598 408 b 446 601 600 549 549 601 b 288 530 388 601 335 578 b 193 329 240 482 209 415 l 135 0 l 61 0 l 149 499 b 169 647 161 574 168 623 l 242 647 b 224 518 234 586 228 543 l 226 518 b 328 626 252 564 286 600 b 461 664 369 651 414 664 b 622 608 530 664 583 645 b 679 463 660 571 679 523 b 671 393 679 450 676 426 l 579 -131 b 520 -279 568 -194 548 -243 b 382 -333 492 -315 446 -333 b 315 -325 353 -333 331 -331 "},"Ō":{"ha":1174,"x_min":0,"x_max":0,"o":"m 1019 576 b 926 838 1019 682 988 769 b 661 940 863 906 775 940 b 313 780 520 940 404 887 b 176 407 222 673 176 549 b 271 146 176 301 208 214 b 536 43 334 77 422 43 b 788 119 629 43 713 68 b 960 316 863 169 920 235 b 1019 576 1000 397 1019 484 m 94 401 b 258 832 94 570 149 713 b 664 1010 366 950 502 1010 b 983 892 797 1010 904 970 b 1103 583 1063 813 1103 710 b 1031 279 1103 473 1079 372 b 827 57 982 187 915 112 b 533 -26 740 1 642 -26 b 214 92 400 -26 294 13 b 94 401 134 170 94 274 m 524 1119 l 533 1181 l 893 1181 l 882 1119 "},"ō":{"ha":829,"x_min":0,"x_max":0,"o":"m 660 378 b 599 538 660 443 640 496 b 433 601 559 580 504 601 b 221 503 348 601 277 569 b 136 269 164 438 136 360 b 195 109 136 205 156 151 b 360 46 234 67 289 46 b 575 144 447 46 519 78 b 660 378 631 209 660 287 m 58 265 b 165 547 58 375 94 469 b 439 664 237 625 328 664 b 654 585 529 664 600 638 b 735 382 708 533 735 465 b 628 99 735 271 699 176 b 356 -18 558 21 467 -18 b 140 61 266 -18 194 8 b 58 265 85 114 58 182 m 304 842 l 314 903 l 674 903 l 663 842 "},"Ŏ":{"ha":1174,"x_min":0,"x_max":0,"o":"m 1019 576 b 926 838 1019 682 988 769 b 661 940 863 906 775 940 b 313 780 520 940 404 887 b 176 407 222 673 176 549 b 271 146 176 301 208 214 b 536 43 334 77 422 43 b 788 119 629 43 713 68 b 960 316 863 169 920 235 b 1019 576 1000 397 1019 484 m 94 401 b 258 832 94 570 149 713 b 664 1010 366 950 502 1010 b 983 892 797 1010 904 970 b 1103 583 1063 813 1103 710 b 1031 279 1103 473 1079 372 b 827 57 982 187 915 112 b 533 -26 740 1 642 -26 b 214 92 400 -26 294 13 b 94 401 134 170 94 274 m 907 1257 b 831 1126 896 1202 870 1159 b 689 1076 791 1093 744 1076 b 561 1123 634 1076 592 1092 b 515 1257 531 1154 515 1199 l 565 1257 b 690 1138 565 1177 607 1138 b 797 1167 732 1138 768 1147 b 857 1257 827 1187 847 1217 l 907 1257 "},"ŏ":{"ha":829,"x_min":0,"x_max":0,"o":"m 660 378 b 599 538 660 443 640 496 b 433 601 559 580 504 601 b 221 503 348 601 277 569 b 136 269 164 438 136 360 b 195 109 136 205 156 151 b 360 46 234 67 289 46 b 575 144 447 46 519 78 b 660 378 631 209 660 287 m 58 265 b 165 547 58 375 94 469 b 439 664 237 625 328 664 b 654 585 529 664 600 638 b 735 382 708 533 735 465 b 628 99 735 271 699 176 b 356 -18 558 21 467 -18 b 140 61 266 -18 194 8 b 58 265 85 114 58 182 m 686 979 b 610 848 675 925 650 881 b 468 799 570 815 523 799 b 340 845 413 799 371 814 b 294 979 310 876 294 921 l 344 979 b 469 860 344 900 386 860 b 576 890 511 860 547 870 b 636 979 606 909 626 939 l 686 979 "},"Ő":{"ha":1174,"x_min":0,"x_max":0,"o":"m 1019 576 b 926 838 1019 682 988 769 b 661 940 863 906 775 940 b 313 780 520 940 404 887 b 176 407 222 673 176 549 b 271 146 176 301 208 214 b 536 43 334 77 422 43 b 788 119 629 43 713 68 b 960 316 863 169 920 235 b 1019 576 1000 397 1019 484 m 94 401 b 258 832 94 570 149 713 b 664 1010 366 950 502 1010 b 983 892 797 1010 904 970 b 1103 583 1063 813 1103 710 b 1031 279 1103 473 1079 372 b 827 57 982 187 915 112 b 533 -26 740 1 642 -26 b 214 92 400 -26 294 13 b 94 401 134 170 94 274 m 711 1261 l 811 1261 l 600 1061 l 535 1061 m 926 1261 l 1026 1261 l 817 1061 l 751 1061 "},"ő":{"ha":829,"x_min":0,"x_max":0,"o":"m 660 378 b 599 538 660 443 640 496 b 433 601 559 580 504 601 b 221 503 348 601 277 569 b 136 269 164 438 136 360 b 195 109 136 205 156 151 b 360 46 234 67 289 46 b 575 144 447 46 519 78 b 660 378 631 209 660 287 m 58 265 b 165 547 58 375 94 469 b 439 664 237 625 328 664 b 654 585 529 664 600 638 b 735 382 708 533 735 465 b 628 99 735 271 699 176 b 356 -18 558 21 467 -18 b 140 61 266 -18 194 8 b 58 265 85 114 58 182 m 493 983 l 593 983 l 382 783 l 317 783 m 708 983 l 808 983 l 599 783 l 533 783 "},"Ŕ":{"ha":831,"x_min":0,"x_max":0,"o":"m 629 0 l 418 471 l 228 471 l 144 0 l 67 0 l 240 983 l 494 983 b 708 927 581 983 653 965 b 792 757 764 890 792 833 b 709 555 792 666 764 599 b 499 476 654 511 584 485 l 718 0 m 713 747 b 650 874 713 804 692 846 b 481 917 608 903 552 917 l 306 917 l 239 538 l 428 538 b 713 747 618 538 713 607 m 501 1061 l 439 1061 l 614 1261 l 711 1261 "},"ŕ":{"ha":467,"x_min":0,"x_max":0,"o":"m 226 518 b 323 626 251 564 284 600 b 451 664 362 651 405 664 b 501 658 471 664 488 662 l 485 589 b 433 594 472 593 455 594 b 280 524 374 594 323 571 b 193 332 237 478 208 413 l 135 0 l 61 0 l 149 499 b 169 647 161 574 168 623 l 240 647 b 224 518 238 615 232 572 l 226 518 m 278 783 l 215 783 l 390 983 l 488 983 "},"Ŗ":{"ha":831,"x_min":0,"x_max":0,"o":"m 629 0 l 418 471 l 228 471 l 144 0 l 67 0 l 240 983 l 494 983 b 708 927 581 983 653 965 b 792 757 764 890 792 833 b 709 555 792 666 764 599 b 499 476 654 511 584 485 l 718 0 m 713 747 b 650 874 713 804 692 846 b 481 917 608 903 552 917 l 306 917 l 239 538 l 428 538 b 713 747 618 538 713 607 m 264 -322 l 201 -322 l 336 -64 l 415 -64 "},"ŗ":{"ha":467,"x_min":0,"x_max":0,"o":"m 226 518 b 323 626 251 564 284 600 b 451 664 362 651 405 664 b 501 658 471 664 488 662 l 485 589 b 433 594 472 593 455 594 b 280 524 374 594 323 571 b 193 332 237 478 208 413 l 135 0 l 61 0 l 149 499 b 169 647 161 574 168 623 l 240 647 b 224 518 238 615 232 572 l 226 518 m 11 -322 l -51 -322 l 83 -64 l 163 -64 "},"Ř":{"ha":831,"x_min":0,"x_max":0,"o":"m 629 0 l 418 471 l 228 471 l 144 0 l 67 0 l 240 983 l 494 983 b 708 927 581 983 653 965 b 792 757 764 890 792 833 b 709 555 792 666 764 599 b 499 476 654 511 584 485 l 718 0 m 713 747 b 650 874 713 804 692 846 b 481 917 608 903 552 917 l 306 917 l 239 538 l 428 538 b 713 747 618 538 713 607 m 453 1061 l 342 1261 l 411 1261 l 501 1101 l 651 1261 l 728 1261 l 543 1061 "},"ř":{"ha":467,"x_min":0,"x_max":0,"o":"m 226 518 b 323 626 251 564 284 600 b 451 664 362 651 405 664 b 501 658 471 664 488 662 l 485 589 b 433 594 472 593 455 594 b 280 524 374 594 323 571 b 193 332 237 478 208 413 l 135 0 l 61 0 l 149 499 b 169 647 161 574 168 623 l 240 647 b 224 518 238 615 232 572 l 226 518 m 296 783 l 185 983 l 254 983 l 344 824 l 494 983 l 571 983 l 386 783 "},"Ś":{"ha":786,"x_min":0,"x_max":0,"o":"m 704 846 b 492 940 654 909 583 940 b 313 885 425 940 365 922 b 233 728 260 849 233 796 b 258 644 233 696 241 669 b 321 586 274 620 295 601 b 407 544 347 571 375 557 b 501 503 438 531 470 518 b 588 455 533 489 562 473 b 651 383 613 437 634 413 b 675 281 667 354 675 319 b 654 170 675 243 668 206 b 593 72 640 134 620 102 b 483 1 566 43 530 19 b 325 -26 437 -17 384 -26 b 153 11 263 -26 206 -14 b 32 115 100 36 60 71 l 92 160 b 331 43 148 82 228 43 b 517 105 405 43 467 64 b 592 268 567 146 592 200 b 546 381 592 313 576 351 b 435 450 515 410 478 433 b 306 503 392 467 349 484 b 196 584 263 521 226 548 b 150 718 165 620 150 664 b 247 928 150 804 182 874 b 496 1010 311 983 394 1010 b 661 978 560 1010 615 999 b 764 893 707 956 742 928 m 494 1061 l 432 1061 l 607 1261 l 704 1261 "},"ś":{"ha":599,"x_min":0,"x_max":0,"o":"m 64 136 b 251 47 110 77 173 47 b 370 81 299 47 338 58 b 418 174 402 103 418 134 b 384 252 418 207 407 233 b 274 306 361 271 325 289 b 144 370 216 324 173 346 b 100 475 115 395 100 430 b 172 615 100 536 124 583 b 339 664 219 648 275 664 b 467 637 386 664 429 655 b 549 567 505 619 532 595 l 493 526 b 333 601 458 576 405 601 b 219 569 289 601 251 591 b 172 481 188 548 172 519 b 202 410 172 448 182 425 b 304 365 222 395 256 380 b 448 293 370 345 418 321 b 493 182 478 265 493 228 b 421 35 493 119 469 70 b 249 -17 373 1 315 -17 b 8 90 145 -17 65 19 m 364 783 l 301 783 l 476 983 l 574 983 "},"Ŝ":{"ha":786,"x_min":0,"x_max":0,"o":"m 704 846 b 492 940 654 909 583 940 b 313 885 425 940 365 922 b 233 728 260 849 233 796 b 258 644 233 696 241 669 b 321 586 274 620 295 601 b 407 544 347 571 375 557 b 501 503 438 531 470 518 b 588 455 533 489 562 473 b 651 383 613 437 634 413 b 675 281 667 354 675 319 b 654 170 675 243 668 206 b 593 72 640 134 620 102 b 483 1 566 43 530 19 b 325 -26 437 -17 384 -26 b 153 11 263 -26 206 -14 b 32 115 100 36 60 71 l 92 160 b 331 43 148 82 228 43 b 517 105 405 43 467 64 b 592 268 567 146 592 200 b 546 381 592 313 576 351 b 435 450 515 410 478 433 b 306 503 392 467 349 484 b 196 584 263 521 226 548 b 150 718 165 620 150 664 b 247 928 150 804 182 874 b 496 1010 311 983 394 1010 b 661 978 560 1010 615 999 b 764 893 707 956 742 928 m 599 1261 l 710 1061 l 640 1061 l 549 1221 l 400 1061 l 322 1061 l 508 1261 "},"ŝ":{"ha":599,"x_min":0,"x_max":0,"o":"m 64 136 b 251 47 110 77 173 47 b 370 81 299 47 338 58 b 418 174 402 103 418 134 b 384 252 418 207 407 233 b 274 306 361 271 325 289 b 144 370 216 324 173 346 b 100 475 115 395 100 430 b 172 615 100 536 124 583 b 339 664 219 648 275 664 b 467 637 386 664 429 655 b 549 567 505 619 532 595 l 493 526 b 333 601 458 576 405 601 b 219 569 289 601 251 591 b 172 481 188 548 172 519 b 202 410 172 448 182 425 b 304 365 222 395 256 380 b 448 293 370 345 418 321 b 493 182 478 265 493 228 b 421 35 493 119 469 70 b 249 -17 373 1 315 -17 b 8 90 145 -17 65 19 m 460 983 l 571 783 l 501 783 l 410 943 l 261 783 l 183 783 l 369 983 "},"Ş":{"ha":786,"x_min":0,"x_max":0,"o":"m 276 -318 b 144 -290 225 -318 181 -309 l 165 -247 b 272 -269 194 -262 230 -269 b 348 -251 303 -269 328 -263 b 378 -197 368 -238 378 -220 b 357 -156 378 -179 371 -165 b 304 -142 343 -146 325 -142 b 231 -156 278 -142 254 -146 l 213 -137 l 303 -25 b 142 16 244 -22 191 -9 b 32 115 94 41 57 74 l 92 160 b 331 43 148 82 228 43 b 517 105 405 43 467 64 b 592 268 567 146 592 200 b 546 381 592 313 576 351 b 435 450 515 410 478 433 b 306 503 392 467 349 484 b 196 584 263 521 226 548 b 150 718 165 620 150 664 b 247 928 150 804 182 874 b 496 1010 311 983 394 1010 b 661 978 560 1010 615 999 b 764 893 707 956 742 928 l 704 846 b 492 940 654 909 583 940 b 313 885 425 940 365 922 b 233 728 260 849 233 796 b 258 644 233 696 241 669 b 321 586 274 620 295 601 b 407 544 347 571 375 557 b 501 503 438 531 470 518 b 588 455 533 489 562 473 b 651 383 613 437 634 413 b 675 281 667 354 675 319 b 593 73 675 202 648 133 b 354 -25 538 13 459 -19 l 286 -108 b 338 -101 301 -104 318 -101 b 411 -123 365 -101 390 -109 b 443 -192 432 -137 443 -160 b 393 -287 443 -234 426 -266 b 276 -318 360 -308 321 -318 "},"ş":{"ha":599,"x_min":0,"x_max":0,"o":"m 194 -318 b 63 -290 144 -318 100 -309 l 83 -247 b 190 -269 112 -262 148 -269 b 266 -251 221 -269 246 -263 b 296 -197 286 -238 296 -220 b 275 -156 296 -179 289 -165 b 222 -142 261 -146 244 -142 b 149 -156 196 -142 172 -146 l 131 -137 l 229 -17 b 8 90 134 -12 60 24 l 64 136 b 251 47 110 77 173 47 b 370 81 299 47 338 58 b 418 174 402 103 418 134 b 384 252 418 207 407 233 b 274 306 361 271 325 289 b 144 370 216 324 173 346 b 100 475 115 395 100 430 b 172 615 100 536 124 583 b 339 664 219 648 275 664 b 467 637 386 664 429 655 b 549 567 505 619 532 595 l 493 526 b 333 601 458 576 405 601 b 219 569 289 601 251 591 b 172 481 188 548 172 519 b 202 410 172 448 182 425 b 304 365 222 395 256 380 b 448 293 370 345 418 321 b 493 182 478 265 493 228 b 432 45 493 125 473 79 b 282 -14 391 11 341 -8 l 204 -108 b 256 -101 219 -104 236 -101 b 329 -123 283 -101 308 -109 b 361 -192 350 -137 361 -160 b 311 -287 361 -234 344 -266 b 194 -318 278 -308 239 -318 "},"Ţ":{"ha":746,"x_min":0,"x_max":0,"o":"m 500 914 l 338 0 l 260 0 l 421 914 l 89 914 l 101 983 l 842 983 l 829 914 m 208 -321 l 146 -321 l 281 -62 l 360 -62 "},"ţ":{"ha":421,"x_min":0,"x_max":0,"o":"m 419 585 l 244 585 l 172 178 b 167 131 169 157 167 142 b 253 53 167 79 195 53 b 329 71 284 53 310 59 l 321 7 b 224 -11 295 -5 263 -11 b 128 18 186 -11 154 -1 b 90 111 103 38 90 69 b 94 161 90 129 92 145 l 169 585 l 32 585 l 43 647 l 179 647 l 213 832 l 286 832 l 254 647 l 432 647 m 110 -321 l 47 -321 l 182 -62 l 261 -62 "},"Ť":{"ha":746,"x_min":0,"x_max":0,"o":"m 500 914 l 338 0 l 260 0 l 421 914 l 89 914 l 101 983 l 842 983 l 829 914 m 438 1061 l 326 1261 l 396 1261 l 486 1101 l 636 1261 l 713 1261 l 528 1061 "},"ť":{"ha":435,"x_min":0,"x_max":0,"o":"m 224 -11 b 128 18 186 -11 154 -1 b 90 111 103 38 90 69 b 94 161 90 129 92 145 l 169 585 l 32 585 l 43 647 l 179 647 l 213 832 l 286 832 l 254 647 l 432 647 l 419 585 l 244 585 l 172 178 b 167 131 169 157 167 142 b 253 53 167 79 195 53 b 329 71 284 53 310 59 l 321 7 b 224 -11 295 -5 263 -11 m 435 757 l 372 757 l 507 1015 l 586 1015 "},"Ŧ":{"ha":768,"x_min":0,"x_max":0,"o":"m 472 699 l 349 0 l 269 0 l 393 699 l 144 699 l 154 756 l 403 756 l 432 914 l 99 914 l 111 983 l 853 983 l 840 914 l 510 914 l 482 756 l 732 756 l 722 699 "},"ŧ":{"ha":421,"x_min":0,"x_max":0,"o":"m 224 -11 b 128 18 186 -11 154 -1 b 90 111 103 38 90 69 b 94 161 90 129 92 145 l 131 365 l 18 365 l 28 421 l 140 421 l 169 585 l 32 585 l 43 647 l 179 647 l 213 832 l 286 832 l 254 647 l 432 647 l 419 585 l 244 585 l 214 421 l 375 421 l 365 365 l 204 365 l 172 178 b 167 131 169 157 167 142 b 253 53 167 79 195 53 b 329 71 284 53 310 59 l 321 7 b 224 -11 295 -5 263 -11 "},"Ũ":{"ha":989,"x_min":0,"x_max":0,"o":"m 857 368 b 817 228 848 317 834 271 b 746 104 800 186 776 145 b 622 8 715 63 674 31 b 442 -26 570 -15 510 -26 b 202 53 338 -26 258 0 b 118 281 146 107 118 182 b 128 386 118 316 121 351 l 232 983 l 310 983 l 204 379 b 194 283 198 340 194 308 b 257 106 194 206 215 147 b 446 43 299 64 362 43 b 591 71 501 43 550 52 b 690 149 632 89 665 116 b 747 254 714 183 733 218 b 781 378 761 290 772 331 l 888 983 l 965 983 m 633 1182 b 718 1150 671 1161 700 1150 b 794 1218 750 1150 776 1173 l 843 1218 b 707 1089 813 1132 768 1089 b 615 1122 687 1089 656 1100 b 531 1154 575 1143 546 1154 b 454 1085 497 1154 472 1131 l 406 1085 b 542 1215 434 1172 480 1215 b 633 1182 565 1215 595 1204 "},"ũ":{"ha":797,"x_min":0,"x_max":0,"o":"m 300 -18 b 141 36 231 -18 178 0 b 86 194 104 72 86 125 b 94 281 86 220 89 249 l 160 647 l 233 647 l 168 281 b 161 207 163 251 161 226 b 314 46 161 100 212 46 b 474 117 373 46 426 69 b 568 318 521 164 552 231 l 626 647 l 700 647 l 613 149 b 592 0 601 90 594 41 l 519 0 b 538 128 526 56 532 99 l 535 128 b 433 21 509 82 475 47 b 300 -18 391 -5 346 -18 m 476 904 b 561 872 514 883 543 872 b 638 940 594 872 619 895 l 686 940 b 550 811 656 854 611 811 b 458 844 530 811 499 822 b 374 876 418 866 389 876 b 297 807 340 876 315 853 l 249 807 b 385 938 277 894 323 938 b 476 904 408 938 438 926 "},"Ū":{"ha":989,"x_min":0,"x_max":0,"o":"m 857 368 b 817 228 848 317 834 271 b 746 104 800 186 776 145 b 622 8 715 63 674 31 b 442 -26 570 -15 510 -26 b 202 53 338 -26 258 0 b 118 281 146 107 118 182 b 128 386 118 316 121 351 l 232 983 l 310 983 l 204 379 b 194 283 198 340 194 308 b 257 106 194 206 215 147 b 446 43 299 64 362 43 b 591 71 501 43 550 52 b 690 149 632 89 665 116 b 747 254 714 183 733 218 b 781 378 761 290 772 331 l 888 983 l 965 983 m 439 1119 l 449 1181 l 808 1181 l 797 1119 "},"ū":{"ha":797,"x_min":0,"x_max":0,"o":"m 300 -18 b 141 36 231 -18 178 0 b 86 194 104 72 86 125 b 94 281 86 220 89 249 l 160 647 l 233 647 l 168 281 b 161 207 163 251 161 226 b 314 46 161 100 212 46 b 474 117 373 46 426 69 b 568 318 521 164 552 231 l 626 647 l 700 647 l 613 149 b 592 0 601 90 594 41 l 519 0 b 538 128 526 56 532 99 l 535 128 b 433 21 509 82 475 47 b 300 -18 391 -5 346 -18 m 281 842 l 290 903 l 650 903 l 639 842 "},"Ŭ":{"ha":989,"x_min":0,"x_max":0,"o":"m 857 368 b 817 228 848 317 834 271 b 746 104 800 186 776 145 b 622 8 715 63 674 31 b 442 -26 570 -15 510 -26 b 202 53 338 -26 258 0 b 118 281 146 107 118 182 b 128 386 118 316 121 351 l 232 983 l 310 983 l 204 379 b 194 283 198 340 194 308 b 257 106 194 206 215 147 b 446 43 299 64 362 43 b 591 71 501 43 550 52 b 690 149 632 89 665 116 b 747 254 714 183 733 218 b 781 378 761 290 772 331 l 888 983 l 965 983 m 825 1257 b 749 1126 814 1202 788 1159 b 607 1076 709 1093 662 1076 b 479 1123 552 1076 510 1092 b 433 1257 449 1154 433 1199 l 483 1257 b 608 1138 483 1177 525 1138 b 715 1167 650 1138 686 1147 b 775 1257 745 1187 765 1217 l 825 1257 "},"ŭ":{"ha":797,"x_min":0,"x_max":0,"o":"m 300 -18 b 141 36 231 -18 178 0 b 86 194 104 72 86 125 b 94 281 86 220 89 249 l 160 647 l 233 647 l 168 281 b 161 207 163 251 161 226 b 314 46 161 100 212 46 b 474 117 373 46 426 69 b 568 318 521 164 552 231 l 626 647 l 700 647 l 613 149 b 592 0 601 90 594 41 l 519 0 b 538 128 526 56 532 99 l 535 128 b 433 21 509 82 475 47 b 300 -18 391 -5 346 -18 m 665 979 b 589 848 654 925 629 881 b 447 799 549 815 502 799 b 319 845 393 799 350 814 b 274 979 289 876 274 921 l 324 979 b 449 860 324 900 365 860 b 556 890 490 860 526 870 b 615 979 585 909 605 939 l 665 979 "},"Ů":{"ha":989,"x_min":0,"x_max":0,"o":"m 857 368 b 817 228 848 317 834 271 b 746 104 800 186 776 145 b 622 8 715 63 674 31 b 442 -26 570 -15 510 -26 b 202 53 338 -26 258 0 b 118 281 146 107 118 182 b 128 386 118 316 121 351 l 232 983 l 310 983 l 204 379 b 194 283 198 340 194 308 b 257 106 194 206 215 147 b 446 43 299 64 362 43 b 591 71 501 43 550 52 b 690 149 632 89 665 116 b 747 254 714 183 733 218 b 781 378 761 290 772 331 l 888 983 l 965 983 m 718 1201 b 697 1257 718 1224 711 1242 b 640 1279 683 1272 664 1279 b 565 1244 610 1279 585 1268 b 536 1161 546 1221 536 1194 b 557 1106 536 1139 543 1120 b 614 1083 571 1091 590 1083 b 688 1118 644 1083 668 1095 b 718 1201 708 1141 718 1169 m 494 1158 b 536 1268 494 1201 508 1238 b 642 1314 564 1299 599 1314 b 728 1283 678 1314 706 1304 b 760 1203 749 1263 760 1236 b 717 1093 760 1160 746 1124 b 611 1047 689 1063 654 1047 b 526 1078 576 1047 548 1058 b 494 1158 505 1099 494 1126 "},"ů":{"ha":797,"x_min":0,"x_max":0,"o":"m 300 -18 b 141 36 231 -18 178 0 b 86 194 104 72 86 125 b 94 281 86 220 89 249 l 160 647 l 233 647 l 168 281 b 161 207 163 251 161 226 b 314 46 161 100 212 46 b 474 117 373 46 426 69 b 568 318 521 164 552 231 l 626 647 l 700 647 l 613 149 b 592 0 601 90 594 41 l 519 0 b 538 128 526 56 532 99 l 535 128 b 433 21 509 82 475 47 b 300 -18 391 -5 346 -18 m 561 924 b 540 979 561 946 554 964 b 483 1001 526 994 507 1001 b 408 967 453 1001 428 990 b 379 883 389 944 379 916 b 400 828 379 861 386 843 b 457 806 414 813 433 806 b 531 840 487 806 511 817 b 561 924 551 863 561 891 m 338 881 b 379 990 338 923 351 960 b 485 1036 407 1021 442 1036 b 571 1006 521 1036 550 1026 b 603 925 592 985 603 958 b 560 815 603 882 589 846 b 454 769 532 785 497 769 b 369 801 419 769 391 780 b 338 881 348 822 338 848 "},"Ű":{"ha":989,"x_min":0,"x_max":0,"o":"m 857 368 b 817 228 848 317 834 271 b 746 104 800 186 776 145 b 622 8 715 63 674 31 b 442 -26 570 -15 510 -26 b 202 53 338 -26 258 0 b 118 281 146 107 118 182 b 128 386 118 316 121 351 l 232 983 l 310 983 l 204 379 b 194 283 198 340 194 308 b 257 106 194 206 215 147 b 446 43 299 64 362 43 b 591 71 501 43 550 52 b 690 149 632 89 665 116 b 747 254 714 183 733 218 b 781 378 761 290 772 331 l 888 983 l 965 983 m 632 1261 l 732 1261 l 521 1061 l 456 1061 m 847 1261 l 947 1261 l 738 1061 l 672 1061 "},"ű":{"ha":797,"x_min":0,"x_max":0,"o":"m 300 -18 b 141 36 231 -18 178 0 b 86 194 104 72 86 125 b 94 281 86 220 89 249 l 160 647 l 233 647 l 168 281 b 161 207 163 251 161 226 b 314 46 161 100 212 46 b 474 117 373 46 426 69 b 568 318 521 164 552 231 l 626 647 l 700 647 l 613 149 b 592 0 601 90 594 41 l 519 0 b 538 128 526 56 532 99 l 535 128 b 433 21 509 82 475 47 b 300 -18 391 -5 346 -18 m 474 983 l 574 983 l 363 783 l 297 783 m 689 983 l 789 983 l 579 783 l 514 783 "},"Ų":{"ha":989,"x_min":0,"x_max":0,"o":"m 560 -261 b 436 -310 522 -294 481 -310 b 359 -286 406 -310 380 -302 b 328 -217 338 -270 328 -247 b 453 -26 328 -156 369 -93 l 442 -26 b 197 59 332 -26 251 2 b 115 274 142 116 115 188 b 125 372 115 310 119 343 l 232 983 l 310 983 l 204 379 b 194 288 197 335 194 304 b 256 111 194 215 215 156 b 446 43 296 66 360 43 b 591 71 501 43 550 52 b 690 149 632 89 665 116 b 747 254 714 183 733 218 b 781 378 761 290 772 331 l 888 983 l 965 983 l 857 368 b 519 -19 816 138 704 8 b 426 -118 477 -58 446 -91 b 397 -196 407 -145 397 -171 b 461 -250 397 -232 419 -250 b 546 -217 494 -250 522 -239 "},"ų":{"ha":797,"x_min":0,"x_max":0,"o":"m 467 -310 b 390 -286 436 -310 410 -302 b 358 -217 369 -270 358 -247 b 401 -108 358 -178 372 -141 b 518 0 429 -74 468 -38 l 519 0 b 538 128 527 65 533 107 l 535 128 b 433 21 509 82 475 47 b 300 -18 391 -5 346 -18 b 140 38 231 -18 178 0 b 82 183 101 75 82 123 b 89 254 82 208 84 232 l 160 647 l 233 647 l 168 281 b 161 203 163 251 161 225 b 314 46 161 98 212 46 b 474 117 373 46 426 69 b 568 318 521 164 552 231 l 626 647 l 700 647 l 613 149 b 592 1 604 104 597 55 l 574 0 b 463 -111 523 -44 486 -81 b 428 -196 439 -141 428 -169 b 492 -250 428 -232 449 -250 b 576 -217 524 -250 552 -239 l 590 -261 b 467 -310 552 -294 511 -310 "},"Ŵ":{"ha":1326,"x_min":0,"x_max":0,"o":"m 936 0 l 840 0 l 761 878 l 758 878 l 322 0 l 226 0 l 131 983 l 214 983 l 293 106 l 296 106 l 728 983 l 826 983 l 907 106 l 910 106 l 1340 983 l 1424 983 m 872 1261 l 983 1061 l 914 1061 l 822 1221 l 674 1061 l 596 1061 l 782 1261 "},"ŵ":{"ha":1001,"x_min":0,"x_max":0,"o":"m 681 0 l 597 0 l 522 550 l 519 550 l 229 0 l 147 0 l 82 647 l 160 647 l 206 94 l 208 94 l 500 647 l 575 647 l 653 94 l 657 94 l 929 647 l 1010 647 m 643 983 l 754 783 l 685 783 l 593 943 l 444 783 l 367 783 l 553 983 "},"Ŷ":{"ha":756,"x_min":0,"x_max":0,"o":"m 407 425 l 332 0 l 253 0 l 329 425 l 86 983 l 178 983 l 378 492 l 781 983 l 878 983 m 572 1261 l 683 1061 l 614 1061 l 522 1221 l 374 1061 l 296 1061 l 482 1261 "},"ŷ":{"ha":649,"x_min":0,"x_max":0,"o":"m -19 -335 b -92 -325 -42 -335 -66 -331 l -81 -260 b -22 -268 -64 -265 -44 -268 b 58 -238 8 -268 35 -258 b 124 -150 80 -218 102 -189 l 207 -4 l 71 647 l 150 647 l 260 76 l 263 76 l 585 647 l 667 647 l 182 -181 b 90 -297 151 -232 121 -271 b -19 -335 60 -322 23 -335 m 471 983 l 582 783 l 513 783 l 421 943 l 272 783 l 194 783 l 381 983 "},"Ź":{"ha":804,"x_min":0,"x_max":0,"o":"m -18 0 l -6 69 l 740 914 l 165 914 l 178 983 l 851 983 l 839 913 l 93 69 l 699 69 l 686 0 m 514 1061 l 451 1061 l 626 1261 l 724 1261 "},"ź":{"ha":608,"x_min":0,"x_max":0,"o":"m -21 0 l -11 56 l 479 583 l 103 583 l 114 647 l 590 647 l 579 590 l 89 65 l 501 65 l 490 0 m 361 783 l 299 783 l 474 983 l 571 983 "},"Ż":{"ha":804,"x_min":0,"x_max":0,"o":"m -18 0 l -6 69 l 740 914 l 165 914 l 178 983 l 851 983 l 839 913 l 93 69 l 699 69 l 686 0 m 539 1126 b 501 1141 524 1126 512 1131 b 486 1179 491 1151 486 1163 b 503 1222 486 1196 492 1210 b 543 1239 514 1233 527 1239 b 581 1224 558 1239 570 1234 b 596 1185 591 1215 596 1201 b 579 1144 596 1169 590 1155 b 539 1126 568 1132 555 1126 "},"ż":{"ha":608,"x_min":0,"x_max":0,"o":"m -21 0 l -11 56 l 479 583 l 103 583 l 114 647 l 590 647 l 579 590 l 89 65 l 501 65 l 490 0 m 386 849 b 349 863 371 849 359 853 b 333 901 338 873 333 886 b 350 944 333 918 339 932 b 390 961 361 955 375 961 b 428 947 405 961 418 956 b 443 907 438 937 443 924 b 426 866 443 891 438 878 b 386 849 415 854 402 849 "},"ƒ":{"ha":797,"x_min":0,"x_max":0,"o":"m 758 910 b 685 933 736 925 712 933 b 525 774 615 933 562 880 l 456 578 l 610 578 l 599 517 l 433 517 l 246 4 b 160 -140 225 -56 196 -104 b 13 -194 124 -176 75 -194 b -86 -167 -31 -194 -64 -185 l -43 -111 b 25 -128 -24 -122 -1 -128 b 119 -86 65 -128 96 -114 b 179 28 143 -58 163 -20 l 354 517 l 203 517 l 214 578 l 378 578 l 453 789 b 690 1000 503 930 582 1000 b 804 964 737 1000 775 988 "},"Ș":{"ha":786,"x_min":0,"x_max":0,"o":"m 704 846 b 492 940 654 909 583 940 b 313 885 425 940 365 922 b 233 728 260 849 233 796 b 258 644 233 696 241 669 b 321 586 274 620 295 601 b 407 544 347 571 375 557 b 501 503 438 531 470 518 b 588 455 533 489 562 473 b 651 383 613 437 634 413 b 675 281 667 354 675 319 b 654 170 675 243 668 206 b 593 72 640 134 620 102 b 483 1 566 43 530 19 b 325 -26 437 -17 384 -26 b 153 11 263 -26 206 -14 b 32 115 100 36 60 71 l 92 160 b 331 43 148 82 228 43 b 517 105 405 43 467 64 b 592 268 567 146 592 200 b 546 381 592 313 576 351 b 435 450 515 410 478 433 b 306 503 392 467 349 484 b 196 584 263 521 226 548 b 150 718 165 620 150 664 b 247 928 150 804 182 874 b 496 1010 311 983 394 1010 b 661 978 560 1010 615 999 b 764 893 707 956 742 928 m 239 -321 l 176 -321 l 311 -62 l 390 -62 "},"ș":{"ha":599,"x_min":0,"x_max":0,"o":"m 64 136 b 251 47 110 77 173 47 b 370 81 299 47 338 58 b 418 174 402 103 418 134 b 384 252 418 207 407 233 b 274 306 361 271 325 289 b 144 370 216 324 173 346 b 100 475 115 395 100 430 b 172 615 100 536 124 583 b 339 664 219 648 275 664 b 467 637 386 664 429 655 b 549 567 505 619 532 595 l 493 526 b 333 601 458 576 405 601 b 219 569 289 601 251 591 b 172 481 188 548 172 519 b 202 410 172 448 182 425 b 304 365 222 395 256 380 b 448 293 370 345 418 321 b 493 182 478 265 493 228 b 421 35 493 119 469 70 b 249 -17 373 1 315 -17 b 8 90 145 -17 65 19 m 144 -321 l 82 -321 l 217 -62 l 296 -62 "},"Ț":{"ha":746,"x_min":0,"x_max":0,"o":"m 500 914 l 338 0 l 260 0 l 421 914 l 89 914 l 101 983 l 842 983 l 829 914 m 208 -321 l 146 -321 l 281 -62 l 360 -62 "},"ț":{"ha":421,"x_min":0,"x_max":0,"o":"m 224 -11 b 128 18 186 -11 154 -1 b 90 111 103 38 90 69 b 94 161 90 129 92 145 l 169 585 l 32 585 l 43 647 l 179 647 l 213 832 l 286 832 l 254 647 l 432 647 l 419 585 l 244 585 l 172 178 b 167 131 169 157 167 142 b 253 53 167 79 195 53 b 329 71 284 53 310 59 l 321 7 b 224 -11 295 -5 263 -11 m 182 -62 l 261 -62 l 110 -321 l 47 -321 "},"ȷ":{"ha":339,"x_min":0,"x_max":0,"o":"m 114 -131 b 56 -279 103 -194 83 -243 b -82 -333 28 -315 -18 -333 b -149 -325 -112 -333 -134 -331 l -135 -262 b -83 -269 -118 -267 -101 -269 b 3 -232 -43 -269 -14 -257 b 42 -121 19 -207 32 -170 l 178 647 l 251 647 l 114 -131 "},"ˆ":{"ha":333,"x_min":0,"x_max":0,"o":"m 317 983 l 428 783 l 358 783 l 267 943 l 118 783 l 40 783 l 226 983 "},"ˇ":{"ha":333,"x_min":0,"x_max":0,"o":"m 188 783 l 76 983 l 146 983 l 236 824 l 386 983 l 463 983 l 278 783 "},"ˉ":{"ha":333,"x_min":0,"x_max":0,"o":"m 67 1119 l 76 1181 l 436 1181 l 425 1119 "},"˘":{"ha":333,"x_min":0,"x_max":0,"o":"m 467 979 b 390 848 456 925 430 881 b 249 799 350 815 303 799 b 121 845 194 799 151 814 b 75 979 90 876 75 921 l 125 979 b 250 860 125 900 167 860 b 357 890 292 860 327 870 b 417 979 387 909 406 939 l 467 979 "},"˙":{"ha":333,"x_min":0,"x_max":0,"o":"m 256 849 b 218 863 241 849 228 853 b 203 901 208 873 203 886 b 219 944 203 918 208 932 b 260 961 231 955 244 961 b 297 947 275 961 287 956 b 313 907 307 937 313 924 b 296 866 313 891 307 878 b 256 849 285 854 271 849 "},"˚":{"ha":333,"x_min":0,"x_max":0,"o":"m 350 924 b 329 979 350 946 343 964 b 272 1001 315 994 296 1001 b 197 967 242 1001 217 990 b 168 883 178 944 168 916 b 189 828 168 861 175 843 b 246 806 203 813 222 806 b 320 840 275 806 300 817 b 350 924 340 863 350 891 m 126 881 b 168 990 126 923 140 960 b 274 1036 196 1021 231 1036 b 360 1006 310 1036 338 1026 b 392 925 381 985 392 958 b 349 815 392 882 378 846 b 243 769 321 785 286 769 b 158 801 208 769 180 780 b 126 881 137 822 126 848 "},"˛":{"ha":333,"x_min":0,"x_max":0,"o":"m 175 -261 b 51 -310 137 -294 96 -310 b -26 -286 21 -310 -5 -302 b -57 -217 -47 -270 -57 -247 b -15 -107 -57 -178 -43 -141 b 103 0 14 -73 53 -37 l 158 0 b 47 -111 107 -44 70 -81 b 13 -196 24 -141 13 -169 b 76 -250 13 -232 34 -250 b 161 -217 109 -250 137 -239 "},"˜":{"ha":333,"x_min":0,"x_max":0,"o":"m 261 904 b 346 872 299 883 327 872 b 422 940 378 872 404 895 l 471 940 b 335 811 441 854 396 811 b 243 844 314 811 284 822 b 158 876 202 866 174 876 b 82 807 125 876 100 853 l 33 807 b 169 938 62 894 107 938 b 261 904 193 938 223 926 "},"˝":{"ha":333,"x_min":0,"x_max":0,"o":"m 197 983 l 297 983 l 86 783 l 21 783 m 413 983 l 513 983 l 303 783 l 238 783 "},"Δ":{"ha":925,"x_min":0,"x_max":0,"o":"m 31 0 l 418 989 l 503 989 l 897 0 m 460 915 l 131 68 l 792 68 "},"Ω":{"ha":1031,"x_min":0,"x_max":0,"o":"m 507 933 b 251 832 406 933 321 900 b 147 578 182 764 147 680 b 214 356 147 491 169 417 b 404 243 258 294 322 257 l 404 0 l 74 0 l 74 65 l 344 65 l 344 196 b 146 338 260 220 194 267 b 74 579 98 408 74 488 b 201 881 74 700 116 800 b 508 1001 287 961 389 1001 b 815 881 628 1001 730 961 b 942 581 899 801 942 701 b 870 338 942 489 918 408 b 671 196 822 267 756 220 l 671 65 l 942 65 l 942 0 l 611 0 l 611 243 b 801 357 694 258 757 296 b 868 578 846 418 868 492 b 764 832 868 680 833 764 b 507 933 694 900 609 933 "},"μ":{"ha":772,"x_min":0,"x_max":0,"o":"m 182 647 l 182 281 b 224 107 182 204 196 146 b 367 49 251 68 299 49 b 520 121 429 49 480 73 b 581 318 560 169 581 235 l 581 647 l 654 647 l 654 149 b 660 0 654 109 656 59 l 581 0 l 581 124 l 578 124 b 483 22 557 83 526 49 b 350 -18 441 -5 396 -18 b 182 46 278 -18 222 3 l 182 -317 l 110 -317 l 110 647 "},"π":{"ha":779,"x_min":0,"x_max":0,"o":"m 726 13 b 643 -8 696 -1 668 -8 b 594 1 624 -8 607 -5 b 565 21 581 7 572 13 b 550 56 559 28 554 40 b 544 97 546 71 544 85 b 543 147 543 108 543 125 l 543 581 l 218 581 l 218 0 l 147 0 l 147 581 l 49 581 l 49 647 l 719 647 l 719 581 l 614 581 l 614 136 b 625 74 614 108 618 88 b 672 54 632 61 648 54 b 726 65 691 54 709 58 l 726 13 "},"Ѐ":{"ha":810,"x_min":0,"x_max":0,"o":"m 67 0 l 240 983 l 817 983 l 804 914 l 306 914 l 240 544 l 718 544 l 707 478 l 229 478 l 157 69 l 693 69 l 681 0 m 469 1261 l 611 1061 l 547 1061 l 372 1261 "},"Ё":{"ha":810,"x_min":0,"x_max":0,"o":"m 488 1185 b 471 1142 488 1168 482 1154 b 431 1124 460 1130 446 1124 b 391 1139 415 1124 402 1129 b 375 1179 380 1149 375 1163 b 392 1222 375 1196 381 1210 b 433 1240 404 1234 418 1240 b 472 1225 449 1240 462 1235 b 488 1185 482 1215 488 1201 m 743 1185 b 726 1142 743 1168 737 1154 b 685 1124 714 1130 700 1124 b 646 1139 669 1124 656 1129 b 631 1179 636 1149 631 1163 b 647 1223 631 1197 636 1211 b 688 1240 658 1234 672 1240 b 727 1225 703 1240 716 1235 b 743 1185 738 1215 743 1201 m 240 983 l 817 983 l 804 914 l 306 914 l 240 544 l 718 544 l 707 478 l 229 478 l 157 69 l 693 69 l 681 0 l 67 0 "},"Ђ":{"ha":1071,"x_min":0,"x_max":0,"o":"m 589 -12 b 494 -6 552 -12 520 -10 l 507 65 b 593 57 533 60 562 57 b 820 124 688 57 763 79 b 906 308 877 168 906 230 b 658 507 906 441 823 507 b 421 472 568 507 488 495 l 338 0 l 260 0 l 419 914 l 88 914 l 101 983 l 842 983 l 829 914 l 499 914 l 433 543 b 674 575 512 564 592 575 b 903 503 771 575 847 551 b 986 314 958 456 986 393 b 881 68 986 204 951 122 b 589 -12 811 14 714 -12 "},"Ѓ":{"ha":676,"x_min":0,"x_max":0,"o":"m 486 1061 l 424 1061 l 599 1261 l 696 1261 m 240 983 l 772 983 l 760 914 l 306 914 l 144 0 l 67 0 "},"Є":{"ha":1001,"x_min":0,"x_max":0,"o":"m 535 -26 b 213 94 400 -26 292 14 b 94 410 134 174 94 279 b 167 709 94 518 119 618 b 370 928 216 800 284 873 b 658 1010 457 982 553 1010 b 861 969 731 1010 799 996 b 997 861 923 943 969 906 l 935 815 b 825 904 913 850 876 880 b 657 940 774 928 718 940 b 360 828 542 940 443 903 b 193 546 276 753 221 659 l 721 546 l 708 476 l 181 476 l 176 432 l 176 410 b 272 147 176 303 208 216 b 538 43 336 78 425 43 b 854 183 663 43 769 90 l 908 139 b 535 -26 811 29 687 -26 "},"Ѕ":{"ha":786,"x_min":0,"x_max":0,"o":"m 704 846 b 492 940 654 909 583 940 b 313 885 425 940 365 922 b 233 728 260 849 233 796 b 258 644 233 696 241 669 b 321 586 274 620 295 601 b 407 544 347 571 375 557 b 501 503 438 531 470 518 b 588 455 533 489 562 473 b 651 383 613 437 634 413 b 675 281 667 354 675 319 b 654 170 675 243 668 206 b 593 72 640 134 620 102 b 483 1 566 43 530 19 b 325 -26 437 -17 384 -26 b 153 11 263 -26 206 -14 b 32 115 100 36 60 71 l 92 160 b 331 43 148 82 228 43 b 517 105 405 43 467 64 b 592 268 567 146 592 200 b 546 381 592 313 576 351 b 435 450 515 410 478 433 b 306 503 392 467 349 484 b 196 584 263 521 226 548 b 150 718 165 620 150 664 b 247 928 150 804 182 874 b 496 1010 311 983 394 1010 b 661 978 560 1010 615 999 b 764 893 707 956 742 928 "},"І":{"ha":350,"x_min":0,"x_max":0,"o":"m 240 983 l 318 983 l 144 0 l 67 0 "},"Ї":{"ha":350,"x_min":0,"x_max":0,"o":"m 236 1185 b 219 1142 236 1168 230 1154 b 178 1124 207 1130 194 1124 b 140 1139 163 1124 150 1129 b 124 1179 129 1149 124 1163 b 141 1222 124 1196 129 1210 b 182 1240 153 1234 166 1240 b 221 1225 198 1240 211 1235 b 236 1185 231 1215 236 1201 m 490 1185 b 473 1142 490 1168 484 1154 b 432 1124 461 1130 448 1124 b 394 1139 417 1124 404 1129 b 378 1179 383 1149 378 1163 b 395 1222 378 1196 384 1210 b 436 1240 407 1234 420 1240 b 475 1225 452 1240 465 1235 b 490 1185 485 1215 490 1201 m 240 983 l 318 983 l 144 0 l 67 0 "},"Ј":{"ha":668,"x_min":0,"x_max":0,"o":"m 226 -25 b 68 26 162 -25 109 -8 b -7 156 27 61 2 104 l 63 179 b 117 81 71 139 89 107 b 224 43 146 56 181 43 b 373 108 290 43 340 65 b 443 285 406 151 429 210 l 565 983 l 644 983 l 519 279 b 491 169 512 238 503 201 b 442 74 479 138 463 106 b 356 1 420 42 392 18 b 226 -25 319 -16 276 -25 "},"Љ":{"ha":1494,"x_min":0,"x_max":0,"o":"m 1036 69 b 1251 130 1129 69 1200 90 b 1328 300 1302 170 1328 227 b 1099 481 1328 420 1251 481 l 910 481 l 838 69 m 997 983 l 922 550 l 1101 550 b 1327 487 1196 550 1271 529 b 1411 306 1383 445 1411 384 b 1308 81 1411 210 1377 135 b 1026 0 1240 27 1146 0 l 747 0 l 907 914 l 500 914 l 468 732 b 306 162 422 466 368 276 b 43 -10 244 47 156 -10 b -37 -1 14 -10 -12 -7 l -22 65 b 35 58 -6 61 13 58 b 251 224 124 58 196 113 b 399 767 306 334 355 515 l 436 983 "},"Њ":{"ha":1453,"x_min":0,"x_max":0,"o":"m 240 983 l 318 983 l 240 550 l 800 550 l 878 983 l 956 983 l 881 550 l 1060 550 b 1284 487 1153 550 1228 529 b 1368 306 1340 445 1368 384 b 1265 81 1368 210 1334 135 b 985 0 1197 27 1103 0 l 704 0 l 789 481 l 229 481 l 144 0 l 67 0 m 993 69 b 1209 130 1086 69 1158 90 b 1286 300 1260 170 1286 227 b 1057 481 1286 420 1210 481 l 867 481 l 794 69 "},"Ћ":{"ha":1078,"x_min":0,"x_max":0,"o":"m 421 914 l 89 914 l 101 983 l 842 983 l 829 914 l 500 914 l 435 543 b 675 575 513 564 594 575 b 944 372 855 575 944 507 b 939 310 944 349 943 328 l 883 0 l 804 0 l 860 311 b 864 356 863 327 864 342 b 665 506 864 456 798 506 b 422 474 567 506 486 495 l 338 0 l 260 0 "},"Ќ":{"ha":789,"x_min":0,"x_max":0,"o":"m 528 1061 l 465 1061 l 640 1261 l 738 1261 m 240 983 l 318 983 l 240 540 l 756 983 l 869 983 l 328 528 l 743 0 l 642 0 l 238 525 l 144 0 l 67 0 "},"Ѝ":{"ha":1014,"x_min":0,"x_max":0,"o":"m 446 1261 l 543 1261 l 685 1061 l 622 1061 m 240 983 l 318 983 l 167 128 l 169 128 l 890 983 l 982 983 l 808 0 l 731 0 l 882 864 l 879 864 l 158 0 l 67 0 "},"Ў":{"ha":840,"x_min":0,"x_max":0,"o":"m 104 -10 b 31 -3 80 -10 56 -7 l 46 72 b 110 61 63 65 84 61 b 194 88 141 61 169 70 b 275 172 219 105 246 133 l 372 306 l 124 983 l 213 983 l 431 383 l 869 983 l 961 983 l 342 140 b 231 26 304 88 267 50 b 104 -10 196 2 153 -10 m 558 1076 b 433 1122 506 1076 464 1092 b 385 1250 402 1153 386 1195 l 438 1260 b 472 1170 438 1222 449 1192 b 558 1138 494 1148 523 1138 b 658 1169 596 1138 630 1148 b 722 1260 687 1190 708 1220 l 772 1250 b 697 1122 760 1195 735 1153 b 558 1076 659 1092 613 1076 "},"Џ":{"ha":985,"x_min":0,"x_max":0,"o":"m 386 0 l 67 0 l 240 983 l 319 983 l 157 69 l 713 69 l 874 983 l 953 983 l 779 0 l 461 0 l 417 -247 l 343 -247 "},"А":{"ha":939,"x_min":0,"x_max":0,"o":"m 568 983 l 650 983 l 846 0 l 763 0 l 711 265 l 193 265 l 26 0 l -65 0 m 699 338 l 592 899 l 238 338 "},"Б":{"ha":851,"x_min":0,"x_max":0,"o":"m 240 983 l 797 983 l 786 913 l 306 913 l 242 550 l 436 550 b 660 487 530 550 604 529 b 744 306 716 445 744 384 b 642 81 744 210 710 135 b 360 0 573 27 479 0 l 67 0 m 371 69 b 586 130 463 69 535 90 b 663 300 637 170 663 227 b 433 481 663 420 586 481 l 240 481 l 157 69 "},"В":{"ha":856,"x_min":0,"x_max":0,"o":"m 240 983 l 514 983 b 713 931 591 983 657 966 b 796 769 768 895 796 842 b 736 606 796 704 776 649 b 571 518 696 563 641 534 l 571 515 b 706 446 625 507 670 484 b 761 301 743 408 761 360 b 650 77 761 203 724 128 b 357 0 576 26 478 0 l 67 0 m 361 68 b 592 126 456 68 534 88 b 681 303 651 165 681 224 b 617 434 681 359 659 403 b 451 481 575 465 520 481 l 240 481 l 157 68 m 450 547 b 636 598 522 547 584 564 b 714 754 688 632 714 684 b 652 875 714 808 693 848 b 493 915 611 902 558 915 l 306 915 l 240 547 "},"Г":{"ha":676,"x_min":0,"x_max":0,"o":"m 240 983 l 772 983 l 760 914 l 306 914 l 144 0 l 67 0 "},"Д":{"ha":1026,"x_min":0,"x_max":0,"o":"m -22 69 l 56 69 b 347 713 196 190 294 404 l 394 983 l 968 983 l 807 69 l 919 69 l 864 -247 l 789 -247 l 833 0 l 39 0 l -4 -247 l -78 -247 m 729 69 l 878 914 l 460 914 l 424 713 b 156 69 369 409 280 194 "},"Е":{"ha":804,"x_min":0,"x_max":0,"o":"m 240 983 l 817 983 l 804 914 l 306 914 l 240 544 l 718 544 l 707 478 l 229 478 l 157 69 l 693 69 l 681 0 l 67 0 "},"Ж":{"ha":1204,"x_min":0,"x_max":0,"o":"m 504 536 l 160 983 l 261 983 l 593 540 l 672 983 l 750 983 l 672 540 l 1171 983 l 1285 983 l 760 528 l 1158 0 l 1057 0 l 671 525 l 578 0 l 499 0 l 592 525 l 3 0 l -111 0 "},"З":{"ha":785,"x_min":0,"x_max":0,"o":"m 317 -25 b 133 14 248 -24 187 -11 b 11 119 80 39 39 74 l 78 164 b 173 77 97 129 129 100 b 321 43 217 54 266 43 b 515 109 395 43 459 65 b 597 290 570 153 597 213 b 528 429 597 349 574 395 b 354 481 481 463 424 481 l 292 481 l 304 550 l 365 550 b 554 607 438 550 501 569 b 633 771 607 645 633 700 b 581 892 633 820 616 860 b 443 940 545 924 500 940 b 210 838 345 940 267 906 l 157 888 b 443 1008 230 968 325 1008 b 639 945 525 1008 590 987 b 713 774 688 903 713 846 b 649 607 713 711 691 655 b 496 514 607 559 556 528 l 496 513 b 626 435 548 501 591 476 b 678 293 660 395 678 348 b 574 58 678 192 643 114 b 317 -25 505 3 419 -25 "},"И":{"ha":1014,"x_min":0,"x_max":0,"o":"m 240 983 l 318 983 l 167 128 l 169 128 l 890 983 l 982 983 l 808 0 l 731 0 l 882 864 l 879 864 l 158 0 l 67 0 "},"Й":{"ha":1014,"x_min":0,"x_max":0,"o":"m 240 983 l 318 983 l 167 128 l 169 128 l 890 983 l 982 983 l 808 0 l 731 0 l 882 864 l 879 864 l 158 0 l 67 0 m 613 1076 b 487 1122 560 1076 518 1092 b 439 1250 456 1153 440 1195 l 492 1260 b 526 1170 492 1222 503 1192 b 613 1138 548 1148 577 1138 b 713 1169 650 1138 684 1148 b 776 1260 741 1190 763 1220 l 826 1250 b 751 1122 814 1195 789 1153 b 613 1076 713 1092 667 1076 "},"К":{"ha":789,"x_min":0,"x_max":0,"o":"m 240 983 l 318 983 l 240 540 l 756 983 l 869 983 l 328 528 l 743 0 l 642 0 l 238 525 l 144 0 l 67 0 "},"Л":{"ha":1029,"x_min":0,"x_max":0,"o":"m 43 -10 b -37 -1 14 -10 -12 -7 l -22 65 b 35 58 -6 61 13 58 b 251 224 124 58 196 113 b 399 767 306 334 355 515 l 436 983 l 997 983 l 825 0 l 747 0 l 907 914 l 500 914 l 468 732 b 306 162 422 466 368 276 b 43 -10 244 47 156 -10 "},"М":{"ha":1236,"x_min":0,"x_max":0,"o":"m 240 983 l 360 983 l 569 132 l 1081 983 l 1203 983 l 1029 0 l 951 0 l 1106 879 l 1103 879 l 569 0 l 525 0 l 301 879 l 299 879 l 143 0 l 67 0 "},"Н":{"ha":989,"x_min":0,"x_max":0,"o":"m 240 983 l 318 983 l 240 546 l 800 546 l 878 983 l 956 983 l 782 0 l 704 0 l 788 475 l 228 475 l 144 0 l 67 0 "},"О":{"ha":1174,"x_min":0,"x_max":0,"o":"m 533 -26 b 214 92 400 -26 294 13 b 94 401 134 170 94 274 b 258 832 94 570 149 713 b 664 1010 366 950 502 1010 b 983 892 797 1010 904 970 b 1103 583 1063 813 1103 710 b 1031 279 1103 473 1079 372 b 827 57 982 187 915 112 b 533 -26 740 1 642 -26 m 536 43 b 788 119 629 43 713 68 b 960 316 863 169 920 235 b 1019 576 1000 397 1019 484 b 926 838 1019 682 988 769 b 661 940 863 906 775 940 b 313 780 520 940 404 887 b 176 407 222 673 176 549 b 271 146 176 301 208 214 b 536 43 334 77 422 43 "},"П":{"ha":985,"x_min":0,"x_max":0,"o":"m 240 983 l 953 983 l 779 0 l 700 0 l 863 914 l 306 914 l 144 0 l 67 0 "},"Р":{"ha":797,"x_min":0,"x_max":0,"o":"m 240 983 l 499 983 b 711 924 588 983 658 963 b 790 753 764 884 790 827 b 693 541 790 663 758 592 b 428 464 628 490 540 464 l 226 464 l 144 0 l 67 0 m 435 531 b 638 587 522 531 590 549 b 711 746 687 624 711 677 b 494 915 711 859 639 915 l 306 915 l 238 531 "},"С":{"ha":1001,"x_min":0,"x_max":0,"o":"m 535 -26 b 213 91 400 -26 292 13 b 94 399 134 169 94 272 b 264 830 94 566 151 710 b 678 1010 377 950 515 1010 b 871 970 747 1010 812 997 b 1003 861 930 944 974 907 l 932 813 b 832 904 911 850 877 880 b 675 940 787 928 734 940 b 320 779 534 940 416 887 b 176 407 224 672 176 548 b 271 146 176 301 208 214 b 538 43 334 77 423 43 b 854 183 663 43 769 90 l 910 139 b 535 -26 813 29 688 -26 "},"Т":{"ha":746,"x_min":0,"x_max":0,"o":"m 421 914 l 89 914 l 101 983 l 842 983 l 829 914 l 500 914 l 338 0 l 260 0 "},"У":{"ha":840,"x_min":0,"x_max":0,"o":"m 94 -10 b 21 -3 70 -10 46 -7 l 36 72 b 100 61 53 65 74 61 b 185 88 131 61 160 70 b 265 172 210 105 237 133 l 363 306 l 114 983 l 203 983 l 421 383 l 860 983 l 951 983 l 332 140 b 222 26 294 88 257 50 b 94 -10 186 2 144 -10 "},"Ф":{"ha":1124,"x_min":0,"x_max":0,"o":"m 465 97 b 189 208 350 107 258 144 b 85 460 119 271 85 355 b 226 792 85 597 132 708 b 611 919 321 877 449 919 l 626 1010 l 703 1010 l 686 917 b 964 807 802 907 894 871 b 1068 554 1033 743 1068 659 b 931 224 1068 417 1022 307 b 553 94 839 141 713 98 l 542 94 l 521 -26 l 444 -26 m 600 851 l 590 851 b 282 739 460 847 357 809 b 169 461 207 669 169 576 b 253 261 169 381 197 315 b 478 165 309 207 384 175 m 556 163 b 869 272 687 164 791 201 b 985 553 946 342 985 436 b 900 753 985 632 956 699 b 675 851 844 808 769 840 l 556 163 "},"Х":{"ha":839,"x_min":0,"x_max":0,"o":"m 386 517 l 153 983 l 246 983 l 443 572 l 800 983 l 903 983 l 483 508 l 738 0 l 643 0 l 426 451 l 36 0 l -71 0 "},"Ц":{"ha":1010,"x_min":0,"x_max":0,"o":"m 815 0 l 67 0 l 240 983 l 318 983 l 157 69 l 713 69 l 874 983 l 951 983 l 790 69 l 901 69 l 846 -247 l 771 -247 "},"Ч":{"ha":858,"x_min":0,"x_max":0,"o":"m 649 419 b 417 389 571 399 494 389 b 151 582 240 389 151 453 b 158 644 151 599 154 619 l 218 983 l 296 983 l 238 651 b 232 601 234 627 232 611 b 415 458 232 506 293 458 b 663 489 517 458 600 469 l 749 983 l 826 983 l 653 0 l 575 0 "},"Ш":{"ha":1453,"x_min":0,"x_max":0,"o":"m 240 983 l 318 983 l 157 69 l 631 69 l 792 983 l 869 983 l 710 69 l 1183 69 l 1343 983 l 1421 983 l 1247 0 l 67 0 "},"Щ":{"ha":1479,"x_min":0,"x_max":0,"o":"m 1285 0 l 67 0 l 240 983 l 318 983 l 157 69 l 631 69 l 792 983 l 869 983 l 708 69 l 1182 69 l 1343 983 l 1421 983 l 1260 69 l 1371 69 l 1315 -247 l 1240 -247 "},"Ъ":{"ha":935,"x_min":0,"x_max":0,"o":"m 349 914 l 89 914 l 100 983 l 439 983 l 363 550 l 542 550 b 767 487 636 550 711 529 b 851 306 823 445 851 384 b 748 81 851 210 817 135 b 467 0 679 27 585 0 l 186 0 m 475 69 b 691 130 568 69 640 90 b 768 300 742 170 768 227 b 539 481 768 420 692 481 l 349 481 l 276 69 "},"Ы":{"ha":1115,"x_min":0,"x_max":0,"o":"m 240 983 l 318 983 l 242 550 l 421 550 b 647 487 515 550 591 529 b 731 306 703 445 731 384 b 628 81 731 210 696 135 b 346 0 559 27 465 0 l 67 0 m 354 69 b 570 130 447 69 519 90 b 647 300 622 170 647 227 b 418 481 647 420 571 481 l 240 481 l 157 69 m 1004 983 l 1083 983 l 910 0 l 831 0 "},"Ь":{"ha":814,"x_min":0,"x_max":0,"o":"m 240 983 l 318 983 l 242 550 l 421 550 b 647 487 515 550 591 529 b 731 306 703 445 731 384 b 628 81 731 210 696 135 b 346 0 559 27 465 0 l 67 0 m 354 69 b 570 130 447 69 519 90 b 647 300 622 170 647 227 b 418 481 647 420 571 481 l 240 481 l 157 69 "},"Э":{"ha":1001,"x_min":0,"x_max":0,"o":"m 376 -26 b 163 13 297 -26 226 -13 b 26 122 101 40 55 76 l 89 168 b 200 79 111 133 148 103 b 376 43 252 55 311 43 b 684 172 494 43 597 86 b 838 476 772 258 823 360 l 319 476 l 332 546 l 847 546 b 758 832 847 664 817 760 b 486 940 698 904 607 940 b 171 800 360 940 255 894 l 115 844 b 490 1010 213 955 338 1010 b 813 890 626 1010 734 970 b 931 560 891 809 931 700 b 858 271 931 457 906 361 b 658 55 810 181 743 109 b 376 -26 572 1 478 -26 "},"Ю":{"ha":1447,"x_min":0,"x_max":0,"o":"m 840 -25 b 549 88 717 -25 620 13 b 442 381 477 163 442 260 b 447 476 442 416 444 448 l 229 476 l 144 0 l 67 0 l 240 983 l 318 983 l 240 546 l 461 546 b 647 876 492 678 553 788 b 978 1008 740 964 850 1008 b 1269 895 1101 1008 1198 971 b 1376 603 1341 820 1376 722 b 1312 298 1376 494 1355 393 b 1122 65 1269 203 1206 125 b 840 -25 1039 5 945 -25 m 844 43 b 1078 123 931 43 1009 70 b 1239 328 1148 176 1202 245 b 1294 596 1276 412 1294 501 b 1212 843 1294 696 1267 778 b 975 940 1157 908 1078 940 b 740 860 888 940 809 913 b 579 653 670 806 616 737 b 524 388 542 570 524 481 b 606 140 524 288 551 205 b 844 43 661 75 741 43 "},"Я":{"ha":821,"x_min":0,"x_max":0,"o":"m 351 442 b 192 521 284 455 231 481 b 133 678 153 561 133 613 b 236 902 133 773 168 848 b 517 983 305 956 398 983 l 789 983 l 615 0 l 536 0 l 613 433 l 436 433 l 93 0 l -4 0 m 625 503 l 697 914 l 506 914 b 291 853 414 914 342 894 b 214 683 240 813 214 756 b 443 503 214 563 290 503 "},"а":{"ha":732,"x_min":0,"x_max":0,"o":"m 240 -14 b 102 26 188 -14 142 0 b 42 153 62 53 42 95 b 83 276 42 202 55 243 b 199 349 110 309 149 333 b 356 383 250 366 302 377 b 540 392 409 389 471 392 b 549 461 546 419 549 442 b 388 601 549 555 495 601 b 186 525 316 601 249 576 l 151 575 b 265 640 183 602 221 623 b 396 664 310 656 353 664 b 558 616 463 664 516 648 b 619 476 599 584 619 538 b 614 406 619 453 618 430 l 567 146 b 551 0 556 93 551 44 l 485 0 b 496 119 485 38 488 78 l 493 119 b 240 -14 429 31 345 -14 m 265 46 b 435 114 333 46 390 69 b 521 278 481 159 510 214 l 531 333 l 503 333 b 118 161 246 333 118 276 b 161 72 118 119 132 90 b 265 46 190 55 225 46 "},"б":{"ha":839,"x_min":0,"x_max":0,"o":"m 368 -18 b 142 69 266 -18 191 11 b 68 294 93 128 68 203 b 76 406 68 337 71 374 b 122 624 89 491 105 563 b 192 794 140 684 163 741 b 306 921 222 848 259 890 b 471 978 352 951 407 970 l 683 1003 b 799 1065 745 1010 784 1031 l 851 1047 b 797 973 838 1014 819 989 b 697 940 774 957 741 946 l 493 915 b 274 796 400 903 326 863 b 163 500 221 728 184 630 l 167 500 b 457 664 233 609 330 664 b 669 583 547 664 617 637 b 746 371 720 530 746 459 b 639 97 746 265 710 174 b 368 -18 568 20 477 -18 m 369 46 b 583 144 456 46 527 78 b 668 378 640 209 668 287 b 608 538 668 443 648 496 b 444 601 569 580 514 601 b 234 502 362 601 292 568 b 147 267 176 436 147 357 b 206 109 147 204 167 151 b 369 46 244 67 299 46 "},"в":{"ha":746,"x_min":0,"x_max":0,"o":"m 174 647 l 461 647 b 592 613 512 647 556 636 b 647 507 629 589 647 554 b 608 399 647 463 634 428 b 500 340 582 371 546 351 l 500 339 b 589 293 535 333 565 318 b 625 199 613 268 625 237 b 551 51 625 134 600 84 b 358 0 502 17 438 0 l 61 0 m 361 65 b 497 100 417 65 462 77 b 549 203 531 123 549 157 b 511 278 549 235 536 260 b 414 306 486 297 454 306 l 174 306 l 147 65 m 415 368 b 524 399 457 368 493 378 b 569 489 554 419 569 449 b 534 560 569 520 558 544 b 442 583 510 575 480 583 l 239 583 l 201 368 "},"г":{"ha":569,"x_min":0,"x_max":0,"o":"m 174 647 l 576 647 l 565 583 l 238 583 l 135 0 l 61 0 "},"д":{"ha":831,"x_min":0,"x_max":0,"o":"m -25 65 l 49 65 b 157 233 88 107 124 163 b 231 472 190 304 215 383 l 261 647 l 710 647 l 607 65 l 713 65 l 664 -212 l 594 -212 l 632 0 l 33 0 l -4 -212 l -74 -212 m 533 65 l 625 583 l 322 583 l 300 453 b 136 65 271 284 217 155 "},"е":{"ha":781,"x_min":0,"x_max":0,"o":"m 136 308 b 133 267 134 299 133 285 b 196 108 133 202 154 149 b 358 46 238 66 292 46 b 586 156 450 46 526 82 l 635 117 b 513 18 603 75 563 42 b 353 -18 464 -6 410 -18 b 140 60 265 -18 194 8 b 58 269 85 112 58 181 b 165 547 58 377 94 469 b 429 664 237 625 325 664 b 626 594 514 664 580 641 b 696 411 673 547 696 486 b 683 308 696 372 692 338 m 618 364 b 621 415 620 386 621 403 b 570 551 621 472 604 517 b 428 601 536 584 489 601 b 242 531 355 601 293 578 b 146 364 192 483 160 428 l 618 364 "},"ж":{"ha":969,"x_min":0,"x_max":0,"o":"m 346 342 l 71 647 l 169 647 l 432 347 l 436 347 l 489 647 l 563 647 l 511 347 l 514 347 l 861 647 l 965 647 l 599 339 l 901 0 l 803 0 l 513 333 l 508 333 l 450 0 l 375 0 l 433 333 l 431 333 l 44 0 l -61 0 "},"з":{"ha":611,"x_min":0,"x_max":0,"o":"m 229 -17 b -14 96 115 -17 34 21 l 43 139 b 232 46 88 77 151 46 b 358 82 280 46 322 58 b 411 189 393 106 411 142 b 364 276 411 227 395 256 b 243 307 332 297 292 307 l 196 307 l 208 368 l 250 368 b 384 402 303 368 347 379 b 439 503 421 425 439 458 b 400 576 439 534 426 559 b 299 601 374 593 340 601 b 122 517 231 601 172 573 l 75 557 b 175 635 100 590 133 616 b 306 664 217 654 260 664 b 457 621 369 664 419 650 b 514 506 495 592 514 554 b 470 398 514 464 499 428 b 358 340 441 368 404 349 l 358 339 b 453 288 398 331 430 314 b 488 189 476 261 488 228 b 414 40 488 127 463 77 b 229 -17 365 2 303 -17 "},"и":{"ha":817,"x_min":0,"x_max":0,"o":"m 174 647 l 250 647 l 154 106 l 636 647 l 721 647 l 607 0 l 533 0 l 631 546 l 628 546 l 146 0 l 61 0 "},"й":{"ha":817,"x_min":0,"x_max":0,"o":"m 469 799 b 342 844 416 799 373 814 b 294 972 311 875 295 918 l 347 982 b 382 892 348 944 360 914 b 469 860 404 871 433 860 b 569 891 507 860 541 870 b 633 982 598 912 619 942 l 683 972 b 608 844 671 918 646 875 b 469 799 570 814 524 799 m 174 647 l 250 647 l 154 106 l 636 647 l 721 647 l 607 0 l 533 0 l 631 546 l 628 546 l 146 0 l 61 0 "},"к":{"ha":671,"x_min":0,"x_max":0,"o":"m 174 647 l 249 647 l 196 347 l 200 347 l 563 647 l 667 647 l 288 339 l 603 0 l 504 0 l 197 333 l 194 333 l 135 0 l 61 0 "},"л":{"ha":808,"x_min":0,"x_max":0,"o":"m 7 -7 b -51 0 -15 -7 -35 -5 l -37 67 b 7 60 -25 62 -11 60 b 141 147 62 60 106 89 b 226 422 176 206 204 297 l 267 647 l 706 647 l 592 0 l 518 0 l 621 583 l 328 583 l 296 399 b 194 95 272 264 238 163 b 7 -7 150 27 88 -7 "},"м":{"ha":999,"x_min":0,"x_max":0,"o":"m 174 647 l 282 647 l 442 111 l 789 647 l 901 647 l 788 0 l 714 0 l 813 560 l 810 560 l 444 0 l 403 0 l 236 560 l 233 560 l 135 0 l 61 0 "},"н":{"ha":808,"x_min":0,"x_max":0,"o":"m 174 647 l 249 647 l 200 368 l 589 368 l 638 647 l 713 647 l 599 0 l 524 0 l 578 304 l 189 304 l 135 0 l 61 0 "},"о":{"ha":829,"x_min":0,"x_max":0,"o":"m 356 -18 b 139 61 266 -18 194 8 b 57 265 84 114 57 182 b 165 547 57 375 93 469 b 439 664 236 625 328 664 b 655 585 529 664 601 638 b 736 382 709 533 736 465 b 629 99 736 271 700 176 b 356 -18 558 21 467 -18 m 360 46 b 575 144 447 46 519 78 b 660 378 631 209 660 287 b 599 538 660 443 640 496 b 433 601 559 580 504 601 b 221 503 348 601 277 569 b 136 269 164 438 136 360 b 195 109 136 205 156 151 b 360 46 234 67 289 46 "},"п":{"ha":800,"x_min":0,"x_max":0,"o":"m 174 647 l 703 647 l 589 0 l 515 0 l 617 583 l 238 583 l 135 0 l 61 0 "},"р":{"ha":871,"x_min":0,"x_max":0,"o":"m 79 -333 l 4 -333 l 178 647 l 253 647 l 229 524 l 233 524 b 338 624 256 563 291 597 b 489 664 384 650 434 664 b 700 586 579 664 649 638 b 776 382 751 534 776 466 b 672 99 776 271 741 176 b 404 -18 602 21 513 -18 b 258 22 350 -18 302 -5 b 164 131 214 49 182 85 l 161 131 m 481 601 b 268 503 397 601 326 569 b 181 269 210 437 181 359 b 242 109 181 205 201 151 b 403 46 282 67 336 46 b 618 142 491 46 563 78 b 701 378 674 207 701 285 b 643 538 701 443 682 496 b 481 601 604 580 550 601 "},"с":{"ha":685,"x_min":0,"x_max":0,"o":"m 357 -19 b 141 58 265 -19 193 6 b 63 261 89 110 63 178 b 171 547 63 373 99 468 b 447 664 243 625 335 664 b 580 638 495 664 540 655 b 671 563 620 621 650 596 l 607 518 b 542 579 593 544 572 564 b 446 601 513 594 481 601 b 228 503 359 601 286 569 b 140 268 169 437 140 359 b 199 107 140 202 160 149 b 363 44 239 65 293 44 b 560 129 442 44 508 73 l 607 86 b 357 -19 537 16 453 -19 "},"т":{"ha":601,"x_min":0,"x_max":0,"o":"m 290 583 l 57 583 l 68 647 l 608 647 l 597 583 l 364 583 l 263 0 l 188 0 "},"у":{"ha":649,"x_min":0,"x_max":0,"o":"m -19 -335 b -92 -325 -42 -335 -66 -331 l -81 -257 b -22 -268 -63 -264 -44 -268 b 58 -238 8 -268 35 -258 b 124 -150 80 -218 102 -189 l 207 -4 l 71 647 l 149 647 l 258 76 l 261 76 l 583 647 l 667 647 l 182 -181 b 90 -297 151 -232 121 -271 b -19 -335 60 -322 23 -335 "},"ф":{"ha":985,"x_min":0,"x_max":0,"o":"m 378 -18 b 142 72 277 -12 198 19 b 57 279 85 126 57 195 b 177 561 57 400 97 494 b 499 663 257 628 364 662 l 568 1057 l 642 1057 l 572 661 b 809 571 674 655 753 625 b 893 365 865 517 893 449 b 772 83 893 244 853 150 b 451 -18 692 16 585 -18 l 396 -333 l 322 -333 m 486 597 b 231 514 381 596 296 569 b 135 283 167 459 135 382 b 202 116 135 215 157 159 b 389 46 247 73 309 50 m 464 47 b 718 130 569 47 653 75 b 815 361 783 185 815 262 b 748 528 815 430 793 485 b 561 597 703 570 641 594 l 464 47 "},"х":{"ha":643,"x_min":0,"x_max":0,"o":"m 263 342 l 100 647 l 181 647 l 314 383 l 556 647 l 647 647 l 349 333 l 536 0 l 449 0 l 297 289 l 29 0 l -64 0 "},"ц":{"ha":824,"x_min":0,"x_max":0,"o":"m 625 0 l 61 0 l 174 647 l 249 647 l 146 65 l 526 65 l 628 647 l 703 647 l 600 65 l 706 65 l 657 -212 l 588 -212 "},"ч":{"ha":728,"x_min":0,"x_max":0,"o":"m 490 274 b 292 247 420 256 354 247 b 106 400 168 247 106 298 b 111 454 105 414 106 432 l 144 647 l 219 647 l 185 457 b 181 411 182 440 181 425 b 215 333 181 373 192 347 b 317 311 237 318 271 311 b 501 338 362 311 424 320 l 556 647 l 629 647 l 517 0 l 442 0 "},"ш":{"ha":1167,"x_min":0,"x_max":0,"o":"m 174 647 l 249 647 l 146 65 l 482 65 l 585 647 l 660 647 l 557 65 l 893 65 l 996 647 l 1069 647 l 956 0 l 61 0 "},"щ":{"ha":1190,"x_min":0,"x_max":0,"o":"m 992 0 l 61 0 l 174 647 l 249 647 l 146 65 l 482 65 l 585 647 l 660 647 l 557 65 l 893 65 l 996 647 l 1069 647 l 967 65 l 1072 65 l 1024 -212 l 954 -212 "},"ъ":{"ha":799,"x_min":0,"x_max":0,"o":"m 264 583 l 57 583 l 68 647 l 349 647 l 304 393 l 479 393 b 641 348 547 393 601 378 b 701 218 681 318 701 275 b 627 58 701 150 677 97 b 425 0 578 19 510 0 l 161 0 m 436 65 b 574 104 495 65 541 78 b 624 213 607 130 624 166 b 476 329 624 290 575 329 l 293 329 l 247 65 "},"ы":{"ha":961,"x_min":0,"x_max":0,"o":"m 174 647 l 249 647 l 204 393 l 365 393 b 527 348 433 393 487 378 b 588 218 567 318 588 275 b 513 58 588 150 563 97 b 311 0 464 19 396 0 l 61 0 m 322 65 b 460 104 381 65 428 78 b 510 213 493 130 510 166 b 363 329 510 290 461 329 l 193 329 l 146 65 m 789 647 l 864 647 l 750 0 l 676 0 "},"ь":{"ha":697,"x_min":0,"x_max":0,"o":"m 336 65 b 474 104 395 65 441 78 b 522 213 506 130 522 166 b 376 329 522 290 474 329 l 193 329 l 146 65 m 174 647 l 249 647 l 204 393 l 379 393 b 540 348 447 393 500 378 b 600 218 580 318 600 275 b 526 58 600 150 575 97 b 325 0 477 19 410 0 l 61 0 "},"э":{"ha":686,"x_min":0,"x_max":0,"o":"m 217 -18 b -19 83 106 -18 27 16 l 38 126 b 110 69 53 105 77 86 b 217 44 142 53 178 44 b 407 118 290 44 353 69 b 508 304 461 167 494 229 l 192 304 l 203 368 l 517 368 l 517 390 b 451 542 513 452 491 503 b 293 601 412 582 359 601 b 99 519 218 601 153 574 l 51 564 b 299 664 118 631 200 664 b 515 586 389 664 461 638 b 594 383 568 534 594 467 b 490 98 594 270 559 175 b 217 -18 420 21 329 -18 "},"ю":{"ha":1081,"x_min":0,"x_max":0,"o":"m 626 -18 b 417 63 539 -18 470 9 b 339 279 365 117 339 189 b 340 292 339 282 339 286 b 340 304 340 297 340 301 l 189 304 l 135 0 l 61 0 l 174 647 l 249 647 l 200 368 l 350 368 b 476 578 368 451 409 522 b 696 664 542 635 615 664 b 913 583 789 664 862 637 b 989 375 963 530 989 460 b 883 98 989 268 953 175 b 626 -18 812 21 726 -18 m 628 47 b 828 142 706 47 772 79 b 911 371 883 206 911 282 b 853 536 911 438 892 493 b 697 601 814 580 762 601 b 500 505 620 601 555 569 b 418 276 445 441 418 364 b 476 112 418 210 437 155 b 628 47 514 69 565 47 "},"я":{"ha":740,"x_min":0,"x_max":0,"o":"m 246 268 b 143 326 202 279 168 299 b 106 432 118 354 106 389 b 178 590 106 499 130 551 b 376 647 227 628 293 647 l 643 647 l 529 0 l 456 0 l 501 261 l 326 261 l 113 0 l 18 0 m 514 325 l 558 583 l 364 583 b 230 545 306 583 262 571 b 182 439 198 520 182 484 b 324 325 182 363 229 325 "},"ѐ":{"ha":781,"x_min":0,"x_max":0,"o":"m 136 308 b 133 267 134 299 133 285 b 196 108 133 202 154 149 b 358 46 238 66 292 46 b 586 156 450 46 526 82 l 635 117 b 513 18 603 75 563 42 b 353 -18 464 -6 410 -18 b 140 60 265 -18 194 8 b 58 269 85 112 58 181 b 165 547 58 377 94 469 b 429 664 237 625 325 664 b 626 594 514 664 580 641 b 696 411 673 547 696 486 b 683 308 696 372 692 338 m 618 364 b 621 415 620 386 621 403 b 570 551 621 472 604 517 b 428 601 536 584 489 601 b 242 531 355 601 293 578 b 146 364 192 483 160 428 l 618 364 m 368 983 l 510 783 l 446 783 l 271 983 "},"ё":{"ha":781,"x_min":0,"x_max":0,"o":"m 413 907 b 396 864 413 890 407 876 b 356 846 385 852 371 846 b 316 861 340 846 327 851 b 300 901 305 871 300 885 b 317 944 300 918 306 932 b 358 963 329 956 343 963 b 397 947 374 963 387 957 b 413 907 407 937 413 924 m 667 907 b 650 864 667 890 661 876 b 610 846 639 852 625 846 b 570 861 594 846 581 851 b 554 901 559 871 554 885 b 572 944 554 918 560 932 b 613 963 583 956 597 963 b 651 947 628 963 641 957 b 667 907 662 937 667 924 m 136 308 b 133 267 134 299 133 285 b 196 108 133 202 154 149 b 358 46 238 66 292 46 b 586 156 450 46 526 82 l 635 117 b 513 18 603 75 563 42 b 353 -18 464 -6 410 -18 b 140 60 265 -18 194 8 b 58 269 85 112 58 181 b 165 547 58 377 94 469 b 429 664 237 625 325 664 b 626 594 514 664 580 641 b 696 411 673 547 696 486 b 683 308 696 372 692 338 m 618 364 b 621 415 620 386 621 403 b 570 551 621 472 604 517 b 428 601 536 584 489 601 b 242 531 355 601 293 578 b 146 364 192 483 160 428 l 618 364 "},"ђ":{"ha":797,"x_min":0,"x_max":0,"o":"m 357 -333 b 285 -325 331 -333 307 -331 l 301 -260 b 364 -268 321 -265 342 -268 b 510 -100 441 -268 489 -212 l 593 365 b 600 444 596 382 598 408 b 444 601 600 549 548 601 b 286 531 385 601 332 578 b 193 329 240 483 209 416 l 135 0 l 61 0 l 200 796 l 79 796 l 89 853 l 211 853 l 246 1050 l 319 1050 l 285 853 l 508 853 l 499 796 l 275 796 l 228 521 l 231 521 b 329 626 256 566 288 601 b 463 664 370 651 414 664 b 622 608 530 664 583 645 b 679 463 660 571 679 523 b 671 393 679 450 676 426 l 583 -107 b 508 -273 571 -177 546 -233 b 357 -333 469 -313 419 -333 "},"ѓ":{"ha":569,"x_min":0,"x_max":0,"o":"m 372 783 l 310 783 l 485 983 l 582 983 m 174 647 l 576 647 l 565 583 l 238 583 l 135 0 l 61 0 "},"є":{"ha":686,"x_min":0,"x_max":0,"o":"m 357 -19 b 141 58 265 -19 193 6 b 63 261 89 110 63 178 b 167 547 63 373 97 468 b 440 664 237 625 328 664 b 675 564 550 664 629 631 l 618 519 b 547 577 603 542 580 561 b 442 601 515 593 480 601 b 261 535 373 601 313 579 b 153 368 209 491 173 436 l 485 368 l 474 304 l 140 304 b 139 258 139 294 139 279 b 201 103 142 194 163 143 b 363 43 240 63 294 43 b 560 129 441 43 507 72 l 608 85 b 357 -19 541 15 457 -19 "},"ѕ":{"ha":599,"x_min":0,"x_max":0,"o":"m 64 136 b 251 47 110 77 173 47 b 370 81 299 47 338 58 b 418 174 402 103 418 134 b 384 252 418 207 407 233 b 274 306 361 271 325 289 b 144 370 216 324 173 346 b 100 475 115 395 100 430 b 172 615 100 536 124 583 b 339 664 219 648 275 664 b 467 637 386 664 429 655 b 549 567 505 619 532 595 l 493 526 b 333 601 458 576 405 601 b 219 569 289 601 251 591 b 172 481 188 548 172 519 b 202 410 172 448 182 425 b 304 365 222 395 256 380 b 448 293 370 345 418 321 b 493 182 478 265 493 228 b 421 35 493 119 469 70 b 249 -17 373 1 315 -17 b 8 90 145 -17 65 19 "},"і":{"ha":338,"x_min":0,"x_max":0,"o":"m 176 647 l 250 647 l 136 0 l 61 0 m 250 849 b 213 863 235 849 223 853 b 197 901 202 873 197 886 b 214 944 197 918 203 932 b 254 961 225 955 238 961 b 292 947 269 961 281 956 b 307 907 302 937 307 924 b 290 866 307 891 301 878 b 250 849 279 854 266 849 "},"ї":{"ha":338,"x_min":0,"x_max":0,"o":"m 176 647 l 250 647 l 136 0 l 61 0 m 182 907 b 165 864 182 890 176 876 b 124 846 153 852 139 846 b 85 861 109 846 96 851 b 69 901 75 871 69 885 b 87 944 69 918 75 932 b 128 963 98 956 112 963 b 167 947 144 963 156 957 b 182 907 177 937 182 924 m 436 907 b 419 864 436 890 430 876 b 378 846 407 852 394 846 b 340 861 363 846 350 851 b 324 901 329 871 324 885 b 341 944 324 918 329 932 b 382 963 353 956 366 963 b 421 947 398 963 411 957 b 436 907 431 937 436 924 "},"ј":{"ha":339,"x_min":0,"x_max":0,"o":"m -82 -333 b -149 -325 -112 -333 -134 -331 l -135 -262 b -83 -269 -118 -267 -101 -269 b 3 -231 -43 -269 -14 -257 b 42 -119 19 -206 32 -169 l 178 647 l 251 647 l 114 -131 b 56 -279 103 -194 83 -243 b -82 -333 28 -315 -18 -333 m 250 849 b 213 863 235 849 223 853 b 197 901 202 873 197 886 b 214 944 197 918 203 932 b 254 961 225 955 238 961 b 292 947 269 961 281 956 b 307 907 302 937 307 924 b 290 866 307 891 301 878 b 250 849 279 854 266 849 "},"љ":{"ha":1154,"x_min":0,"x_max":0,"o":"m 7 -7 b -51 0 -15 -7 -35 -5 l -37 67 b 7 60 -25 62 -11 60 b 141 147 62 60 106 89 b 226 422 176 206 204 297 l 267 647 l 706 647 l 661 393 l 836 393 b 997 348 904 393 957 378 b 1057 218 1037 318 1057 275 b 983 58 1057 150 1032 97 b 781 0 933 19 866 0 l 518 0 l 621 583 l 328 583 l 296 399 b 194 95 272 264 238 163 b 7 -7 150 27 88 -7 m 792 65 b 930 104 851 65 897 78 b 979 213 963 130 979 166 b 833 329 979 290 931 329 l 649 329 l 603 65 "},"њ":{"ha":1161,"x_min":0,"x_max":0,"o":"m 174 647 l 249 647 l 203 379 l 590 379 l 638 647 l 713 647 l 667 379 l 850 379 b 1006 335 915 379 967 365 b 1064 210 1044 306 1064 264 b 992 56 1064 144 1040 93 b 797 0 945 19 880 0 l 524 0 l 579 315 l 192 315 l 135 0 l 61 0 m 810 65 b 940 102 865 65 909 78 b 986 206 971 127 986 161 b 849 315 986 279 940 315 l 656 315 l 611 65 "},"ћ":{"ha":797,"x_min":0,"x_max":0,"o":"m 200 796 l 79 796 l 89 853 l 211 853 l 246 1050 l 319 1050 l 285 853 l 508 853 l 499 796 l 275 796 l 228 521 l 231 521 b 329 626 256 566 288 601 b 463 664 370 651 414 664 b 622 608 530 664 583 645 b 679 463 660 571 679 523 b 671 393 679 450 676 426 l 601 0 l 528 0 l 593 365 b 600 444 596 382 598 408 b 444 601 600 549 548 601 b 286 531 385 601 332 578 b 193 329 240 483 209 416 l 135 0 l 61 0 "},"ќ":{"ha":671,"x_min":0,"x_max":0,"o":"m 417 783 l 354 783 l 529 983 l 626 983 m 174 647 l 249 647 l 196 347 l 200 347 l 563 647 l 667 647 l 288 339 l 603 0 l 504 0 l 197 333 l 194 333 l 135 0 l 61 0 "},"ѝ":{"ha":817,"x_min":0,"x_max":0,"o":"m 281 983 l 378 983 l 519 783 l 457 783 m 174 647 l 250 647 l 154 106 l 636 647 l 721 647 l 607 0 l 533 0 l 631 546 l 628 546 l 146 0 l 61 0 "},"ў":{"ha":649,"x_min":0,"x_max":0,"o":"m 400 799 b 273 844 346 799 304 814 b 225 972 242 875 226 918 l 278 982 b 313 892 279 944 290 914 b 400 860 335 871 364 860 b 500 891 438 860 471 870 b 564 982 529 912 550 942 l 614 972 b 539 844 602 918 577 875 b 400 799 501 814 455 799 m -19 -335 b -92 -325 -42 -335 -66 -331 l -81 -257 b -22 -268 -63 -264 -44 -268 b 58 -238 8 -268 35 -258 b 124 -150 80 -218 102 -189 l 207 -4 l 71 647 l 149 647 l 258 76 l 261 76 l 583 647 l 667 647 l 182 -181 b 90 -297 151 -232 121 -271 b -19 -335 60 -322 23 -335 "},"џ":{"ha":800,"x_min":0,"x_max":0,"o":"m 290 0 l 61 0 l 174 647 l 249 647 l 146 65 l 526 65 l 628 647 l 703 647 l 589 0 l 360 0 l 322 -212 l 253 -212 "},"Ґ":{"ha":676,"x_min":0,"x_max":0,"o":"m 240 983 l 697 983 l 733 1186 l 808 1186 l 758 914 l 306 914 l 144 0 l 67 0 "},"ґ":{"ha":569,"x_min":0,"x_max":0,"o":"m 175 647 l 507 647 l 538 819 l 607 819 l 565 583 l 239 583 l 135 0 l 61 0 "},"Ẁ":{"ha":1326,"x_min":0,"x_max":0,"o":"m 936 0 l 840 0 l 761 878 l 758 878 l 322 0 l 226 0 l 131 983 l 214 983 l 293 106 l 296 106 l 728 983 l 826 983 l 907 106 l 910 106 l 1340 983 l 1424 983 m 686 1261 l 828 1061 l 764 1061 l 589 1261 "},"ẁ":{"ha":1001,"x_min":0,"x_max":0,"o":"m 681 0 l 597 0 l 522 550 l 519 550 l 229 0 l 147 0 l 82 647 l 160 647 l 206 94 l 208 94 l 500 647 l 575 647 l 653 94 l 657 94 l 929 647 l 1010 647 m 449 983 l 590 783 l 526 783 l 351 983 "},"Ẃ":{"ha":1326,"x_min":0,"x_max":0,"o":"m 936 0 l 840 0 l 761 878 l 758 878 l 322 0 l 226 0 l 131 983 l 214 983 l 293 106 l 296 106 l 728 983 l 826 983 l 907 106 l 910 106 l 1340 983 l 1424 983 m 815 1061 l 753 1061 l 928 1261 l 1025 1261 "},"ẃ":{"ha":1001,"x_min":0,"x_max":0,"o":"m 681 0 l 597 0 l 522 550 l 519 550 l 229 0 l 147 0 l 82 647 l 160 647 l 206 94 l 208 94 l 500 647 l 575 647 l 653 94 l 657 94 l 929 647 l 1010 647 m 599 783 l 536 783 l 711 983 l 808 983 "},"Ẅ":{"ha":1326,"x_min":0,"x_max":0,"o":"m 936 0 l 840 0 l 761 878 l 758 878 l 322 0 l 226 0 l 131 983 l 214 983 l 293 106 l 296 106 l 728 983 l 826 983 l 907 106 l 910 106 l 1340 983 l 1424 983 m 686 1124 b 647 1139 671 1124 658 1129 b 631 1179 636 1149 631 1163 b 649 1222 631 1196 637 1210 b 690 1240 661 1234 675 1240 b 728 1225 706 1240 719 1235 b 743 1185 738 1215 743 1201 b 726 1142 743 1168 738 1154 b 686 1124 715 1130 702 1124 m 940 1124 b 901 1139 925 1124 912 1129 b 886 1179 891 1149 886 1163 b 903 1223 886 1197 892 1211 b 944 1240 915 1234 929 1240 b 983 1225 960 1240 973 1235 b 999 1185 994 1215 999 1201 b 981 1142 999 1168 993 1154 b 940 1124 970 1130 956 1124 "},"ẅ":{"ha":1001,"x_min":0,"x_max":0,"o":"m 681 0 l 597 0 l 522 550 l 519 550 l 229 0 l 147 0 l 82 647 l 160 647 l 206 94 l 208 94 l 500 647 l 575 647 l 653 94 l 657 94 l 929 647 l 1010 647 m 454 846 b 415 861 439 846 426 851 b 399 901 404 871 399 885 b 417 944 399 918 405 932 b 458 963 429 956 443 963 b 497 947 474 963 487 957 b 511 907 506 937 511 924 b 494 864 511 890 506 876 b 454 846 483 852 470 846 m 708 846 b 669 861 693 846 680 851 b 654 901 659 871 654 885 b 672 945 654 919 660 934 b 713 963 683 957 697 963 b 751 947 728 963 741 957 b 767 907 762 937 767 924 b 749 864 767 890 761 876 b 708 846 738 852 724 846 "},"Ỳ":{"ha":756,"x_min":0,"x_max":0,"o":"m 407 425 l 332 0 l 253 0 l 329 425 l 86 983 l 178 983 l 378 492 l 781 983 l 878 983 m 392 1261 l 533 1061 l 469 1061 l 294 1261 "},"ỳ":{"ha":649,"x_min":0,"x_max":0,"o":"m -19 -335 b -92 -325 -42 -335 -66 -331 l -81 -260 b -22 -268 -64 -265 -44 -268 b 58 -238 8 -268 35 -258 b 124 -150 80 -218 102 -189 l 207 -4 l 71 647 l 150 647 l 260 76 l 263 76 l 585 647 l 667 647 l 182 -181 b 90 -297 151 -232 121 -271 b -19 -335 60 -322 23 -335 m 299 983 l 440 783 l 376 783 l 201 983 "},"‐":{"ha":436,"x_min":0,"x_max":0,"o":"m 350 310 l 57 310 l 68 374 l 361 374 "},"–":{"ha":556,"x_min":0,"x_max":0,"o":"m 33 310 l 44 374 l 517 374 l 506 310 "},"—":{"ha":833,"x_min":0,"x_max":0,"o":"m 33 310 l 44 374 l 794 374 l 783 310 "},"‘":{"ha":307,"x_min":0,"x_max":0,"o":"m 279 983 l 342 983 l 196 660 l 117 660 "},"’":{"ha":307,"x_min":0,"x_max":0,"o":"m 179 660 l 117 660 l 263 983 l 342 983 "},"‚":{"ha":307,"x_min":0,"x_max":0,"o":"m 26 -193 l -36 -193 l 110 131 l 189 131 "},"“":{"ha":522,"x_min":0,"x_max":0,"o":"m 494 983 l 557 983 l 411 660 l 332 660 m 281 983 l 343 983 l 196 660 l 117 660 "},"”":{"ha":522,"x_min":0,"x_max":0,"o":"m 179 660 l 117 660 l 263 983 l 342 983 m 393 660 l 331 660 l 478 983 l 557 983 "},"„":{"ha":522,"x_min":0,"x_max":0,"o":"m 26 -193 l -36 -193 l 110 131 l 189 131 m 240 -193 l 178 -193 l 325 131 l 404 131 "},"†":{"ha":757,"x_min":0,"x_max":0,"o":"m 458 632 l 317 -175 l 243 -175 l 385 632 l 104 632 l 117 699 l 396 699 l 447 983 l 521 983 l 469 699 l 749 699 l 738 632 "},"‡":{"ha":757,"x_min":0,"x_max":0,"o":"m 115 643 l 126 711 l 399 711 l 447 983 l 521 983 l 472 711 l 742 711 l 731 643 l 460 643 l 375 165 l 646 165 l 635 97 l 364 97 l 317 -175 l 243 -175 l 290 97 l 19 97 l 31 165 l 301 165 l 386 643 "},"•":{"ha":694,"x_min":0,"x_max":0,"o":"m 101 492 b 173 666 101 560 125 618 b 347 738 221 714 279 738 b 522 666 416 738 474 714 b 593 492 569 618 593 560 b 522 317 593 423 569 365 b 347 246 474 270 416 246 b 173 317 279 246 221 270 b 101 492 125 365 101 423 "},"…":{"ha":1389,"x_min":0,"x_max":0,"o":"m 168 -8 b 126 8 151 -8 138 -3 b 110 50 115 18 110 32 b 128 99 110 69 116 86 b 174 118 140 112 155 118 b 215 102 190 118 204 113 b 232 58 226 91 232 77 b 213 11 232 40 226 24 b 168 -8 201 -2 186 -8 m 632 -8 b 590 8 615 -8 601 -3 b 574 50 579 18 574 32 b 593 99 574 69 580 86 b 639 118 606 112 621 118 b 681 101 656 118 669 113 b 697 56 692 90 697 75 b 677 11 697 39 691 24 b 632 -8 664 -2 649 -8 m 1097 -8 b 1055 8 1081 -8 1066 -3 b 1038 50 1043 18 1038 32 b 1057 99 1038 69 1044 86 b 1103 118 1070 112 1085 118 b 1144 102 1119 118 1133 113 b 1161 58 1156 91 1161 77 b 1142 11 1161 40 1155 24 b 1097 -8 1130 -2 1115 -8 "},"‰":{"ha":1389,"x_min":0,"x_max":0,"o":"m 111 751 b 178 926 111 820 134 878 b 349 997 223 973 280 997 b 483 949 404 997 449 981 b 533 824 516 916 533 875 b 467 649 533 754 511 696 b 297 578 423 601 367 578 b 163 626 242 578 197 594 b 111 751 128 659 111 700 m 178 758 b 211 670 178 723 189 694 b 301 635 233 647 263 635 b 421 688 350 635 389 653 b 468 817 452 724 468 767 b 435 906 468 853 457 882 b 342 940 413 929 381 940 b 224 887 294 940 255 922 b 178 758 193 851 178 808 m 600 -14 b 465 35 544 -14 498 2 b 414 160 431 67 414 109 b 481 334 414 228 436 286 b 650 406 525 382 581 406 b 785 357 706 406 751 389 b 835 232 818 325 835 283 b 769 58 835 163 813 105 b 600 -14 725 10 669 -14 m 603 43 b 724 97 652 43 692 61 b 771 225 755 132 771 175 b 738 315 771 261 760 291 b 644 350 715 338 684 350 b 526 297 596 350 557 332 b 479 168 495 261 479 218 b 513 78 479 132 490 102 b 603 43 535 55 565 43 m 1083 -14 b 947 35 1027 -14 981 2 b 896 160 913 67 896 109 b 963 334 896 228 918 286 b 1133 406 1008 382 1065 406 b 1268 357 1190 406 1235 389 b 1318 232 1301 325 1318 283 b 1252 58 1318 163 1296 105 b 1083 -14 1208 10 1152 -14 m 1086 43 b 1206 97 1135 43 1175 61 b 1253 225 1237 132 1253 175 b 1220 315 1253 261 1242 291 b 1128 350 1198 338 1168 350 b 1009 297 1080 350 1040 332 b 963 168 978 261 963 218 b 996 78 963 132 974 102 b 1086 43 1018 55 1048 43 m 94 -42 l 44 -11 l 849 1025 l 899 994 "},"‹":{"ha":438,"x_min":0,"x_max":0,"o":"m 317 618 l 363 578 l 158 328 l 275 83 l 219 47 l 79 333 "},"›":{"ha":438,"x_min":0,"x_max":0,"o":"m 101 47 l 56 88 l 260 338 l 143 581 l 199 618 l 339 332 "},"‽":{"ha":665,"x_min":0,"x_max":0,"o":"m 356 754 l 433 754 l 383 503 l 385 503 b 433 549 408 526 424 541 l 472 581 b 565 681 517 617 548 650 b 593 785 583 711 592 746 b 549 895 593 832 578 869 b 433 935 519 922 481 935 b 289 887 374 935 326 919 b 213 761 252 855 226 813 l 142 776 b 249 942 161 846 197 901 b 432 1003 302 982 363 1003 b 603 947 501 1003 558 984 b 669 785 647 910 669 856 b 627 647 669 731 655 685 b 504 529 599 608 558 569 b 400 437 455 494 420 463 b 360 346 380 410 366 380 l 346 269 l 271 269 m 349 57 b 331 11 349 39 343 24 b 286 -8 319 -2 304 -8 b 242 8 269 -8 254 -3 b 225 51 231 18 225 33 b 244 99 225 70 231 86 b 289 118 257 112 272 118 b 332 101 306 118 321 113 b 349 57 343 90 349 75 "},"⁄":{"ha":139,"x_min":0,"x_max":0,"o":"m -301 -42 l -351 -11 l 453 1025 l 501 994 "},"⁰":{"ha":506,"x_min":0,"x_max":0,"o":"m 394 1225 b 511 1169 447 1225 486 1206 b 549 1026 536 1132 549 1085 b 524 845 549 965 541 905 b 440 686 508 785 480 732 b 297 617 400 640 353 617 b 179 672 244 617 204 635 b 142 815 154 709 142 757 b 156 952 142 861 147 906 b 200 1083 166 998 181 1042 b 280 1185 219 1125 246 1159 b 394 1225 314 1212 352 1225 m 389 1165 b 261 1060 337 1165 294 1130 b 211 819 228 989 211 909 b 303 676 211 724 242 676 b 430 782 355 676 397 712 b 479 1021 463 852 479 932 b 389 1165 479 1117 449 1165 "},"⁴":{"ha":506,"x_min":0,"x_max":0,"o":"m 433 769 l 408 628 l 346 628 l 371 769 l 106 769 l 115 828 l 431 1214 l 510 1214 l 443 828 l 535 828 l 524 769 m 433 1124 l 429 1124 l 185 828 l 381 828 "},"⁵":{"ha":506,"x_min":0,"x_max":0,"o":"m 506 833 b 448 678 506 771 486 720 b 290 617 409 637 357 617 b 183 647 249 617 213 627 b 118 726 154 666 132 693 l 176 754 b 292 676 199 702 237 676 b 399 720 336 676 372 691 b 439 829 425 749 439 786 b 407 912 439 863 428 890 b 321 944 386 934 357 944 b 190 904 278 944 235 931 l 250 1214 l 536 1214 l 525 1153 l 301 1153 l 269 989 b 336 1001 289 997 311 1001 b 460 956 388 1001 429 986 b 506 833 490 925 506 884 "},"⁶":{"ha":506,"x_min":0,"x_max":0,"o":"m 521 825 b 461 676 521 766 501 716 b 308 617 421 637 370 617 b 185 665 258 617 217 633 b 136 785 152 697 136 737 b 218 963 136 835 163 894 l 418 1214 l 500 1214 l 301 972 l 303 971 b 363 986 319 981 339 986 b 476 942 409 986 447 972 b 521 825 506 913 521 874 m 454 821 b 425 899 454 853 444 879 b 349 928 406 918 380 928 b 243 885 305 928 270 914 b 203 783 216 857 203 823 b 233 708 203 754 213 728 b 311 676 253 687 279 676 b 415 718 354 676 388 690 b 454 821 441 746 454 780 "},"⁷":{"ha":506,"x_min":0,"x_max":0,"o":"m 157 628 l 489 1153 l 217 1153 l 226 1214 l 574 1214 l 563 1157 l 235 628 "},"⁸":{"ha":506,"x_min":0,"x_max":0,"o":"m 538 1083 b 507 994 538 1050 527 1020 b 429 938 487 969 461 950 l 429 936 b 490 888 454 926 474 910 b 513 813 505 865 513 840 b 449 669 513 752 491 705 b 303 617 407 634 358 617 b 181 658 254 617 213 630 b 132 769 148 685 132 722 b 169 877 132 810 144 846 b 268 943 193 908 226 930 l 268 944 b 218 990 246 954 229 969 b 201 1053 207 1010 201 1031 b 253 1175 201 1101 219 1142 b 382 1225 288 1208 331 1225 b 494 1188 428 1225 466 1213 b 538 1083 523 1163 538 1128 m 353 968 b 439 1001 388 968 417 979 b 472 1076 461 1024 472 1049 b 447 1142 472 1104 464 1126 b 379 1167 429 1159 407 1167 b 299 1133 347 1167 320 1156 b 267 1054 277 1111 267 1085 b 290 993 267 1030 275 1010 b 353 968 306 976 327 968 m 306 676 b 408 715 348 676 382 689 b 446 813 433 741 446 774 b 416 882 446 840 436 863 b 342 910 396 900 371 910 b 240 871 301 910 267 897 b 199 775 212 845 199 813 b 228 703 199 744 209 720 b 306 676 248 685 274 676 "},"⁹":{"ha":506,"x_min":0,"x_max":0,"o":"m 196 628 l 394 869 l 393 871 b 333 857 375 862 356 857 b 219 901 287 857 249 872 b 175 1017 190 930 175 969 b 235 1165 175 1076 195 1125 b 388 1225 275 1205 325 1225 b 511 1177 438 1225 479 1209 b 560 1057 544 1145 560 1105 b 478 879 560 1007 532 948 l 278 628 m 493 1058 b 463 1134 493 1088 483 1113 b 385 1165 443 1155 417 1165 b 281 1124 342 1165 308 1152 b 242 1022 255 1097 242 1063 b 271 944 242 990 251 964 b 347 914 290 924 316 914 b 453 956 391 914 426 928 b 493 1058 480 984 493 1019 "},"₀":{"ha":506,"x_min":0,"x_max":0,"o":"m 249 406 b 365 350 301 406 340 387 b 403 207 390 313 403 265 b 378 26 403 146 395 85 b 294 -133 362 -34 334 -87 b 151 -203 255 -180 207 -203 b 33 -147 98 -203 58 -184 b -4 -4 8 -110 -4 -62 b 10 133 -4 41 1 87 b 54 264 20 178 35 222 b 134 366 74 306 100 340 b 249 406 168 392 206 406 m 243 346 b 115 240 191 346 149 311 b 65 0 82 170 65 90 b 157 -143 65 -95 96 -143 b 284 -37 209 -143 251 -108 b 333 201 317 33 333 113 b 243 346 333 298 303 346 "},"₁":{"ha":506,"x_min":0,"x_max":0,"o":"m 119 -192 l 208 311 l 90 229 l 57 275 l 232 394 l 290 394 l 186 -192 "},"₂":{"ha":506,"x_min":0,"x_max":0,"o":"m -35 -192 l -24 -125 l 233 99 b 315 185 272 133 299 162 b 338 256 330 208 338 231 b 310 322 338 284 328 306 b 236 346 292 338 268 346 b 111 249 178 346 136 313 l 49 265 b 125 369 65 310 91 344 b 240 406 159 393 198 406 b 361 366 292 406 332 392 b 404 260 390 340 404 304 b 374 158 404 221 394 187 b 264 49 353 130 317 93 l 54 -131 l 356 -131 l 344 -192 "},"₃":{"ha":506,"x_min":0,"x_max":0,"o":"m 156 -203 b 40 -171 110 -203 72 -192 b -28 -83 8 -150 -15 -120 l 38 -64 b 156 -143 55 -117 94 -143 b 251 -110 195 -143 227 -132 b 288 -22 275 -89 288 -59 b 249 60 288 15 275 42 b 153 86 224 77 192 86 l 128 86 l 138 142 l 165 142 b 278 173 214 142 252 152 b 317 258 304 194 317 222 b 290 324 317 286 308 308 b 222 347 273 339 250 347 b 110 281 174 347 137 325 l 58 314 b 231 406 99 375 156 406 b 341 367 276 406 313 393 b 383 263 369 342 383 307 b 346 162 383 221 371 187 b 253 113 321 136 290 120 b 326 67 283 106 308 91 b 354 -17 345 44 354 16 b 298 -153 354 -75 335 -121 b 156 -203 260 -186 213 -203 "},"₄":{"ha":506,"x_min":0,"x_max":0,"o":"m 288 -50 l 263 -192 l 200 -192 l 225 -50 l -40 -50 l -31 8 l 285 394 l 364 394 l 297 8 l 389 8 l 378 -50 m 288 304 l 283 304 l 39 8 l 235 8 "},"₅":{"ha":506,"x_min":0,"x_max":0,"o":"m 360 14 b 302 -141 360 -48 341 -100 b 144 -203 264 -182 211 -203 b 38 -173 103 -203 67 -193 b -28 -93 8 -153 -14 -126 l 31 -65 b 146 -143 53 -117 91 -143 b 253 -99 190 -143 226 -128 b 293 10 280 -70 293 -34 b 261 92 293 43 282 71 b 175 125 240 114 211 125 b 44 85 132 125 89 112 l 104 394 l 390 394 l 379 333 l 156 333 l 124 169 b 190 182 143 178 165 182 b 314 136 242 182 283 167 b 360 14 344 106 360 65 "},"₆":{"ha":506,"x_min":0,"x_max":0,"o":"m 375 6 b 315 -143 375 -54 355 -103 b 163 -203 275 -183 225 -203 b 39 -155 113 -203 71 -187 b -10 -35 6 -123 -10 -83 b 72 143 -10 15 18 75 l 272 394 l 354 394 l 156 153 l 157 151 b 217 167 174 162 194 167 b 331 123 263 167 301 152 b 375 6 360 94 375 55 m 308 1 b 279 79 308 34 299 60 b 203 108 260 99 234 108 b 97 66 159 108 124 94 b 57 -36 70 38 57 4 b 87 -112 57 -66 67 -91 b 165 -143 107 -133 133 -143 b 269 -101 208 -143 242 -129 b 308 1 295 -74 308 -39 "},"₇":{"ha":506,"x_min":0,"x_max":0,"o":"m 11 -192 l 343 333 l 71 333 l 81 394 l 428 394 l 417 338 l 89 -192 "},"₈":{"ha":506,"x_min":0,"x_max":0,"o":"m 392 264 b 361 175 392 231 381 201 b 283 118 341 149 315 130 l 283 117 b 344 68 308 106 328 90 b 367 -7 359 46 367 21 b 303 -150 367 -67 346 -115 b 157 -203 261 -185 213 -203 b 35 -162 108 -203 67 -189 b -14 -50 2 -134 -14 -97 b 23 58 -14 -9 -2 27 b 122 124 47 89 81 111 l 122 125 b 72 170 100 134 83 149 b 56 233 61 191 56 212 b 108 356 56 281 73 322 b 236 406 142 389 185 406 b 349 368 282 406 320 393 b 392 264 377 343 392 308 m 207 149 b 293 182 242 149 271 160 b 326 257 315 204 326 229 b 301 323 326 285 318 307 b 233 347 284 339 261 347 b 153 314 201 347 174 336 b 121 235 131 292 121 265 b 144 174 121 211 129 190 b 207 149 160 157 181 149 m 160 -143 b 262 -104 202 -143 236 -130 b 300 -7 287 -78 300 -46 b 270 63 300 21 290 44 b 196 90 250 81 225 90 b 94 51 155 90 121 77 b 53 -44 66 25 53 -6 b 83 -117 53 -75 63 -99 b 160 -143 103 -134 128 -143 "},"₉":{"ha":506,"x_min":0,"x_max":0,"o":"m 50 -192 l 249 50 l 247 51 b 188 38 230 42 210 38 b 74 81 141 38 103 52 b 29 197 44 110 29 149 b 89 346 29 256 49 306 b 242 406 129 386 180 406 b 365 358 292 406 333 390 b 414 238 398 326 414 286 b 332 60 414 187 387 128 l 132 -192 m 347 239 b 317 315 347 269 337 294 b 239 346 297 335 271 346 b 135 305 196 346 162 332 b 96 203 109 278 96 244 b 125 124 96 170 106 144 b 201 94 144 104 170 94 b 307 137 245 94 280 109 b 347 239 334 165 347 199 "},"℅":{"ha":1153,"x_min":0,"x_max":0,"o":"m 322 528 b 168 581 256 528 205 546 b 113 722 131 617 113 664 b 188 919 113 799 138 865 b 382 1000 239 973 303 1000 b 546 919 458 1000 513 973 l 489 881 b 379 940 466 920 429 940 b 241 878 324 940 278 920 b 186 728 204 837 186 787 b 222 626 186 686 198 652 b 325 588 246 600 281 588 b 460 649 376 588 421 608 l 504 607 b 322 528 450 554 389 528 m 164 -11 l 969 1025 l 1018 994 l 215 -42 m 1072 258 b 997 63 1072 181 1047 116 b 806 -18 947 9 883 -18 b 651 38 742 -18 690 0 b 593 181 613 75 593 122 b 669 374 593 256 618 321 b 861 454 719 428 783 454 b 1015 400 925 454 976 436 b 1072 258 1053 364 1072 317 m 1000 254 b 963 356 1000 296 988 330 b 857 394 938 381 902 394 b 719 332 801 394 756 374 b 665 183 683 290 665 241 b 703 83 665 143 678 109 b 808 43 728 56 763 43 b 946 105 864 43 910 64 b 1000 254 982 146 1000 196 "},"ℓ":{"ha":694,"x_min":0,"x_max":0,"o":"m 653 872 b 321 383 653 734 542 571 b 269 117 287 233 269 144 b 351 36 269 63 297 36 b 488 93 391 36 437 55 l 490 93 l 511 50 b 333 -19 451 4 392 -19 b 235 13 294 -19 261 -9 b 197 106 210 34 197 65 b 240 333 197 129 212 205 l 142 244 l 139 244 b 115 288 128 263 120 277 l 254 403 l 333 771 b 411 942 349 847 375 904 b 538 999 447 980 489 999 b 620 964 571 999 598 987 b 653 872 642 941 653 910 m 590 865 b 573 925 590 889 584 909 b 529 949 561 941 547 949 b 407 785 470 949 429 894 b 384 681 401 761 394 726 b 358 559 374 636 366 596 b 336 456 350 522 343 488 b 513 660 402 518 461 586 b 590 865 564 734 590 802 "},"№":{"ha":1435,"x_min":0,"x_max":0,"o":"m 240 983 l 347 983 l 704 111 l 707 111 l 863 983 l 940 983 l 767 0 l 660 0 l 303 879 l 300 879 l 146 0 l 67 0 m 1014 496 l 1400 496 l 1388 432 l 1001 432 m 1232 582 b 1100 630 1177 582 1133 598 b 1050 753 1067 662 1050 703 b 1116 924 1050 819 1072 876 b 1283 994 1160 971 1216 994 b 1417 947 1339 994 1384 978 b 1468 824 1451 915 1468 874 b 1401 653 1468 757 1446 700 b 1232 582 1357 606 1300 582 m 1238 633 b 1358 688 1287 633 1327 651 b 1406 818 1390 724 1406 767 b 1372 908 1406 854 1394 884 b 1279 943 1350 931 1319 943 b 1160 889 1231 943 1191 925 b 1113 758 1128 853 1113 809 b 1146 669 1113 722 1124 692 b 1238 633 1168 645 1199 633 "},"℗":{"ha":1111,"x_min":0,"x_max":0,"o":"m 28 490 b 183 861 28 636 79 759 b 557 1014 286 963 411 1014 b 929 861 702 1014 826 963 b 1083 490 1032 759 1083 636 b 929 122 1083 346 1032 223 b 557 -31 826 20 702 -31 b 183 122 411 -31 286 20 b 28 490 79 223 28 346 m 96 490 b 231 167 96 364 141 257 b 557 33 322 78 430 33 b 881 167 684 33 792 78 b 1015 490 971 257 1015 364 b 881 815 1015 617 971 725 b 557 950 792 905 684 950 b 231 815 430 950 322 905 b 96 490 141 725 96 617 m 393 788 l 607 788 b 766 738 674 788 727 771 b 825 597 805 705 825 658 b 766 458 825 539 805 492 b 608 406 727 423 674 406 l 467 406 l 467 178 l 393 178 m 606 471 b 713 504 652 471 688 482 b 750 597 738 526 750 557 b 711 690 750 637 737 668 b 604 722 685 711 650 722 l 467 722 l 467 471 "},"™":{"ha":1389,"x_min":0,"x_max":0,"o":"m 1283 411 l 1283 910 l 1281 910 l 1075 411 l 1032 411 l 828 910 l 825 910 l 825 411 l 757 411 l 757 983 l 863 983 l 1056 519 l 1247 983 l 1351 983 l 1351 411 m 444 922 l 444 411 l 376 411 l 376 922 l 189 922 l 189 983 l 629 983 l 629 922 "},"Ω":{"ha":1031,"x_min":0,"x_max":0,"o":"m 507 933 b 251 832 406 933 321 900 b 147 578 182 764 147 680 b 214 356 147 491 169 417 b 404 243 258 294 322 257 l 404 0 l 74 0 l 74 65 l 344 65 l 344 196 b 146 338 260 220 194 267 b 74 579 98 408 74 488 b 201 881 74 700 116 800 b 508 1001 287 961 389 1001 b 815 881 628 1001 730 961 b 942 581 899 801 942 701 b 870 338 942 489 918 408 b 671 196 822 267 756 220 l 671 65 l 942 65 l 942 0 l 611 0 l 611 243 b 801 357 694 258 757 296 b 868 578 846 418 868 492 b 764 832 868 680 833 764 b 507 933 694 900 609 933 "},"℮":{"ha":840,"x_min":0,"x_max":0,"o":"m 218 360 l 218 108 b 419 26 273 54 340 26 b 688 193 532 26 622 82 l 736 164 b 600 20 694 97 648 49 b 419 -24 552 -9 492 -24 b 160 86 313 -24 227 13 b 61 360 94 159 61 250 b 160 634 61 470 94 561 b 419 743 225 707 312 743 b 678 636 526 743 612 707 b 779 360 745 565 778 473 m 622 410 l 622 611 b 418 694 564 667 496 694 b 218 611 340 694 274 667 l 218 410 "},"∂":{"ha":681,"x_min":0,"x_max":0,"o":"m 314 -18 b 121 72 234 -18 170 12 b 47 290 72 132 47 205 b 119 502 47 376 71 447 b 308 585 166 557 230 585 b 442 550 356 585 400 573 b 547 456 483 527 519 495 b 548 499 547 466 547 480 b 549 540 548 517 549 531 b 524 732 549 610 540 674 b 439 881 507 790 479 840 b 292 942 399 921 350 942 b 138 879 242 942 190 921 l 97 928 b 288 1003 155 978 218 1003 b 419 974 337 1003 380 993 b 513 897 457 954 489 928 b 574 783 538 865 558 827 b 608 649 591 739 602 694 b 618 506 615 603 618 556 b 603 309 618 434 613 369 b 553 144 593 249 576 194 b 458 25 531 93 499 54 b 314 -18 418 -4 369 -18 m 315 42 b 420 76 355 42 390 53 b 490 166 450 98 473 128 b 526 276 506 203 518 240 b 540 385 534 311 538 348 b 315 522 477 476 402 522 b 170 453 253 522 205 499 b 118 289 135 408 118 353 b 171 118 118 226 136 169 b 315 42 206 67 254 42 "},"∆":{"ha":925,"x_min":0,"x_max":0,"o":"m 31 0 l 418 989 l 503 989 l 897 0 m 460 915 l 131 68 l 792 68 "},"∏":{"ha":985,"x_min":0,"x_max":0,"o":"m 804 -297 l 804 1024 l 181 1024 l 181 -297 l 107 -297 l 107 1092 l 878 1092 l 878 -297 "},"∑":{"ha":835,"x_min":0,"x_max":0,"o":"m 43 -297 l 43 -235 l 504 401 l 63 1028 l 63 1092 l 774 1092 l 774 1024 l 156 1024 l 594 401 l 132 -229 l 790 -229 l 790 -297 "},"−":{"ha":925,"x_min":0,"x_max":0,"o":"m 118 389 l 118 456 l 807 456 l 807 389 "},"∕":{"ha":139,"x_min":0,"x_max":0,"o":"m -301 -42 l -351 -11 l 453 1025 l 501 994 "},"∙":{"ha":353,"x_min":0,"x_max":0,"o":"m 179 349 b 136 365 162 349 147 354 b 119 408 125 375 119 390 b 138 456 119 427 126 443 b 183 475 151 469 166 475 b 226 458 200 475 214 469 b 243 414 237 447 243 432 b 224 368 243 396 237 381 b 179 349 212 355 197 349 "},"√":{"ha":678,"x_min":0,"x_max":0,"o":"m 315 -297 l 86 186 l 15 153 l -11 210 l 119 271 l 344 -207 l 614 1092 l 683 1092 l 393 -297 "},"∞":{"ha":1021,"x_min":0,"x_max":0,"o":"m 515 303 b 483 274 512 300 501 290 b 448 241 466 257 454 246 b 415 214 442 236 431 227 b 376 187 398 201 386 192 b 340 168 367 182 355 175 b 298 153 325 161 311 156 b 256 149 284 150 270 149 b 122 204 201 149 156 167 b 71 346 88 241 71 288 b 122 488 71 402 88 450 b 254 544 155 525 200 544 b 353 517 286 544 319 535 b 436 462 388 498 416 480 b 515 386 456 444 483 419 l 528 399 b 602 470 559 430 584 454 b 678 520 620 486 645 503 b 771 546 710 537 741 546 b 906 490 826 546 872 527 b 958 349 941 453 958 406 b 907 206 958 291 941 244 b 772 149 873 168 828 149 b 645 190 728 149 685 163 b 515 303 605 218 562 256 m 557 343 b 674 246 601 300 640 268 b 776 213 707 224 741 213 b 863 250 813 213 841 225 b 894 344 884 275 894 306 b 862 443 894 383 884 416 b 772 483 840 470 810 483 b 697 460 749 483 724 476 b 630 413 670 445 648 429 b 557 343 612 397 588 374 m 472 344 b 354 446 428 388 388 422 b 253 482 320 470 286 482 b 167 442 217 482 188 469 b 135 346 145 416 135 384 b 167 250 135 307 146 275 b 257 213 189 225 219 213 b 472 344 314 213 386 256 "}}}
